{"glyphs":{"0":{"ha":908,"x_min":101,"x_max":807,"o":"m 454 -17 q 313 13 375 -17 q 211 91 250 43 q 147 206 172 139 q 112 342 122 274 q 101 486 101 410 q 111 628 101 560 q 147 763 121 696 q 210 879 172 831 q 312 958 249 928 q 454 989 375 989 q 624 945 553 989 q 734 826 696 901 q 790 667 772 751 q 807 486 807 583 q 790 309 807 392 q 735 150 774 226 q 625 28 697 74 q 454 -17 553 -17 m 454 142 q 544 172 507 142 q 601 253 582 201 q 630 362 621 304 q 639 486 639 419 q 630 613 639 556 q 601 722 621 671 q 543 801 581 772 q 454 831 506 831 q 364 801 401 831 q 307 720 326 772 q 279 611 288 668 q 271 486 271 554 q 280 360 271 418 q 308 251 289 301 q 365 171 328 200 q 454 142 403 142 z "},"1":{"ha":565,"x_min":46,"x_max":367,"o":"m 200 0 l 200 738 l 46 738 l 46 865 q 236 972 200 865 l 367 972 l 367 0 l 200 0 z "},"2":{"ha":851,"x_min":88,"x_max":760,"o":"m 88 0 q 432 528 88 344 q 543 605 503 565 q 583 701 583 644 q 542 794 583 758 q 435 831 501 831 q 253 711 304 831 l 103 779 q 231 932 142 875 q 433 989 319 989 q 665 908 579 989 q 751 701 751 828 q 694 522 751 588 q 515 389 636 456 q 360 281 414 333 q 288 161 306 228 l 760 161 l 760 0 l 88 0 z "},"3":{"ha":836,"x_min":65,"x_max":749,"o":"m 408 -17 q 197 44 285 -17 q 65 210 108 104 l 218 271 q 411 142 279 142 q 532 178 485 142 q 579 283 579 215 q 538 386 579 346 q 411 426 496 426 l 326 426 l 326 585 l 411 585 q 508 618 471 585 q 544 706 544 651 q 509 797 544 763 q 408 831 474 831 q 251 732 304 831 l 99 790 q 219 935 139 882 q 411 989 300 989 q 628 912 543 989 q 714 721 714 835 q 592 511 714 578 q 706 425 663 483 q 749 286 749 367 q 655 63 749 143 q 408 -17 561 -17 z "},"4":{"ha":901,"x_min":18,"x_max":821,"o":"m 535 0 l 535 208 l 18 208 l 18 314 l 515 972 l 699 972 l 699 361 l 821 361 l 821 208 l 699 208 l 699 0 l 535 0 m 535 361 l 535 761 l 236 361 l 535 361 z "},"5":{"ha":839,"x_min":81,"x_max":753,"o":"m 381 -17 q 81 75 190 -17 l 175 206 q 381 142 271 142 q 528 192 472 142 q 585 325 585 242 q 542 443 585 401 q 426 485 500 485 q 274 418 336 485 l 108 488 l 138 972 l 692 972 l 692 813 l 292 813 l 276 601 q 440 643 347 643 q 672 551 590 643 q 753 326 753 460 q 649 77 753 171 q 381 -17 544 -17 z "},"6":{"ha":842,"x_min":88,"x_max":775,"o":"m 433 -17 q 177 88 267 -17 q 88 360 88 193 q 224 776 88 610 q 639 989 361 943 l 639 831 q 419 744 514 811 q 286 556 324 676 q 465 614 356 614 q 688 526 601 614 q 775 297 775 438 q 680 70 775 157 q 433 -17 585 -17 m 308 183 q 333 163 308 183 q 433 142 357 142 q 558 183 510 142 q 607 297 607 225 q 558 413 607 371 q 433 456 510 456 q 308 413 357 456 q 260 297 260 371 q 308 183 260 225 z "},"7":{"ha":747,"x_min":32,"x_max":694,"o":"m 242 0 q 308 431 243 240 q 507 811 372 622 l 32 811 l 32 972 l 694 972 l 694 811 q 481 417 550 646 q 410 0 411 189 l 242 0 z "},"8":{"ha":863,"x_min":88,"x_max":775,"o":"m 681 68 q 633 26 681 68 q 431 -17 586 -17 q 181 68 275 -17 q 88 289 88 153 q 250 532 88 456 q 128 733 128 600 q 210 917 128 846 q 431 989 293 989 q 651 917 568 989 q 735 733 735 846 q 613 533 735 601 q 731 435 688 497 q 775 289 775 372 q 681 68 775 153 m 332 640 q 351 624 332 640 q 431 607 369 607 q 530 640 492 607 q 568 724 568 674 q 530 805 568 774 q 431 836 492 836 q 332 805 369 836 q 294 724 294 774 q 332 640 294 674 m 306 181 q 330 159 306 181 q 431 138 354 138 q 557 181 507 138 q 607 293 607 225 q 556 406 607 360 q 431 451 506 451 q 306 406 354 451 q 257 293 257 361 q 306 181 257 224 z "},"9":{"ha":842,"x_min":67,"x_max":754,"o":"m 231 -17 l 231 146 q 567 424 508 160 q 388 361 504 361 q 156 447 246 361 q 67 676 67 532 q 163 903 67 817 q 411 989 258 989 q 669 886 583 989 q 754 613 754 783 q 623 160 754 326 q 231 -17 492 -7 m 283 564 q 306 544 283 564 q 410 524 329 524 q 538 565 490 524 q 585 678 585 606 q 537 787 585 746 q 411 828 489 828 q 285 787 333 828 q 238 678 238 746 q 283 564 238 604 z "}," ":{"ha":340,"x_min":0,"x_max":0,"o":""},"!":{"ha":400,"x_min":88,"x_max":314,"o":"m 158 268 l 118 678 l 118 989 l 281 989 l 281 678 l 242 268 l 158 268 m 200 -17 q 119 15 151 -17 q 88 93 88 47 q 119 172 88 139 q 200 204 151 204 q 281 172 247 204 q 314 93 314 139 q 281 16 314 49 q 200 -17 247 -17 z "},"\"":{"ha":603,"x_min":63,"x_max":540,"o":"m 63 972 l 261 972 l 231 576 l 94 576 l 63 972 m 342 972 l 540 972 l 510 576 l 374 576 l 342 972 z "},"#":{"ha":958,"x_min":58,"x_max":900,"o":"m 172 0 l 211 254 l 58 254 l 79 392 l 232 392 l 264 604 l 111 604 l 132 742 l 286 742 l 321 972 l 461 972 l 426 742 l 607 742 l 643 972 l 783 972 l 747 742 l 900 742 l 881 604 l 726 604 l 694 392 l 847 392 l 826 254 l 674 254 l 635 0 l 494 0 l 533 254 l 353 254 l 314 0 l 172 0 m 374 392 l 554 392 l 586 604 l 406 604 l 374 392 z "},"$":{"ha":824,"x_min":69,"x_max":740,"o":"m 329 -132 l 329 -7 q 168 76 235 14 q 69 233 101 139 l 224 290 q 304 182 253 222 q 421 142 356 142 q 529 177 489 142 q 569 276 569 213 q 556 335 569 310 q 509 382 542 361 q 451 414 476 403 q 375 444 425 425 q 297 476 324 464 q 227 513 271 488 q 162 565 183 539 q 123 635 140 592 q 106 731 106 678 q 165 892 106 824 q 329 982 224 961 l 329 1093 l 492 1093 l 492 981 q 626 909 574 961 q 700 781 678 857 l 550 731 q 397 831 510 831 q 308 804 340 831 q 276 731 276 778 q 286 692 276 710 q 309 662 296 674 q 349 636 322 650 q 394 615 376 622 q 450 594 413 608 q 518 567 496 576 q 582 536 540 557 q 646 494 624 515 q 693 441 668 472 q 729 369 718 410 q 740 278 740 328 q 671 85 740 160 q 492 -10 601 10 l 492 -132 l 329 -132 z "},"%":{"ha":1178,"x_min":63,"x_max":1115,"o":"m 294 488 q 120 563 178 488 q 63 739 63 638 q 120 912 63 835 q 294 989 178 989 q 469 914 411 989 q 526 739 526 839 q 469 565 526 642 q 294 488 413 488 m 335 -17 l 179 -17 l 843 989 l 999 989 l 335 -17 m 223 651 q 235 634 223 651 q 294 618 247 618 q 366 652 342 618 q 390 739 390 686 q 366 826 390 793 q 294 858 342 858 q 223 824 247 858 q 199 739 199 790 q 223 651 199 683 m 1058 60 q 1030 22 1058 60 q 883 -17 1001 -17 q 708 58 765 -17 q 651 235 651 133 q 709 408 651 331 q 883 485 767 485 q 1058 410 1000 485 q 1115 235 1115 336 q 1058 60 1115 136 m 812 147 q 824 130 812 147 q 883 114 836 114 q 955 148 931 114 q 979 235 979 182 q 954 322 979 289 q 883 354 929 354 q 812 321 836 354 q 788 235 788 288 q 812 147 788 179 z "},"&":{"ha":986,"x_min":83,"x_max":954,"o":"m 376 -17 q 164 60 244 -17 q 83 261 83 136 q 140 430 83 363 q 296 550 197 497 q 222 660 243 613 q 200 765 200 708 q 269 929 200 869 q 443 989 338 989 q 613 926 546 989 q 681 765 681 864 q 638 627 681 683 q 519 522 596 571 l 649 367 q 668 479 668 422 l 828 479 q 761 232 825 339 l 954 0 l 742 0 l 661 99 q 376 -17 546 -17 m 501 831 q 489 843 501 831 q 439 856 476 856 q 378 833 401 856 q 354 772 354 810 q 431 629 354 721 q 526 761 526 685 q 501 831 526 806 m 396 139 q 567 215 490 139 l 385 439 q 256 267 256 361 q 293 174 256 208 q 396 139 331 139 z "},"'":{"ha":324,"x_min":63,"x_max":261,"o":"m 63 972 l 261 972 l 231 576 l 94 576 l 63 972 z "},"(":{"ha":499,"x_min":97,"x_max":443,"o":"m 267 -181 q 97 394 97 42 q 151 740 97 585 q 282 989 204 896 l 443 989 q 322 754 382 917 q 261 394 261 592 q 316 49 261 200 q 428 -181 371 -103 l 267 -181 z "},")":{"ha":499,"x_min":56,"x_max":401,"o":"m 71 -181 q 137 -67 104 -132 q 203 128 169 -1 q 238 394 238 258 q 177 754 238 592 q 56 989 117 917 l 217 989 q 348 740 294 896 q 401 394 401 585 q 232 -181 401 42 l 71 -181 z "},"*":{"ha":750,"x_min":69,"x_max":681,"o":"m 400 532 l 375 613 l 351 532 l 251 399 l 132 485 l 231 619 l 297 661 l 217 663 l 69 711 l 115 853 l 264 806 l 325 761 l 300 833 l 300 994 l 450 994 l 450 833 l 425 760 l 488 806 l 635 853 l 681 711 l 535 663 l 453 661 l 519 619 l 618 485 l 499 399 l 400 532 z "},"+":{"ha":875,"x_min":111,"x_max":764,"o":"m 519 399 l 519 150 l 357 150 l 357 399 l 111 399 l 111 556 l 357 556 l 357 803 l 519 803 l 519 556 l 764 556 l 764 399 l 519 399 z "},",":{"ha":326,"x_min":53,"x_max":278,"o":"m 53 -150 q 106 -88 78 -128 q 140 -14 133 -49 q 79 22 104 -6 q 54 89 54 49 q 87 169 54 138 q 164 200 119 200 q 245 166 213 200 q 278 69 278 132 q 232 -81 278 -8 q 118 -196 186 -154 l 53 -150 z "},"-":{"ha":561,"x_min":104,"x_max":457,"o":"m 104 333 l 104 490 l 457 490 l 457 333 l 104 333 z "},".":{"ha":322,"x_min":50,"x_max":272,"o":"m 240 15 q 224 -1 240 15 q 161 -17 208 -17 q 82 15 114 -17 q 50 92 50 46 q 82 169 50 138 q 161 200 114 200 q 240 168 208 200 q 272 92 272 136 q 240 15 272 46 z "},"/":{"ha":706,"x_min":-21,"x_max":692,"o":"m -21 -181 l 525 989 l 692 989 l 146 -181 l -21 -181 z "},":":{"ha":322,"x_min":50,"x_max":272,"o":"m 240 488 q 224 473 240 488 q 161 457 208 457 q 82 488 114 457 q 50 565 50 519 q 82 642 50 611 q 161 674 114 674 q 240 642 208 674 q 272 565 272 610 q 240 488 272 519 m 240 15 q 224 -1 240 15 q 161 -17 208 -17 q 82 15 114 -17 q 50 92 50 46 q 82 169 50 138 q 161 200 114 200 q 240 168 208 200 q 272 92 272 136 q 240 15 272 46 z "},";":{"ha":322,"x_min":51,"x_max":276,"o":"m 242 488 q 226 473 242 488 q 163 457 210 457 q 84 488 115 457 q 53 565 53 519 q 85 642 53 611 q 163 674 117 674 q 242 642 210 674 q 275 565 275 610 q 242 488 275 519 m 51 -150 q 103 -90 76 -128 q 139 -14 131 -51 q 77 21 101 -7 q 53 89 53 49 q 85 169 53 138 q 163 200 118 200 q 244 166 211 200 q 276 69 276 132 q 231 -82 276 -11 q 117 -196 185 -153 l 51 -150 z "},"<":{"ha":875,"x_min":111,"x_max":764,"o":"m 764 143 l 111 410 l 111 544 l 764 810 l 764 643 l 344 476 l 764 310 l 764 143 z "},"=":{"ha":875,"x_min":111,"x_max":764,"o":"m 111 543 l 111 700 l 764 700 l 764 543 l 111 543 m 111 254 l 111 411 l 764 411 l 764 254 l 111 254 z "},">":{"ha":875,"x_min":111,"x_max":764,"o":"m 764 410 l 111 143 l 111 311 l 531 476 l 111 643 l 111 810 l 764 544 l 764 410 z "},"?":{"ha":699,"x_min":28,"x_max":650,"o":"m 256 264 l 256 303 q 273 413 256 364 q 316 490 290 461 q 372 545 342 518 q 427 592 401 572 q 470 644 453 613 q 488 711 488 675 q 451 800 488 765 q 351 835 415 835 q 233 788 275 835 q 190 658 190 742 l 28 658 q 117 901 28 813 q 351 989 206 989 q 572 911 493 989 q 650 711 650 833 q 633 614 650 657 q 590 545 615 571 q 534 492 564 519 q 478 441 504 464 q 435 382 453 418 q 418 301 418 346 l 418 264 l 256 264 m 417 15 q 401 -1 417 15 q 338 -17 385 -17 q 258 15 290 -17 q 226 92 226 46 q 258 169 226 138 q 338 200 290 200 q 417 168 385 200 q 449 92 449 136 q 417 15 449 46 z "},"@":{"ha":1150,"x_min":83,"x_max":1067,"o":"m 585 -17 q 221 112 358 -17 q 83 469 83 240 q 233 842 83 694 q 599 989 382 989 q 938 869 808 989 q 1067 572 1067 749 q 985 322 1067 422 q 788 222 904 222 q 720 242 751 222 q 681 300 689 263 q 531 219 632 219 q 386 285 442 219 q 331 457 331 350 q 403 656 331 568 q 586 744 475 744 q 711 676 675 744 l 721 726 l 851 726 l 806 486 q 788 367 788 392 q 811 338 788 338 q 901 404 861 338 q 940 569 940 471 q 852 781 940 697 q 604 864 764 864 q 327 751 435 864 q 219 468 219 639 q 319 203 219 297 q 590 108 418 108 q 771 132 679 108 l 736 -7 q 585 -17 668 -17 m 550 347 q 642 398 606 347 q 678 511 678 449 q 656 588 678 560 q 593 617 633 617 q 501 569 538 617 q 464 456 464 522 q 488 377 464 407 q 550 347 511 347 z "},"A":{"ha":992,"x_min":51,"x_max":940,"o":"m 765 0 l 689 213 l 304 213 l 228 0 l 51 0 l 414 972 l 579 972 l 940 0 l 765 0 m 636 363 l 529 654 q 497 753 508 707 q 465 654 486 713 l 357 363 l 636 363 z "},"B":{"ha":944,"x_min":118,"x_max":861,"o":"m 118 972 l 515 972 q 752 899 678 972 q 826 713 826 825 q 701 513 826 574 q 822 422 782 483 q 861 288 861 360 q 781 85 861 171 q 536 0 701 0 l 118 0 l 118 972 m 493 581 q 616 613 574 581 q 658 700 658 644 q 519 818 658 818 l 285 818 l 285 581 l 493 581 m 546 154 q 658 192 624 154 q 692 283 692 231 q 506 426 692 426 l 285 426 l 285 154 l 546 154 z "},"C":{"ha":896,"x_min":83,"x_max":831,"o":"m 490 -17 q 332 13 403 -17 q 216 90 261 42 q 140 206 171 139 q 97 342 110 272 q 83 486 83 411 q 106 660 83 575 q 174 820 128 744 q 301 942 219 896 q 490 989 383 989 q 707 928 619 989 q 829 782 794 868 l 679 714 q 598 801 640 774 q 490 829 556 829 q 378 798 426 829 q 305 715 331 767 q 267 605 279 663 q 256 486 256 547 q 316 247 256 350 q 490 144 376 144 q 676 269 601 144 l 831 211 q 490 -17 729 -17 z "},"D":{"ha":969,"x_min":118,"x_max":886,"o":"m 118 972 l 418 972 q 597 944 517 972 q 731 871 678 917 q 819 762 783 825 q 870 630 854 699 q 886 486 886 561 q 872 350 886 417 q 822 219 857 283 q 733 106 786 154 q 598 29 681 58 q 413 0 515 0 l 118 0 l 118 972 m 436 157 q 566 186 510 157 q 653 265 622 215 q 699 369 685 314 q 714 486 714 425 q 647 719 714 622 q 451 815 581 815 l 285 815 l 285 157 l 436 157 z "},"E":{"ha":851,"x_min":118,"x_max":782,"o":"m 118 0 l 118 972 l 751 972 l 751 815 l 285 815 l 285 581 l 572 581 l 572 424 l 285 424 l 285 157 l 782 157 l 782 0 l 118 0 z "},"F":{"ha":788,"x_min":118,"x_max":746,"o":"m 118 0 l 118 972 l 746 972 l 746 815 l 285 815 l 285 581 l 579 581 l 579 424 l 285 424 l 285 0 l 118 0 z "},"G":{"ha":947,"x_min":83,"x_max":867,"o":"m 510 -17 q 317 26 401 -17 q 183 140 233 68 q 108 300 133 213 q 83 486 83 388 q 99 629 83 558 q 150 765 115 700 q 233 880 185 831 q 353 959 282 929 q 510 989 425 989 q 715 937 638 989 q 850 793 793 885 l 701 708 q 510 828 621 828 q 388 797 440 828 q 308 713 336 765 q 268 604 281 661 q 256 486 256 547 q 319 243 256 342 q 510 144 383 144 q 644 197 590 144 q 697 326 697 250 l 697 342 l 526 342 l 526 499 l 867 499 l 867 364 q 767 84 867 185 q 510 -17 667 -17 z "},"H":{"ha":993,"x_min":118,"x_max":875,"o":"m 710 0 l 710 422 l 285 422 l 285 0 l 118 0 l 118 972 l 285 972 l 285 579 l 710 579 l 710 972 l 875 972 l 875 0 l 710 0 z "},"I":{"ha":417,"x_min":125,"x_max":292,"o":"m 125 0 l 125 972 l 292 972 l 292 0 l 125 0 z "},"J":{"ha":785,"x_min":28,"x_max":674,"o":"m 346 -17 q 156 35 240 -17 q 28 182 72 88 l 172 251 q 346 143 226 143 q 508 350 508 143 l 508 972 l 674 972 l 674 332 q 653 190 674 253 q 601 90 633 128 q 525 27 569 51 q 437 -7 481 3 q 346 -17 393 -17 z "},"K":{"ha":965,"x_min":118,"x_max":917,"o":"m 722 0 l 461 488 l 285 272 l 285 0 l 118 0 l 118 972 l 285 972 l 285 506 l 656 972 l 850 972 l 572 628 l 917 0 l 722 0 z "},"L":{"ha":785,"x_min":118,"x_max":757,"o":"m 118 0 l 118 972 l 285 972 l 285 160 l 757 160 l 757 0 l 118 0 z "},"M":{"ha":1121,"x_min":118,"x_max":1003,"o":"m 1003 0 l 836 0 l 836 517 q 842 633 836 581 q 797 514 825 583 l 561 -17 l 325 517 q 279 633 300 572 q 285 517 285 581 l 285 0 l 118 0 l 118 972 l 286 972 l 536 401 q 563 329 551 363 q 589 401 574 363 l 840 972 l 1003 972 l 1003 0 z "},"N":{"ha":992,"x_min":118,"x_max":874,"o":"m 874 0 l 722 0 l 319 614 q 279 686 300 643 q 283 614 283 653 l 283 0 l 118 0 l 118 972 l 279 972 l 672 368 q 713 294 686 347 q 708 368 708 332 l 708 972 l 874 972 l 874 0 z "},"O":{"ha":1019,"x_min":83,"x_max":936,"o":"m 510 -17 q 346 13 419 -17 q 224 91 272 42 q 144 206 176 140 q 97 341 111 271 q 83 486 83 411 q 97 631 83 561 q 144 767 111 701 q 224 881 176 832 q 346 960 272 931 q 510 989 419 989 q 708 945 622 989 q 841 827 793 901 q 913 667 889 753 q 936 486 936 581 q 913 306 936 392 q 841 145 889 219 q 708 27 793 71 q 510 -17 622 -17 m 510 143 q 628 175 576 143 q 708 259 679 207 q 750 369 736 311 q 764 486 764 426 q 750 608 764 550 q 708 717 736 665 q 628 799 679 768 q 510 829 578 829 q 361 773 421 829 q 278 643 301 717 q 256 486 256 569 q 269 365 256 424 q 312 256 283 307 q 391 174 340 204 q 510 143 442 143 z "},"P":{"ha":883,"x_min":118,"x_max":849,"o":"m 118 0 l 118 972 l 522 972 q 769 885 690 972 q 849 671 849 797 q 766 460 849 551 q 522 368 683 368 l 285 368 l 285 0 l 118 0 m 531 526 q 640 569 604 526 q 676 671 676 613 q 642 770 676 726 q 531 814 608 814 l 285 814 l 285 526 l 531 526 z "},"Q":{"ha":1019,"x_min":83,"x_max":936,"o":"m 510 -17 q 346 13 419 -17 q 224 91 272 42 q 144 206 176 140 q 97 341 111 271 q 83 486 83 411 q 97 631 83 561 q 144 767 111 701 q 224 881 176 832 q 346 960 272 931 q 510 989 419 989 q 708 945 622 989 q 841 827 793 901 q 913 667 889 753 q 936 486 936 581 q 789 85 936 226 l 854 -11 l 729 -94 l 660 7 q 510 -17 592 -17 m 510 143 q 564 150 536 143 l 492 258 l 619 342 l 690 235 q 764 486 764 328 q 750 608 764 550 q 708 717 736 665 q 628 799 679 768 q 510 829 578 829 q 361 773 421 829 q 278 643 301 717 q 256 486 256 569 q 269 365 256 424 q 312 256 283 307 q 391 174 340 204 q 510 143 442 143 z "},"R":{"ha":951,"x_min":118,"x_max":868,"o":"m 118 0 l 118 972 l 549 972 q 792 889 717 972 q 868 676 868 806 q 817 507 868 586 q 668 399 765 428 l 863 0 l 675 0 l 488 381 l 285 381 l 285 0 l 118 0 m 285 539 l 551 539 q 661 578 626 539 q 696 676 696 617 q 663 774 696 735 q 551 814 629 814 l 285 814 l 285 539 z "},"S":{"ha":847,"x_min":63,"x_max":771,"o":"m 429 -17 q 199 51 296 -17 q 63 235 103 118 l 217 292 q 304 183 247 224 q 435 142 361 142 q 556 176 511 142 q 601 276 601 211 q 589 326 601 303 q 560 364 576 349 q 513 394 544 379 q 458 419 481 410 q 393 442 436 428 q 308 472 338 461 q 231 509 278 483 q 160 561 185 535 q 117 631 136 588 q 99 728 99 675 q 185 914 99 839 q 418 989 271 989 q 621 931 540 989 q 729 781 701 874 l 579 731 q 407 831 535 831 q 305 803 342 831 q 268 726 268 776 q 297 667 268 693 q 358 627 325 640 q 454 593 390 614 q 517 570 496 578 q 578 544 539 563 q 639 512 617 526 q 690 472 661 497 q 733 420 718 447 q 760 356 749 393 q 771 276 771 319 q 674 62 771 140 q 429 -17 578 -17 z "},"T":{"ha":831,"x_min":56,"x_max":775,"o":"m 499 813 l 499 0 l 332 0 l 332 813 l 56 813 l 56 972 l 775 972 l 775 813 l 499 813 z "},"U":{"ha":981,"x_min":111,"x_max":869,"o":"m 490 -17 q 346 3 411 -17 q 226 67 281 24 q 142 188 172 111 q 111 371 111 265 l 111 972 l 278 972 l 278 371 q 333 194 278 244 q 490 143 388 143 q 648 194 593 143 q 703 371 703 246 l 703 972 l 869 972 l 869 371 q 840 190 869 267 q 756 69 810 113 q 637 4 703 25 q 490 -17 571 -17 z "},"V":{"ha":936,"x_min":49,"x_max":888,"o":"m 388 0 l 49 972 l 228 972 l 446 315 q 471 226 464 253 q 494 315 476 256 l 711 972 l 888 972 l 550 0 l 388 0 z "},"W":{"ha":1183,"x_min":56,"x_max":1128,"o":"m 264 0 l 56 972 l 226 972 l 342 400 q 358 307 357 319 q 378 400 363 338 l 521 972 l 663 972 l 808 401 q 828 308 822 351 q 844 400 833 349 l 960 972 l 1128 972 l 918 0 l 765 0 l 608 601 q 589 692 593 656 q 571 603 585 658 l 417 0 l 264 0 z "},"X":{"ha":932,"x_min":63,"x_max":869,"o":"m 676 0 l 467 344 l 256 0 l 63 0 l 369 503 l 83 972 l 276 972 l 467 660 l 657 972 l 850 972 l 563 503 l 869 0 l 676 0 z "},"Y":{"ha":943,"x_min":39,"x_max":906,"o":"m 389 0 l 389 381 l 39 972 l 228 972 l 472 551 l 717 972 l 906 972 l 554 381 l 554 0 l 389 0 z "},"Z":{"ha":908,"x_min":69,"x_max":825,"o":"m 69 0 l 69 131 l 604 814 l 101 814 l 101 972 l 825 972 l 825 843 l 288 158 l 825 158 l 825 0 l 69 0 z "},"[":{"ha":529,"x_min":139,"x_max":474,"o":"m 139 -181 l 139 989 l 474 989 l 474 835 l 301 835 l 301 -26 l 474 -26 l 474 -181 l 139 -181 z "},"\\":{"ha":706,"x_min":-21,"x_max":692,"o":"m 525 -181 l -21 989 l 146 989 l 692 -181 l 525 -181 z "},"]":{"ha":529,"x_min":56,"x_max":390,"o":"m 390 -181 l 56 -181 l 56 -26 l 228 -26 l 228 835 l 56 835 l 56 989 l 390 989 l 390 -181 z "},"^":{"ha":875,"x_min":89,"x_max":786,"o":"m 618 479 l 438 781 l 257 479 l 89 479 l 374 989 l 503 989 l 786 479 l 618 479 z "},"_":{"ha":694,"x_min":-7,"x_max":701,"o":"m -7 -246 l -7 -114 l 701 -114 l 701 -246 l -7 -246 z "},"`":{"ha":608,"x_min":78,"x_max":486,"o":"m 325 800 l 78 1017 l 289 1017 l 486 800 l 325 800 z "},"a":{"ha":757,"x_min":63,"x_max":667,"o":"m 508 0 l 508 57 q 319 -17 438 -17 q 134 45 206 -17 q 63 219 63 107 q 144 394 63 335 q 340 454 225 454 q 508 417 442 454 l 508 454 q 474 553 508 522 q 369 583 440 583 q 158 517 254 583 l 108 649 q 386 726 224 726 q 484 717 442 726 q 572 682 526 708 q 642 599 617 656 q 667 457 667 542 l 667 0 l 508 0 m 350 126 q 508 194 443 126 l 508 286 q 367 315 447 315 q 261 292 301 315 q 221 219 221 268 q 254 151 221 176 q 350 126 288 126 z "},"b":{"ha":790,"x_min":104,"x_max":721,"o":"m 424 -17 q 267 54 324 -17 l 267 0 l 104 0 l 104 929 l 267 1003 l 267 657 q 426 726 326 726 q 640 626 558 726 q 721 356 721 526 q 642 81 721 178 q 424 -17 563 -17 m 404 139 q 519 197 479 139 q 558 356 558 254 q 518 517 558 461 q 404 572 478 572 q 267 503 313 572 l 267 207 q 404 139 311 139 z "},"c":{"ha":740,"x_min":69,"x_max":671,"o":"m 386 -17 q 155 82 240 -17 q 69 354 69 181 q 155 627 69 528 q 386 726 240 726 q 668 531 606 726 l 514 479 q 392 571 479 571 q 276 513 318 571 q 235 354 235 454 q 276 198 235 256 q 386 140 317 140 q 515 243 485 140 l 671 196 q 386 -17 610 -17 z "},"d":{"ha":790,"x_min":69,"x_max":686,"o":"m 364 -17 q 149 82 228 -17 q 69 356 69 181 q 151 626 69 526 q 364 726 233 726 q 524 660 467 726 l 524 929 l 686 1003 l 686 0 l 524 0 l 524 51 q 364 -17 471 -17 m 389 139 q 524 207 479 139 l 524 504 q 389 572 478 572 q 273 516 314 572 q 232 356 232 460 q 274 198 232 257 q 389 139 315 139 z "},"e":{"ha":769,"x_min":69,"x_max":707,"o":"m 397 -17 q 158 83 246 -17 q 69 356 69 182 q 158 627 69 528 q 397 726 247 726 q 620 642 533 726 q 707 393 707 557 q 701 293 707 336 l 231 293 q 283 172 235 218 q 397 126 331 126 q 547 200 492 126 l 650 94 q 397 -17 557 -17 m 232 428 l 546 428 q 499 544 540 504 q 397 583 457 583 q 283 545 328 583 q 232 428 238 507 z "},"f":{"ha":483,"x_min":49,"x_max":469,"o":"m 314 568 l 314 0 l 151 0 l 151 568 l 49 568 l 49 710 l 151 710 l 151 821 q 319 989 151 989 q 469 956 404 989 l 469 822 q 368 846 413 846 q 314 790 314 846 l 314 710 l 469 710 l 469 568 l 314 568 z "},"g":{"ha":790,"x_min":69,"x_max":686,"o":"m 351 -278 l 265 -147 q 467 -102 411 -137 q 524 7 524 -67 l 524 47 q 363 -17 465 -17 q 151 80 232 -17 q 69 356 69 176 q 151 627 69 528 q 364 726 232 726 q 524 667 464 726 l 524 710 l 686 710 l 686 71 q 610 -185 686 -106 q 351 -278 535 -264 m 390 139 q 524 208 478 139 l 524 503 q 390 572 475 572 q 273 517 314 572 q 232 356 232 461 q 274 197 232 256 q 390 139 315 139 z "},"h":{"ha":803,"x_min":104,"x_max":706,"o":"m 104 0 l 104 928 l 267 1003 l 267 643 q 454 726 336 726 q 635 657 565 726 q 706 436 706 588 l 706 0 l 543 0 l 543 410 q 411 572 543 572 q 267 413 267 572 l 267 0 l 104 0 z "},"i":{"ha":374,"x_min":90,"x_max":283,"o":"m 256 835 q 242 821 256 835 q 188 807 228 807 q 119 835 147 807 q 90 904 90 864 q 119 972 90 944 q 188 1000 147 1000 q 256 972 228 1000 q 283 904 283 944 q 256 835 283 864 m 106 0 l 106 710 l 268 710 l 268 0 l 106 0 z "},"j":{"ha":374,"x_min":-90,"x_max":283,"o":"m 256 835 q 242 821 256 835 q 188 807 228 807 q 119 835 147 807 q 90 904 90 864 q 119 972 90 944 q 188 1000 147 1000 q 256 972 228 1000 q 283 904 283 944 q 256 835 283 864 m -10 -297 l -90 -172 q 63 -114 21 -149 q 106 -11 106 -79 l 106 710 l 268 710 l 268 36 q 200 -189 268 -118 q -10 -297 125 -268 z "},"k":{"ha":775,"x_min":104,"x_max":726,"o":"m 726 0 l 549 0 l 346 392 l 267 314 l 267 0 l 104 0 l 104 926 l 267 1003 l 267 504 l 467 710 l 664 710 l 463 508 l 726 0 z "},"l":{"ha":385,"x_min":111,"x_max":274,"o":"m 111 0 l 111 926 l 274 1003 l 274 0 l 111 0 z "},"m":{"ha":1197,"x_min":104,"x_max":1100,"o":"m 938 0 l 938 407 q 817 572 938 572 q 719 530 754 572 q 683 404 683 488 l 683 0 l 521 0 l 521 407 q 400 572 521 572 q 302 530 338 572 q 267 404 267 488 l 267 0 l 104 0 l 104 710 l 267 710 l 267 644 q 440 726 328 726 q 626 626 571 726 q 840 726 694 726 q 1030 660 960 726 q 1100 453 1100 594 l 1100 0 l 938 0 z "},"n":{"ha":803,"x_min":104,"x_max":706,"o":"m 543 0 l 543 407 q 411 572 543 572 q 267 410 267 572 l 267 0 l 104 0 l 104 710 l 267 710 l 267 643 q 454 726 336 726 q 635 657 565 726 q 706 436 706 588 l 706 0 l 543 0 z "},"o":{"ha":790,"x_min":69,"x_max":721,"o":"m 394 -17 q 157 82 244 -17 q 69 354 69 181 q 157 627 69 528 q 394 726 244 726 q 633 627 544 726 q 721 354 721 528 q 633 82 721 181 q 394 -17 546 -17 m 394 139 q 515 196 471 139 q 558 354 558 253 q 515 514 558 456 q 394 572 471 572 q 276 513 321 572 q 232 354 232 454 q 276 197 232 254 q 394 139 319 139 z "},"p":{"ha":790,"x_min":104,"x_max":721,"o":"m 428 -17 q 267 57 325 -17 l 267 -204 l 104 -279 l 104 710 l 267 710 l 267 656 q 429 726 325 726 q 642 628 564 726 q 721 354 721 531 q 640 83 721 182 q 428 -17 560 -17 m 404 139 q 518 194 478 139 q 558 354 558 250 q 518 513 558 453 q 404 572 478 572 q 267 503 314 572 l 267 208 q 404 139 315 139 z "},"q":{"ha":790,"x_min":69,"x_max":686,"o":"m 364 -17 q 151 83 233 -17 q 69 354 69 182 q 151 628 69 529 q 368 726 232 726 q 524 656 467 726 l 524 710 l 686 710 l 686 -204 l 524 -278 l 524 57 q 364 -17 464 -17 m 388 139 q 524 208 475 139 l 524 503 q 388 572 478 572 q 273 513 314 572 q 232 354 232 453 q 272 194 232 250 q 388 139 313 139 z "},"r":{"ha":567,"x_min":104,"x_max":544,"o":"m 104 0 l 104 710 l 267 710 l 267 636 q 413 726 310 726 q 544 678 488 726 l 521 529 q 400 567 468 567 q 306 528 344 567 q 267 397 267 489 l 267 0 l 104 0 z "},"s":{"ha":674,"x_min":56,"x_max":604,"o":"m 332 -17 q 170 17 246 -17 q 56 106 94 50 l 167 200 q 332 125 242 125 q 447 194 447 125 q 427 238 447 218 q 384 267 407 257 q 310 299 361 278 q 131 391 188 339 q 75 529 75 443 q 147 674 75 622 q 328 726 218 726 q 582 617 489 726 l 469 525 q 328 585 407 585 q 232 526 232 585 q 267 476 232 497 q 371 433 303 456 q 545 342 486 394 q 604 194 604 289 q 531 38 604 93 q 332 -17 457 -17 z "},"t":{"ha":536,"x_min":42,"x_max":481,"o":"m 313 -17 q 147 165 147 -17 l 147 568 l 42 568 l 42 710 l 147 710 l 147 925 l 310 1003 l 310 710 l 474 710 l 474 568 l 310 568 l 310 197 q 369 129 310 129 q 481 161 424 129 l 461 15 q 313 -17 400 -17 z "},"u":{"ha":803,"x_min":97,"x_max":699,"o":"m 536 0 l 536 68 q 350 -17 469 -17 q 168 53 239 -17 q 97 275 97 124 l 97 710 l 260 710 l 260 304 q 393 139 260 139 q 536 301 536 139 l 536 710 l 699 710 l 699 0 l 536 0 z "},"v":{"ha":750,"x_min":35,"x_max":715,"o":"m 294 0 l 35 710 l 200 710 l 357 267 q 376 203 374 211 q 396 267 385 239 l 550 710 l 715 710 l 456 0 l 294 0 z "},"w":{"ha":1026,"x_min":49,"x_max":978,"o":"m 243 0 l 49 710 l 208 710 l 300 317 q 317 233 307 285 q 335 317 324 271 l 439 710 l 588 710 l 690 317 q 708 233 701 271 q 725 317 718 285 l 818 710 l 978 710 l 783 0 l 639 0 l 535 383 q 513 481 514 465 q 490 383 507 453 l 386 0 l 243 0 z "},"x":{"ha":772,"x_min":46,"x_max":726,"o":"m 46 0 l 292 369 l 64 710 l 251 710 l 347 565 q 386 501 381 515 q 424 565 410 544 l 521 710 l 708 710 l 479 369 l 726 0 l 539 0 l 424 172 q 386 236 410 193 q 347 172 376 214 l 233 0 l 46 0 z "},"y":{"ha":769,"x_min":35,"x_max":735,"o":"m 192 -269 l 301 11 l 35 710 l 199 710 l 364 274 q 385 210 376 243 q 404 274 392 240 l 571 710 l 735 710 l 360 -269 l 192 -269 z "},"z":{"ha":733,"x_min":76,"x_max":650,"o":"m 76 0 l 76 131 l 449 565 l 104 565 l 104 710 l 650 710 l 650 585 l 279 144 l 649 144 l 649 0 l 76 0 z "},"{":{"ha":518,"x_min":56,"x_max":463,"o":"m 463 -181 q 238 -95 319 -178 q 157 144 157 -12 l 157 231 q 139 305 157 278 q 88 332 121 332 l 56 332 l 56 478 l 88 478 q 139 506 121 478 q 157 579 157 533 l 157 664 q 238 903 157 821 q 463 989 319 985 l 463 843 q 319 689 319 835 l 319 593 q 291 462 319 506 q 206 404 263 418 q 319 215 319 375 l 319 119 q 463 -35 319 -29 l 463 -181 z "},"|":{"ha":399,"x_min":118,"x_max":281,"o":"m 118 -525 l 118 1475 l 281 1475 l 281 -525 l 118 -525 z "},"}":{"ha":518,"x_min":56,"x_max":463,"o":"m 56 -181 l 56 -35 q 200 119 200 -28 l 200 215 q 314 404 200 375 q 228 462 257 418 q 200 593 200 506 l 200 689 q 56 843 200 835 l 56 989 q 281 902 199 985 q 363 664 363 819 l 363 579 q 381 506 363 533 q 432 478 399 478 l 463 478 l 463 332 l 432 332 q 381 305 399 332 q 363 231 363 278 l 363 144 q 281 -95 363 -12 q 56 -181 199 -178 z "},"~":{"ha":875,"x_min":110,"x_max":765,"o":"m 574 360 q 424 399 510 360 q 307 438 339 438 q 233 360 243 438 l 110 360 q 157 528 110 461 q 301 594 204 594 q 451 556 367 594 q 568 517 535 517 q 642 594 635 517 l 765 594 q 718 426 765 493 q 574 360 671 360 z "}," ":{"ha":340,"x_min":0,"x_max":0,"o":""},"¡":{"ha":400,"x_min":88,"x_max":314,"o":"m 281 538 q 265 522 281 538 q 201 506 249 506 q 121 538 154 506 q 88 617 88 571 q 121 694 88 661 q 201 726 154 726 q 281 694 249 726 q 314 617 314 661 q 281 538 314 571 m 282 -278 l 119 -278 l 119 33 l 160 443 l 243 443 l 282 33 l 282 -278 z "},"¢":{"ha":740,"x_min":69,"x_max":671,"o":"m 293 -17 l 293 128 q 128 250 188 157 q 69 486 69 343 q 128 724 69 629 q 293 846 188 818 l 293 989 l 449 989 l 449 854 q 668 663 615 828 l 514 611 q 392 703 479 703 q 276 644 318 703 q 235 486 235 586 q 276 330 235 388 q 386 272 317 272 q 515 375 485 272 l 671 328 q 449 121 621 149 l 449 -17 l 293 -17 z "},"£":{"ha":826,"x_min":104,"x_max":785,"o":"m 111 0 l 111 158 q 224 350 203 201 q 225 383 225 363 l 104 383 l 104 531 l 188 531 q 144 706 144 622 q 228 906 144 822 q 471 989 313 989 q 775 889 639 989 l 711 735 q 654 779 678 763 q 580 814 631 796 q 471 832 529 832 q 352 795 392 832 q 313 706 313 758 q 318 666 313 688 q 329 629 324 644 q 348 582 335 614 q 369 531 361 550 l 603 531 l 603 383 l 393 383 q 392 350 393 361 q 308 158 378 238 l 785 158 l 785 0 l 111 0 z "},"¤":{"ha":889,"x_min":50,"x_max":839,"o":"m 444 119 q 267 164 343 119 l 172 68 l 50 190 l 150 290 q 113 463 113 364 q 153 636 113 556 l 50 739 l 168 856 l 264 760 q 444 807 342 807 q 622 761 547 807 l 717 856 l 839 735 l 739 635 q 778 463 778 554 q 738 286 778 363 l 839 186 l 721 68 l 624 165 q 444 119 544 119 m 444 276 q 565 328 519 276 q 611 463 611 381 q 565 597 611 544 q 444 650 519 650 q 325 597 371 650 q 279 463 279 544 q 325 329 279 382 q 444 276 371 276 z "},"¥":{"ha":821,"x_min":21,"x_max":800,"o":"m 507 468 l 685 468 l 685 338 l 492 338 l 492 246 l 685 246 l 685 115 l 492 115 l 492 0 l 329 0 l 329 115 l 133 115 l 133 246 l 329 246 l 329 338 l 133 338 l 133 468 l 313 468 l 21 972 l 207 972 l 410 608 l 611 972 l 800 972 l 507 468 z "},"¦":{"ha":399,"x_min":118,"x_max":281,"o":"m 118 508 l 118 1146 l 281 1146 l 281 508 l 118 508 m 118 -312 l 118 325 l 281 325 l 281 -312 l 118 -312 z "},"§":{"ha":732,"x_min":69,"x_max":663,"o":"m 371 -167 q 69 -35 172 -167 l 188 67 q 371 -11 272 -11 q 493 72 493 -11 q 490 91 493 82 q 480 109 488 100 q 465 125 472 118 q 444 141 458 132 q 419 156 429 150 q 390 170 410 161 q 358 184 369 179 q 323 199 347 189 q 288 215 299 210 q 211 251 238 238 q 151 292 185 265 q 101 353 117 318 q 86 436 86 389 q 175 586 86 536 q 86 760 86 651 q 163 928 86 867 q 361 989 240 989 q 635 869 538 989 l 511 771 q 361 833 451 833 q 283 814 313 833 q 254 763 254 794 q 283 715 254 739 q 344 677 313 692 q 439 639 376 663 q 523 602 492 618 q 591 558 554 586 q 645 492 628 531 q 663 401 663 453 q 585 250 663 303 q 663 76 663 182 q 585 -103 663 -39 q 371 -167 508 -167 m 456 326 q 493 388 493 342 q 449 453 493 426 q 317 510 406 479 q 254 450 254 499 q 424 339 254 403 q 456 326 444 331 z "},"¨":{"ha":608,"x_min":81,"x_max":526,"o":"m 242 842 q 228 828 242 842 q 175 814 214 814 q 108 842 136 814 q 81 908 81 869 q 108 975 81 947 q 175 1003 136 1003 q 242 975 214 1003 q 269 908 269 947 q 242 842 269 869 m 499 842 q 486 828 499 842 q 432 814 472 814 q 365 842 392 814 q 338 908 338 869 q 365 975 338 947 q 432 1003 392 1003 q 499 975 472 1003 q 526 908 526 947 q 499 842 526 869 z "},"©":{"ha":1172,"x_min":83,"x_max":1089,"o":"m 944 128 q 872 56 944 128 q 586 -17 800 -17 q 228 128 372 -17 q 83 486 83 272 q 228 844 83 700 q 586 989 372 989 q 944 844 800 989 q 1089 486 1089 700 q 944 128 1089 272 m 310 206 q 365 149 310 206 q 586 93 419 93 q 863 206 753 93 q 972 486 972 318 q 863 767 972 654 q 586 879 753 879 q 310 767 419 879 q 201 486 201 654 q 310 206 201 318 m 592 183 q 444 231 503 183 q 365 342 386 278 q 343 486 343 407 q 366 626 343 561 q 447 740 389 692 q 592 789 506 789 q 721 753 668 789 q 799 663 774 718 l 689 611 q 592 671 650 671 q 499 615 529 671 q 469 486 469 558 q 501 358 469 414 q 592 301 533 301 q 689 364 650 301 l 800 325 q 592 183 738 183 z "},"ª":{"ha":610,"x_min":49,"x_max":533,"o":"m 400 393 l 400 435 q 253 379 344 379 q 106 430 164 379 q 49 574 49 481 q 114 718 49 668 q 269 768 179 768 q 400 740 344 768 l 400 765 q 374 845 400 821 q 293 869 347 869 q 128 814 200 869 l 88 925 q 308 989 178 989 q 387 981 353 989 q 457 953 421 974 q 513 885 493 932 q 533 768 533 838 l 533 393 l 400 393 m 279 500 q 400 550 350 500 l 400 628 q 293 650 349 650 q 214 631 244 650 q 183 574 183 613 q 208 520 183 540 q 279 500 233 500 z "},"«":{"ha":754,"x_min":42,"x_max":733,"o":"m 253 0 l 42 356 l 253 710 l 429 710 l 218 356 l 429 0 l 253 0 m 558 0 l 347 356 l 558 710 l 733 710 l 522 356 l 733 0 l 558 0 z "},"¬":{"ha":875,"x_min":111,"x_max":764,"o":"m 601 229 l 601 506 l 111 506 l 111 663 l 764 663 l 764 229 l 601 229 z "},"­":{"ha":561,"x_min":104,"x_max":457,"o":"m 104 333 l 104 490 l 457 490 l 457 333 l 104 333 z "},"®":{"ha":1172,"x_min":83,"x_max":1089,"o":"m 944 128 q 872 56 944 128 q 586 -17 800 -17 q 228 128 372 -17 q 83 486 83 272 q 228 844 83 700 q 586 989 372 989 q 944 844 800 989 q 1089 486 1089 700 q 944 128 1089 272 m 310 206 q 365 149 310 206 q 586 93 419 93 q 863 206 753 93 q 972 486 972 318 q 863 767 972 654 q 586 879 753 879 q 310 767 419 879 q 201 486 201 654 q 310 206 201 318 m 382 193 l 382 779 l 622 779 q 770 728 725 779 q 815 600 815 678 q 785 499 815 546 q 693 433 754 453 l 828 193 l 692 193 l 572 421 l 504 421 l 504 193 l 382 193 m 504 535 l 618 535 q 672 553 654 535 q 689 600 689 572 q 618 665 689 665 l 504 665 l 504 535 z "},"¯":{"ha":608,"x_min":75,"x_max":533,"o":"m 75 822 l 75 956 l 533 956 l 533 822 l 75 822 z "},"°":{"ha":564,"x_min":35,"x_max":529,"o":"m 282 625 q 107 697 179 625 q 35 871 35 768 q 106 1045 35 975 q 282 1115 178 1115 q 458 1045 386 1115 q 529 871 529 975 q 458 697 529 768 q 282 625 386 625 m 215 799 q 228 784 215 799 q 282 769 242 769 q 349 799 322 769 q 376 871 376 828 q 349 942 376 914 q 282 969 322 969 q 215 942 242 969 q 188 871 188 914 q 215 799 188 828 z "},"±":{"ha":875,"x_min":111,"x_max":764,"o":"m 519 479 l 519 271 l 357 271 l 357 479 l 111 479 l 111 636 l 357 636 l 357 844 l 519 844 l 519 636 l 764 636 l 764 479 l 519 479 m 111 0 l 111 157 l 764 157 l 764 0 l 111 0 z "},"²":{"ha":506,"x_min":35,"x_max":453,"o":"m 35 617 q 239 953 35 849 q 276 975 264 967 q 301 999 289 983 q 313 1032 313 1014 q 295 1072 313 1056 q 247 1089 278 1089 q 160 1010 176 1089 l 35 1040 q 111 1165 53 1117 q 250 1213 169 1213 q 397 1163 342 1213 q 453 1033 453 1113 q 443 969 453 997 q 410 919 433 942 q 366 884 386 897 q 308 850 346 871 q 192 742 219 800 l 451 742 l 451 617 l 35 617 z "},"³":{"ha":488,"x_min":17,"x_max":442,"o":"m 233 607 q 97 652 153 607 q 17 778 40 697 l 144 811 q 236 729 164 729 q 288 747 268 729 q 307 794 307 764 q 225 860 307 860 l 178 860 l 178 978 l 224 978 q 272 994 256 978 q 288 1033 288 1010 q 272 1074 288 1058 q 229 1090 257 1090 q 157 1032 178 1090 l 38 1075 q 115 1176 63 1139 q 238 1213 168 1213 q 372 1164 321 1213 q 422 1044 422 1115 q 402 974 422 1007 q 351 922 382 940 q 442 788 442 883 q 385 657 442 707 q 233 607 329 607 z "},"´":{"ha":608,"x_min":124,"x_max":532,"o":"m 124 800 l 321 1017 l 532 1017 l 285 800 l 124 800 z "},"µ":{"ha":807,"x_min":101,"x_max":703,"o":"m 540 0 l 540 67 q 381 -17 483 -17 q 264 29 306 -17 l 264 -201 l 101 -278 l 101 710 l 264 710 l 264 304 q 297 177 264 215 q 396 139 329 139 q 540 301 540 139 l 540 710 l 703 710 l 703 0 l 540 0 z "},"¶":{"ha":886,"x_min":28,"x_max":775,"o":"m 339 -278 l 339 382 q 160 431 233 383 q 58 541 88 478 q 28 676 28 604 q 106 886 28 800 q 350 972 185 972 l 775 972 l 775 -85 l 613 -158 l 613 817 l 501 817 l 501 -204 l 339 -278 z "},"·":{"ha":322,"x_min":50,"x_max":272,"o":"m 240 409 q 224 393 240 409 q 161 378 208 378 q 82 409 114 378 q 50 485 50 440 q 82 563 50 531 q 161 594 114 594 q 240 563 208 594 q 272 485 272 531 q 240 409 272 440 z "},"¸":{"ha":608,"x_min":146,"x_max":474,"o":"m 292 -336 q 146 -276 193 -336 l 219 -222 q 275 -246 239 -246 q 325 -230 307 -246 q 343 -187 343 -214 q 324 -147 343 -162 q 272 -131 304 -131 q 214 -147 239 -131 l 182 -107 l 281 14 l 368 14 l 318 -67 q 435 -101 396 -67 q 474 -189 474 -135 q 425 -295 474 -254 q 292 -336 376 -336 z "},"¹":{"ha":294,"x_min":14,"x_max":221,"o":"m 88 617 l 88 1064 l 14 1064 l 14 1164 q 115 1203 92 1164 l 221 1203 l 221 617 l 88 617 z "},"º":{"ha":646,"x_min":56,"x_max":590,"o":"m 517 460 q 481 420 517 460 q 322 379 444 379 q 128 460 200 379 q 56 683 56 542 q 128 908 56 826 q 322 989 200 989 q 517 908 444 989 q 590 683 590 826 q 517 460 590 542 m 227 556 q 244 533 227 556 q 322 510 261 510 q 418 556 383 510 q 453 683 453 601 q 418 813 453 765 q 322 860 383 860 q 227 813 261 860 q 193 683 193 767 q 227 556 193 601 z "},"»":{"ha":754,"x_min":21,"x_max":713,"o":"m 21 0 l 232 356 l 21 710 l 197 710 l 408 356 l 197 0 l 21 0 m 326 0 l 538 356 l 326 710 l 501 710 l 713 356 l 501 0 l 326 0 z "},"¼":{"ha":976,"x_min":17,"x_max":944,"o":"m 17 -17 l 681 989 l 833 989 l 169 -17 l 17 -17 m 92 393 l 92 840 l 18 840 l 18 940 q 118 979 96 940 l 225 979 l 225 393 l 92 393 m 742 0 l 742 115 l 451 115 l 451 203 l 744 588 l 868 588 l 868 233 l 944 233 l 944 115 l 868 115 l 868 0 l 742 0 m 742 233 l 742 413 l 604 233 l 742 233 z "},"½":{"ha":1035,"x_min":17,"x_max":982,"o":"m 17 -17 l 681 989 l 833 989 l 169 -17 l 17 -17 m 92 393 l 92 840 l 18 840 l 18 940 q 118 979 96 940 l 225 979 l 225 393 l 92 393 m 564 0 q 768 336 564 232 q 806 358 793 350 q 830 382 818 367 q 842 415 842 397 q 824 456 842 439 q 776 472 807 472 q 689 393 707 472 l 564 424 q 640 548 582 500 q 779 596 699 596 q 926 546 871 596 q 982 417 982 496 q 971 349 982 378 q 935 297 960 319 q 888 261 910 275 q 826 226 867 247 q 721 125 749 186 l 981 125 l 981 0 l 564 0 z "},"¾":{"ha":1140,"x_min":17,"x_max":1108,"o":"m 233 383 q 97 428 153 383 q 17 554 40 474 l 144 588 q 236 506 164 506 q 288 523 268 506 q 307 571 307 540 q 225 636 307 636 l 178 636 l 178 754 l 224 754 q 288 810 288 754 q 272 851 288 835 q 229 867 257 867 q 157 808 178 867 l 38 851 q 115 952 63 915 q 238 989 168 989 q 372 940 321 989 q 422 821 422 892 q 351 699 422 742 q 442 564 442 660 q 385 433 442 482 q 233 383 329 383 m 182 -17 l 846 989 l 999 989 l 335 -17 l 182 -17 m 906 0 l 906 115 l 617 115 l 617 203 l 910 588 l 1032 588 l 1032 233 l 1108 233 l 1108 115 l 1032 115 l 1032 0 l 906 0 m 906 233 l 906 413 l 769 233 l 906 233 z "},"¿":{"ha":699,"x_min":49,"x_max":671,"o":"m 363 510 q 283 542 315 510 q 251 618 251 574 q 283 695 251 664 q 363 726 315 726 q 442 694 410 726 q 474 618 474 663 q 441 542 474 574 q 363 510 408 510 m 349 -278 q 128 -200 207 -278 q 49 1 49 -122 q 72 112 49 64 q 130 190 96 160 q 199 249 164 221 q 257 318 233 278 q 281 411 281 358 l 281 449 l 443 449 l 443 410 q 419 283 443 338 q 362 197 396 229 q 293 139 328 165 q 235 78 258 113 q 211 1 211 44 q 247 -89 211 -54 q 349 -124 283 -124 q 467 -78 425 -124 q 508 54 508 -32 l 671 54 q 582 -190 671 -101 q 349 -278 493 -278 z "},"À":{"ha":992,"x_min":51,"x_max":940,"o":"m 517 1063 l 269 1279 l 481 1279 l 678 1063 l 517 1063 m 765 0 l 689 213 l 304 213 l 228 0 l 51 0 l 414 972 l 579 972 l 940 0 l 765 0 m 636 363 l 529 654 q 497 753 508 707 q 465 654 486 713 l 357 363 l 636 363 z "},"Á":{"ha":992,"x_min":51,"x_max":940,"o":"m 315 1063 l 513 1279 l 724 1279 l 476 1063 l 315 1063 m 765 0 l 689 213 l 304 213 l 228 0 l 51 0 l 414 972 l 579 972 l 940 0 l 765 0 m 636 363 l 529 654 q 497 753 508 707 q 465 654 486 713 l 357 363 l 636 363 z "},"Â":{"ha":992,"x_min":51,"x_max":940,"o":"m 619 1063 l 496 1165 l 372 1063 l 219 1063 l 417 1279 l 576 1279 l 772 1063 l 619 1063 m 765 0 l 689 213 l 304 213 l 228 0 l 51 0 l 414 972 l 579 972 l 940 0 l 765 0 m 636 363 l 529 654 q 497 753 508 707 q 465 654 486 713 l 357 363 l 636 363 z "},"Ã":{"ha":992,"x_min":51,"x_max":940,"o":"m 606 1075 q 480 1108 553 1075 q 376 1140 407 1140 q 311 1081 313 1140 l 233 1081 q 386 1267 233 1267 q 511 1234 439 1267 q 615 1201 583 1201 q 681 1261 676 1201 l 758 1261 q 606 1075 758 1075 m 765 0 l 689 213 l 304 213 l 228 0 l 51 0 l 414 972 l 579 972 l 940 0 l 765 0 m 636 363 l 529 654 q 497 753 508 707 q 465 654 486 713 l 357 363 l 636 363 z "},"Ä":{"ha":992,"x_min":51,"x_max":940,"o":"m 433 1103 q 419 1090 433 1103 q 367 1076 406 1076 q 300 1103 328 1076 q 272 1171 272 1131 q 300 1238 272 1211 q 367 1265 328 1265 q 433 1238 406 1265 q 461 1171 461 1211 q 433 1103 461 1131 m 691 1103 q 677 1090 691 1103 q 624 1076 664 1076 q 556 1103 583 1076 q 529 1171 529 1131 q 556 1238 529 1211 q 624 1265 583 1265 q 691 1238 664 1265 q 718 1171 718 1211 q 691 1103 718 1131 m 765 0 l 689 213 l 304 213 l 228 0 l 51 0 l 414 972 l 579 972 l 940 0 l 765 0 m 636 363 l 529 654 q 497 753 508 707 q 465 654 486 713 l 357 363 l 636 363 z "},"Å":{"ha":992,"x_min":51,"x_max":940,"o":"m 51 0 l 383 893 q 321 1026 321 944 q 372 1149 321 1099 q 496 1199 424 1199 q 620 1148 568 1199 q 672 1026 672 1097 q 608 893 672 946 l 940 0 l 765 0 l 689 213 l 304 213 l 228 0 l 51 0 m 496 965 q 537 983 519 965 q 554 1026 554 1000 q 537 1069 554 1053 q 496 1086 519 1086 q 454 1069 471 1086 q 438 1026 438 1053 q 454 983 438 1000 q 496 965 471 965 m 357 363 l 636 363 l 529 654 q 497 753 506 719 q 465 654 482 700 l 357 363 z "},"Æ":{"ha":1203,"x_min":-26,"x_max":1143,"o":"m -26 0 l 539 972 l 1114 972 l 1114 815 l 715 815 l 715 581 l 935 581 l 935 424 l 715 424 l 715 157 l 1143 157 l 1143 0 l 549 0 l 549 213 l 274 213 l 153 0 l -26 0 m 361 363 l 549 363 l 549 704 q 504 615 536 675 l 361 363 z "},"Ç":{"ha":896,"x_min":83,"x_max":831,"o":"m 478 -336 q 332 -276 379 -336 l 406 -222 q 461 -246 425 -246 q 511 -230 493 -246 q 529 -187 529 -214 q 510 -147 529 -162 q 458 -131 490 -131 q 400 -147 425 -131 l 368 -107 l 443 -14 q 275 42 347 -4 q 163 161 203 89 q 103 315 122 233 q 83 486 83 396 q 106 660 83 575 q 174 820 128 744 q 301 942 219 896 q 490 989 383 989 q 707 928 619 989 q 829 782 794 868 l 679 714 q 598 801 640 774 q 490 829 556 829 q 378 798 426 829 q 305 715 331 767 q 267 605 279 663 q 256 486 256 547 q 316 247 256 350 q 490 144 376 144 q 676 269 601 144 l 831 211 q 538 -14 744 10 l 504 -67 q 621 -101 582 -67 q 660 -189 660 -135 q 611 -295 660 -254 q 478 -336 563 -336 z "},"È":{"ha":851,"x_min":118,"x_max":782,"o":"m 433 1063 l 186 1279 l 397 1279 l 594 1063 l 433 1063 m 118 0 l 118 972 l 751 972 l 751 815 l 285 815 l 285 581 l 572 581 l 572 424 l 285 424 l 285 157 l 782 157 l 782 0 l 118 0 z "},"É":{"ha":851,"x_min":118,"x_max":782,"o":"m 282 1063 l 479 1279 l 690 1279 l 443 1063 l 282 1063 m 118 0 l 118 972 l 751 972 l 751 815 l 285 815 l 285 581 l 572 581 l 572 424 l 285 424 l 285 157 l 782 157 l 782 0 l 118 0 z "},"Ê":{"ha":851,"x_min":118,"x_max":782,"o":"m 571 1063 l 447 1165 l 324 1063 l 171 1063 l 368 1279 l 528 1279 l 724 1063 l 571 1063 m 118 0 l 118 972 l 751 972 l 751 815 l 285 815 l 285 581 l 572 581 l 572 424 l 285 424 l 285 157 l 782 157 l 782 0 l 118 0 z "},"Ë":{"ha":851,"x_min":118,"x_max":782,"o":"m 385 1103 q 372 1090 385 1103 q 318 1076 358 1076 q 251 1103 278 1076 q 224 1171 224 1131 q 251 1238 224 1211 q 318 1265 278 1265 q 385 1238 358 1265 q 413 1171 413 1211 q 385 1103 413 1131 m 642 1103 q 628 1090 642 1103 q 575 1076 614 1076 q 508 1103 536 1076 q 481 1171 481 1131 q 508 1238 481 1211 q 575 1265 536 1265 q 642 1238 614 1265 q 669 1171 669 1211 q 642 1103 669 1131 m 118 0 l 118 972 l 751 972 l 751 815 l 285 815 l 285 581 l 572 581 l 572 424 l 285 424 l 285 157 l 782 157 l 782 0 l 118 0 z "},"Ì":{"ha":417,"x_min":-18,"x_max":390,"o":"m 229 1063 l -18 1279 l 193 1279 l 390 1063 l 229 1063 m 125 0 l 125 972 l 292 972 l 292 0 l 125 0 z "},"Í":{"ha":417,"x_min":42,"x_max":450,"o":"m 42 1063 l 239 1279 l 450 1279 l 203 1063 l 42 1063 m 125 0 l 125 972 l 292 972 l 292 0 l 125 0 z "},"Î":{"ha":417,"x_min":-68,"x_max":485,"o":"m 332 1063 l 208 1165 l 85 1063 l -68 1063 l 129 1279 l 289 1279 l 485 1063 l 332 1063 m 125 0 l 125 972 l 292 972 l 292 0 l 125 0 z "},"Ï":{"ha":417,"x_min":-15,"x_max":431,"o":"m 147 1103 q 133 1090 147 1103 q 79 1076 119 1076 q 12 1103 39 1076 q -15 1171 -15 1131 q 12 1238 -15 1211 q 79 1265 39 1265 q 147 1238 119 1265 q 174 1171 174 1211 q 147 1103 174 1131 m 403 1103 q 389 1090 403 1103 q 336 1076 375 1076 q 269 1103 297 1076 q 242 1171 242 1131 q 269 1238 242 1211 q 336 1265 297 1265 q 403 1238 375 1265 q 431 1171 431 1211 q 403 1103 431 1131 m 125 0 l 125 972 l 292 972 l 292 0 l 125 0 z "},"Ð":{"ha":969,"x_min":31,"x_max":886,"o":"m 118 410 l 31 410 l 31 564 l 118 564 l 118 972 l 418 972 q 597 944 517 972 q 731 871 678 917 q 819 762 783 825 q 870 630 854 699 q 886 486 886 561 q 872 350 886 417 q 822 219 857 283 q 733 106 786 154 q 598 29 681 58 q 413 0 515 0 l 118 0 l 118 410 m 436 157 q 566 186 510 157 q 653 265 622 215 q 699 369 685 314 q 714 486 714 425 q 647 719 714 622 q 451 815 581 815 l 285 815 l 285 564 l 489 564 l 489 410 l 285 410 l 285 157 l 436 157 z "},"Ñ":{"ha":992,"x_min":118,"x_max":874,"o":"m 619 1075 q 494 1108 567 1075 q 390 1140 421 1140 q 325 1081 326 1140 l 247 1081 q 400 1267 247 1267 q 525 1234 453 1267 q 629 1201 597 1201 q 694 1261 690 1201 l 772 1261 q 619 1075 772 1075 m 874 0 l 722 0 l 319 614 q 279 686 300 643 q 283 614 283 653 l 283 0 l 118 0 l 118 972 l 279 972 l 672 368 q 713 294 686 347 q 708 368 708 332 l 708 972 l 874 972 l 874 0 z "},"Ò":{"ha":1019,"x_min":83,"x_max":936,"o":"m 503 1064 l 256 1281 l 467 1281 l 664 1064 l 503 1064 m 510 -17 q 346 13 419 -17 q 224 91 272 42 q 144 206 176 140 q 97 341 111 271 q 83 486 83 411 q 97 631 83 561 q 144 767 111 701 q 224 881 176 832 q 346 960 272 931 q 510 989 419 989 q 708 945 622 989 q 841 827 793 901 q 913 667 889 753 q 936 486 936 581 q 913 306 936 392 q 841 145 889 219 q 708 27 793 71 q 510 -17 622 -17 m 510 143 q 628 175 576 143 q 708 259 679 207 q 750 369 736 311 q 764 486 764 426 q 750 608 764 550 q 708 717 736 665 q 628 799 679 768 q 510 829 578 829 q 361 773 421 829 q 278 643 301 717 q 256 486 256 569 q 269 365 256 424 q 312 256 283 307 q 391 174 340 204 q 510 143 442 143 z "},"Ó":{"ha":1019,"x_min":83,"x_max":936,"o":"m 329 1063 l 526 1279 l 738 1279 l 490 1063 l 329 1063 m 510 -17 q 346 13 419 -17 q 224 91 272 42 q 144 206 176 140 q 97 341 111 271 q 83 486 83 411 q 97 631 83 561 q 144 767 111 701 q 224 881 176 832 q 346 960 272 931 q 510 989 419 989 q 708 945 622 989 q 841 827 793 901 q 913 667 889 753 q 936 486 936 581 q 913 306 936 392 q 841 145 889 219 q 708 27 793 71 q 510 -17 622 -17 m 510 143 q 628 175 576 143 q 708 259 679 207 q 750 369 736 311 q 764 486 764 426 q 750 608 764 550 q 708 717 736 665 q 628 799 679 768 q 510 829 578 829 q 361 773 421 829 q 278 643 301 717 q 256 486 256 569 q 269 365 256 424 q 312 256 283 307 q 391 174 340 204 q 510 143 442 143 z "},"Ô":{"ha":1019,"x_min":83,"x_max":936,"o":"m 633 1063 l 510 1165 l 386 1063 l 233 1063 l 431 1279 l 590 1279 l 786 1063 l 633 1063 m 510 -17 q 346 13 419 -17 q 224 91 272 42 q 144 206 176 140 q 97 341 111 271 q 83 486 83 411 q 97 631 83 561 q 144 767 111 701 q 224 881 176 832 q 346 960 272 931 q 510 989 419 989 q 708 945 622 989 q 841 827 793 901 q 913 667 889 753 q 936 486 936 581 q 913 306 936 392 q 841 145 889 219 q 708 27 793 71 q 510 -17 622 -17 m 510 143 q 628 175 576 143 q 708 259 679 207 q 750 369 736 311 q 764 486 764 426 q 750 608 764 550 q 708 717 736 665 q 628 799 679 768 q 510 829 578 829 q 361 773 421 829 q 278 643 301 717 q 256 486 256 569 q 269 365 256 424 q 312 256 283 307 q 391 174 340 204 q 510 143 442 143 z "},"Õ":{"ha":1019,"x_min":83,"x_max":936,"o":"m 619 1075 q 494 1108 567 1075 q 390 1140 421 1140 q 325 1081 326 1140 l 247 1081 q 400 1267 247 1267 q 525 1234 453 1267 q 629 1201 597 1201 q 694 1261 690 1201 l 772 1261 q 619 1075 772 1075 m 510 -17 q 346 13 419 -17 q 224 91 272 42 q 144 206 176 140 q 97 341 111 271 q 83 486 83 411 q 97 631 83 561 q 144 767 111 701 q 224 881 176 832 q 346 960 272 931 q 510 989 419 989 q 708 945 622 989 q 841 827 793 901 q 913 667 889 753 q 936 486 936 581 q 913 306 936 392 q 841 145 889 219 q 708 27 793 71 q 510 -17 622 -17 m 510 143 q 628 175 576 143 q 708 259 679 207 q 750 369 736 311 q 764 486 764 426 q 750 608 764 550 q 708 717 736 665 q 628 799 679 768 q 510 829 578 829 q 361 773 421 829 q 278 643 301 717 q 256 486 256 569 q 269 365 256 424 q 312 256 283 307 q 391 174 340 204 q 510 143 442 143 z "},"Ö":{"ha":1019,"x_min":83,"x_max":936,"o":"m 447 1103 q 433 1090 447 1103 q 381 1076 419 1076 q 314 1103 342 1076 q 286 1171 286 1131 q 314 1238 286 1211 q 381 1265 342 1265 q 447 1238 419 1265 q 475 1171 475 1211 q 447 1103 475 1131 m 705 1103 q 691 1090 705 1103 q 638 1076 678 1076 q 570 1103 597 1076 q 543 1171 543 1131 q 570 1238 543 1211 q 638 1265 597 1265 q 705 1238 678 1265 q 732 1171 732 1211 q 705 1103 732 1131 m 510 -17 q 346 13 419 -17 q 224 91 272 42 q 144 206 176 140 q 97 341 111 271 q 83 486 83 411 q 97 631 83 561 q 144 767 111 701 q 224 881 176 832 q 346 960 272 931 q 510 989 419 989 q 708 945 622 989 q 841 827 793 901 q 913 667 889 753 q 936 486 936 581 q 913 306 936 392 q 841 145 889 219 q 708 27 793 71 q 510 -17 622 -17 m 510 143 q 628 175 576 143 q 708 259 679 207 q 750 369 736 311 q 764 486 764 426 q 750 608 764 550 q 708 717 736 665 q 628 799 679 768 q 510 829 578 829 q 361 773 421 829 q 278 643 301 717 q 256 486 256 569 q 269 365 256 424 q 312 256 283 307 q 391 174 340 204 q 510 143 442 143 z "},"×":{"ha":875,"x_min":110,"x_max":767,"o":"m 439 363 l 226 149 l 110 267 l 322 478 l 111 690 l 224 804 l 436 592 l 649 806 l 767 688 l 553 475 l 765 264 l 651 150 l 439 363 z "},"Ø":{"ha":1013,"x_min":81,"x_max":932,"o":"m 83 -17 l 185 132 q 81 486 81 271 q 104 667 81 581 q 176 827 128 753 q 309 945 224 901 q 507 989 394 989 q 728 932 633 989 l 767 989 l 929 989 l 828 840 q 932 486 932 701 q 908 306 932 392 q 837 145 885 219 q 704 27 789 71 q 507 -17 619 -17 q 285 42 379 -17 l 246 -17 l 83 -17 m 292 289 l 633 793 q 507 829 579 829 q 388 797 439 829 q 308 713 336 765 q 266 603 279 661 q 253 486 253 546 q 292 289 253 375 m 507 143 q 625 175 574 143 q 704 259 676 207 q 746 369 732 311 q 760 486 760 426 q 721 683 760 600 l 379 181 q 507 143 432 143 z "},"Ù":{"ha":981,"x_min":111,"x_max":869,"o":"m 511 1063 l 264 1279 l 475 1279 l 672 1063 l 511 1063 m 490 -17 q 346 3 411 -17 q 226 67 281 24 q 142 188 172 111 q 111 371 111 265 l 111 972 l 278 972 l 278 371 q 333 194 278 244 q 490 143 388 143 q 648 194 593 143 q 703 371 703 246 l 703 972 l 869 972 l 869 371 q 840 190 869 267 q 756 69 810 113 q 637 4 703 25 q 490 -17 571 -17 z "},"Ú":{"ha":981,"x_min":111,"x_max":869,"o":"m 335 1063 l 532 1279 l 743 1279 l 496 1063 l 335 1063 m 490 -17 q 346 3 411 -17 q 226 67 281 24 q 142 188 172 111 q 111 371 111 265 l 111 972 l 278 972 l 278 371 q 333 194 278 244 q 490 143 388 143 q 648 194 593 143 q 703 371 703 246 l 703 972 l 869 972 l 869 371 q 840 190 869 267 q 756 69 810 113 q 637 4 703 25 q 490 -17 571 -17 z "},"Û":{"ha":981,"x_min":111,"x_max":869,"o":"m 614 1063 l 490 1165 l 367 1063 l 214 1063 l 411 1279 l 571 1279 l 767 1063 l 614 1063 m 490 -17 q 346 3 411 -17 q 226 67 281 24 q 142 188 172 111 q 111 371 111 265 l 111 972 l 278 972 l 278 371 q 333 194 278 244 q 490 143 388 143 q 648 194 593 143 q 703 371 703 246 l 703 972 l 869 972 l 869 371 q 840 190 869 267 q 756 69 810 113 q 637 4 703 25 q 490 -17 571 -17 z "},"Ü":{"ha":981,"x_min":111,"x_max":869,"o":"m 428 1103 q 414 1090 428 1103 q 361 1076 400 1076 q 294 1103 322 1076 q 267 1171 267 1131 q 294 1238 267 1211 q 361 1265 322 1265 q 428 1238 400 1265 q 456 1171 456 1211 q 428 1103 456 1131 m 685 1103 q 672 1090 685 1103 q 618 1076 658 1076 q 551 1103 578 1076 q 524 1171 524 1131 q 551 1238 524 1211 q 618 1265 578 1265 q 685 1238 658 1265 q 713 1171 713 1211 q 685 1103 713 1131 m 490 -17 q 346 3 411 -17 q 226 67 281 24 q 142 188 172 111 q 111 371 111 265 l 111 972 l 278 972 l 278 371 q 333 194 278 244 q 490 143 388 143 q 648 194 593 143 q 703 371 703 246 l 703 972 l 869 972 l 869 371 q 840 190 869 267 q 756 69 810 113 q 637 4 703 25 q 490 -17 571 -17 z "},"Ý":{"ha":943,"x_min":39,"x_max":906,"o":"m 318 1063 l 515 1279 l 726 1279 l 479 1063 l 318 1063 m 389 0 l 389 381 l 39 972 l 228 972 l 472 551 l 717 972 l 906 972 l 554 381 l 554 0 l 389 0 z "},"Þ":{"ha":897,"x_min":118,"x_max":849,"o":"m 118 0 l 118 972 l 285 972 l 285 797 l 522 797 q 769 709 690 797 q 849 494 849 621 q 830 389 849 440 q 774 292 811 338 q 672 220 738 247 q 522 193 607 193 l 285 193 l 285 0 l 118 0 m 531 351 q 640 394 604 351 q 676 494 676 436 q 642 595 676 551 q 531 639 608 639 l 285 639 l 285 351 l 531 351 z "},"ß":{"ha":788,"x_min":90,"x_max":732,"o":"m 90 -278 l 90 654 q 178 906 90 824 q 393 989 265 989 q 602 919 522 989 q 682 735 682 849 q 551 535 682 588 q 684 447 636 510 q 732 294 732 383 q 649 66 732 149 q 439 -17 567 -17 q 299 11 354 -17 l 376 136 q 435 128 407 128 q 528 172 488 128 q 569 290 569 215 q 525 408 569 360 q 393 456 481 456 l 351 456 l 351 600 l 393 600 q 484 634 449 600 q 519 725 519 668 q 486 811 519 778 q 394 844 453 844 q 253 658 253 844 l 253 -203 l 90 -278 z "},"à":{"ha":757,"x_min":63,"x_max":667,"o":"m 371 800 l 124 1017 l 335 1017 l 532 800 l 371 800 m 508 0 l 508 57 q 319 -17 438 -17 q 134 45 206 -17 q 63 219 63 107 q 144 394 63 335 q 340 454 225 454 q 508 417 442 454 l 508 454 q 474 553 508 522 q 369 583 440 583 q 158 517 254 583 l 108 649 q 386 726 224 726 q 484 717 442 726 q 572 682 526 708 q 642 599 617 656 q 667 457 667 542 l 667 0 l 508 0 m 350 126 q 508 194 443 126 l 508 286 q 367 315 447 315 q 261 292 301 315 q 221 219 221 268 q 254 151 221 176 q 350 126 288 126 z "},"á":{"ha":757,"x_min":63,"x_max":667,"o":"m 236 800 l 433 1017 l 644 1017 l 397 800 l 236 800 m 508 0 l 508 57 q 319 -17 438 -17 q 134 45 206 -17 q 63 219 63 107 q 144 394 63 335 q 340 454 225 454 q 508 417 442 454 l 508 454 q 474 553 508 522 q 369 583 440 583 q 158 517 254 583 l 108 649 q 386 726 224 726 q 484 717 442 726 q 572 682 526 708 q 642 599 617 656 q 667 457 667 542 l 667 0 l 508 0 m 350 126 q 508 194 443 126 l 508 286 q 367 315 447 315 q 261 292 301 315 q 221 219 221 268 q 254 151 221 176 q 350 126 288 126 z "},"â":{"ha":757,"x_min":63,"x_max":667,"o":"m 511 800 l 388 903 l 264 800 l 111 800 l 308 1017 l 468 1017 l 664 800 l 511 800 m 508 0 l 508 57 q 319 -17 438 -17 q 134 45 206 -17 q 63 219 63 107 q 144 394 63 335 q 340 454 225 454 q 508 417 442 454 l 508 454 q 474 553 508 522 q 369 583 440 583 q 158 517 254 583 l 108 649 q 386 726 224 726 q 484 717 442 726 q 572 682 526 708 q 642 599 617 656 q 667 457 667 542 l 667 0 l 508 0 m 350 126 q 508 194 443 126 l 508 286 q 367 315 447 315 q 261 292 301 315 q 221 219 221 268 q 254 151 221 176 q 350 126 288 126 z "},"ã":{"ha":757,"x_min":63,"x_max":667,"o":"m 497 813 q 372 845 444 813 q 268 878 299 878 q 203 818 204 878 l 125 818 q 278 1004 125 1004 q 403 972 331 1004 q 507 939 475 939 q 572 999 568 939 l 650 999 q 497 813 650 813 m 508 0 l 508 57 q 319 -17 438 -17 q 134 45 206 -17 q 63 219 63 107 q 144 394 63 335 q 340 454 225 454 q 508 417 442 454 l 508 454 q 474 553 508 522 q 369 583 440 583 q 158 517 254 583 l 108 649 q 386 726 224 726 q 484 717 442 726 q 572 682 526 708 q 642 599 617 656 q 667 457 667 542 l 667 0 l 508 0 m 350 126 q 508 194 443 126 l 508 286 q 367 315 447 315 q 261 292 301 315 q 221 219 221 268 q 254 151 221 176 q 350 126 288 126 z "},"ä":{"ha":757,"x_min":63,"x_max":667,"o":"m 325 842 q 311 828 325 842 q 258 814 297 814 q 192 842 219 814 q 164 908 164 869 q 192 975 164 947 q 258 1003 219 1003 q 325 975 297 1003 q 353 908 353 947 q 325 842 353 869 m 583 842 q 569 828 583 842 q 515 814 556 814 q 448 842 475 814 q 421 908 421 869 q 448 975 421 947 q 515 1003 475 1003 q 583 975 556 1003 q 610 908 610 947 q 583 842 610 869 m 508 0 l 508 57 q 319 -17 438 -17 q 134 45 206 -17 q 63 219 63 107 q 144 394 63 335 q 340 454 225 454 q 508 417 442 454 l 508 454 q 474 553 508 522 q 369 583 440 583 q 158 517 254 583 l 108 649 q 386 726 224 726 q 484 717 442 726 q 572 682 526 708 q 642 599 617 656 q 667 457 667 542 l 667 0 l 508 0 m 350 126 q 508 194 443 126 l 508 286 q 367 315 447 315 q 261 292 301 315 q 221 219 221 268 q 254 151 221 176 q 350 126 288 126 z "},"å":{"ha":757,"x_min":63,"x_max":667,"o":"m 388 783 q 263 834 314 783 q 211 957 211 885 q 263 1080 211 1029 q 388 1131 314 1131 q 511 1080 460 1131 q 563 957 563 1029 q 511 834 563 885 q 388 783 460 783 m 388 897 q 428 915 411 897 q 446 957 446 932 q 428 1000 446 982 q 388 1018 411 1018 q 346 1001 363 1018 q 329 957 329 983 q 346 914 329 931 q 388 897 363 897 m 508 0 l 508 57 q 319 -17 438 -17 q 134 45 206 -17 q 63 219 63 107 q 144 394 63 335 q 340 454 225 454 q 508 417 442 454 l 508 454 q 474 553 508 522 q 369 583 440 583 q 158 517 254 583 l 108 649 q 386 726 224 726 q 484 717 442 726 q 572 682 526 708 q 642 599 617 656 q 667 457 667 542 l 667 0 l 508 0 m 350 126 q 508 194 443 126 l 508 286 q 367 315 447 315 q 261 292 301 315 q 221 219 221 268 q 254 151 221 176 q 350 126 288 126 z "},"æ":{"ha":1190,"x_min":63,"x_max":1128,"o":"m 311 -17 q 132 45 201 -17 q 63 219 63 107 q 141 396 63 336 q 331 456 219 456 q 494 418 431 456 l 494 454 q 462 553 494 522 q 360 583 429 583 q 158 517 250 583 l 108 649 q 379 726 225 726 q 594 642 533 726 q 818 726 676 726 q 1041 642 954 726 q 1128 393 1128 557 q 1121 293 1128 335 l 653 293 q 703 172 656 218 q 818 126 751 126 q 968 200 913 126 l 1071 94 q 818 -17 978 -17 q 568 97 654 -17 q 311 -17 460 -17 m 653 431 l 967 431 q 919 544 961 506 q 818 583 878 583 q 704 546 749 583 q 653 431 660 508 m 344 126 q 494 194 433 126 l 494 286 q 360 315 439 315 q 260 292 299 315 q 221 219 221 268 q 253 151 221 176 q 344 126 285 126 z "},"ç":{"ha":740,"x_min":69,"x_max":671,"o":"m 364 -336 q 218 -276 265 -336 l 292 -222 q 347 -246 311 -246 q 397 -230 379 -246 q 415 -187 415 -214 q 396 -147 415 -162 q 344 -131 376 -131 q 286 -147 311 -131 l 254 -107 l 331 -12 q 139 102 208 6 q 69 354 69 199 q 155 627 69 528 q 386 726 240 726 q 668 531 606 726 l 514 479 q 392 571 479 571 q 276 513 318 571 q 235 354 235 454 q 276 198 235 256 q 386 140 317 140 q 515 243 485 140 l 671 196 q 422 -15 614 1 l 390 -67 q 507 -101 468 -67 q 546 -189 546 -135 q 497 -295 546 -254 q 364 -336 449 -336 z "},"è":{"ha":769,"x_min":69,"x_max":707,"o":"m 418 800 l 171 1017 l 382 1017 l 579 800 l 418 800 m 397 -17 q 158 83 246 -17 q 69 356 69 182 q 158 627 69 528 q 397 726 247 726 q 620 642 533 726 q 707 393 707 557 q 701 293 707 336 l 231 293 q 283 172 235 218 q 397 126 331 126 q 547 200 492 126 l 650 94 q 397 -17 557 -17 m 232 428 l 546 428 q 499 544 540 504 q 397 583 457 583 q 283 545 328 583 q 232 428 238 507 z "},"é":{"ha":769,"x_min":69,"x_max":707,"o":"m 217 800 l 414 1017 l 625 1017 l 378 800 l 217 800 m 397 -17 q 158 83 246 -17 q 69 356 69 182 q 158 627 69 528 q 397 726 247 726 q 620 642 533 726 q 707 393 707 557 q 701 293 707 336 l 231 293 q 283 172 235 218 q 397 126 331 126 q 547 200 492 126 l 650 94 q 397 -17 557 -17 m 232 428 l 546 428 q 499 544 540 504 q 397 583 457 583 q 283 545 328 583 q 232 428 238 507 z "},"ê":{"ha":769,"x_min":69,"x_max":707,"o":"m 521 800 l 397 903 l 274 800 l 121 800 l 318 1017 l 478 1017 l 674 800 l 521 800 m 397 -17 q 158 83 246 -17 q 69 356 69 182 q 158 627 69 528 q 397 726 247 726 q 620 642 533 726 q 707 393 707 557 q 701 293 707 336 l 231 293 q 283 172 235 218 q 397 126 331 126 q 547 200 492 126 l 650 94 q 397 -17 557 -17 m 232 428 l 546 428 q 499 544 540 504 q 397 583 457 583 q 283 545 328 583 q 232 428 238 507 z "},"ë":{"ha":769,"x_min":69,"x_max":707,"o":"m 335 842 q 322 828 335 842 q 268 814 308 814 q 201 842 228 814 q 174 908 174 869 q 201 975 174 947 q 268 1003 228 1003 q 335 975 308 1003 q 363 908 363 947 q 335 842 363 869 m 592 842 q 578 828 592 842 q 525 814 564 814 q 458 842 486 814 q 431 908 431 869 q 458 975 431 947 q 525 1003 486 1003 q 592 975 564 1003 q 619 908 619 947 q 592 842 619 869 m 397 -17 q 158 83 246 -17 q 69 356 69 182 q 158 627 69 528 q 397 726 247 726 q 620 642 533 726 q 707 393 707 557 q 701 293 707 336 l 231 293 q 283 172 235 218 q 397 126 331 126 q 547 200 492 126 l 650 94 q 397 -17 557 -17 m 232 428 l 546 428 q 499 544 540 504 q 397 583 457 583 q 283 545 328 583 q 232 428 238 507 z "},"ì":{"ha":374,"x_min":-69,"x_max":339,"o":"m 178 800 l -69 1017 l 142 1017 l 339 800 l 178 800 m 106 0 l 106 710 l 268 710 l 268 0 l 106 0 z "},"í":{"ha":374,"x_min":35,"x_max":443,"o":"m 35 800 l 232 1017 l 443 1017 l 196 800 l 35 800 m 106 0 l 106 710 l 268 710 l 268 0 l 106 0 z "},"î":{"ha":374,"x_min":-89,"x_max":464,"o":"m 311 800 l 188 903 l 64 800 l -89 800 l 108 1017 l 268 1017 l 464 800 l 311 800 m 106 0 l 106 710 l 268 710 l 268 0 l 106 0 z "},"ï":{"ha":374,"x_min":-36,"x_max":410,"o":"m 125 842 q 111 828 125 842 q 58 814 97 814 q -8 842 19 814 q -36 908 -36 869 q -8 975 -36 947 q 58 1003 19 1003 q 125 975 97 1003 q 153 908 153 947 q 125 842 153 869 m 383 842 q 369 828 383 842 q 315 814 356 814 q 248 842 275 814 q 221 908 221 869 q 248 975 221 947 q 315 1003 275 1003 q 383 975 356 1003 q 410 908 410 947 q 383 842 410 869 m 106 0 l 106 710 l 268 710 l 268 0 l 106 0 z "},"ð":{"ha":790,"x_min":69,"x_max":721,"o":"m 394 -17 q 162 75 254 -17 q 69 307 69 167 q 159 540 69 446 q 381 633 249 633 q 542 564 489 633 q 428 763 517 688 l 344 676 l 256 758 l 318 824 q 183 847 253 846 l 183 989 q 426 938 324 985 l 506 1019 l 593 936 l 531 869 q 673 660 625 789 q 721 374 721 531 q 638 92 721 201 q 394 -17 554 -17 m 394 139 q 511 187 464 139 q 558 306 558 235 q 512 431 558 382 q 393 479 465 479 q 278 431 324 479 q 232 307 232 383 q 279 188 232 236 q 394 139 326 139 z "},"ñ":{"ha":803,"x_min":104,"x_max":706,"o":"m 521 813 q 395 845 468 813 q 292 878 322 878 q 226 818 228 878 l 149 818 q 301 1004 149 1004 q 426 972 354 1004 q 531 939 499 939 q 596 999 592 939 l 674 999 q 521 813 674 813 m 543 0 l 543 407 q 411 572 543 572 q 267 410 267 572 l 267 0 l 104 0 l 104 710 l 267 710 l 267 643 q 454 726 336 726 q 635 657 565 726 q 706 436 706 588 l 706 0 l 543 0 z "},"ò":{"ha":790,"x_min":69,"x_max":721,"o":"m 415 800 l 168 1017 l 379 1017 l 576 800 l 415 800 m 394 -17 q 157 82 244 -17 q 69 354 69 181 q 157 627 69 528 q 394 726 244 726 q 633 627 544 726 q 721 354 721 528 q 633 82 721 181 q 394 -17 546 -17 m 394 139 q 515 196 471 139 q 558 354 558 253 q 515 514 558 456 q 394 572 471 572 q 276 513 321 572 q 232 354 232 454 q 276 197 232 254 q 394 139 319 139 z "},"ó":{"ha":790,"x_min":69,"x_max":721,"o":"m 215 800 l 413 1017 l 624 1017 l 376 800 l 215 800 m 394 -17 q 157 82 244 -17 q 69 354 69 181 q 157 627 69 528 q 394 726 244 726 q 633 627 544 726 q 721 354 721 528 q 633 82 721 181 q 394 -17 546 -17 m 394 139 q 515 196 471 139 q 558 354 558 253 q 515 514 558 456 q 394 572 471 572 q 276 513 321 572 q 232 354 232 454 q 276 197 232 254 q 394 139 319 139 z "},"ô":{"ha":790,"x_min":69,"x_max":721,"o":"m 519 800 l 396 903 l 272 800 l 119 800 l 317 1017 l 476 1017 l 672 800 l 519 800 m 394 -17 q 157 82 244 -17 q 69 354 69 181 q 157 627 69 528 q 394 726 244 726 q 633 627 544 726 q 721 354 721 528 q 633 82 721 181 q 394 -17 546 -17 m 394 139 q 515 196 471 139 q 558 354 558 253 q 515 514 558 456 q 394 572 471 572 q 276 513 321 572 q 232 354 232 454 q 276 197 232 254 q 394 139 319 139 z "},"õ":{"ha":790,"x_min":69,"x_max":721,"o":"m 506 813 q 380 845 453 813 q 276 878 307 878 q 211 818 213 878 l 133 818 q 286 1004 133 1004 q 411 972 339 1004 q 515 939 483 939 q 581 999 576 939 l 658 999 q 506 813 658 813 m 394 -17 q 157 82 244 -17 q 69 354 69 181 q 157 627 69 528 q 394 726 244 726 q 633 627 544 726 q 721 354 721 528 q 633 82 721 181 q 394 -17 546 -17 m 394 139 q 515 196 471 139 q 558 354 558 253 q 515 514 558 456 q 394 572 471 572 q 276 513 321 572 q 232 354 232 454 q 276 197 232 254 q 394 139 319 139 z "},"ö":{"ha":790,"x_min":69,"x_max":721,"o":"m 333 842 q 319 828 333 842 q 267 814 306 814 q 200 842 228 814 q 172 908 172 869 q 200 975 172 947 q 267 1003 228 1003 q 333 975 306 1003 q 361 908 361 947 q 333 842 361 869 m 591 842 q 577 828 591 842 q 524 814 564 814 q 456 842 483 814 q 429 908 429 869 q 456 975 429 947 q 524 1003 483 1003 q 591 975 564 1003 q 618 908 618 947 q 591 842 618 869 m 394 -17 q 157 82 244 -17 q 69 354 69 181 q 157 627 69 528 q 394 726 244 726 q 633 627 544 726 q 721 354 721 528 q 633 82 721 181 q 394 -17 546 -17 m 394 139 q 515 196 471 139 q 558 354 558 253 q 515 514 558 456 q 394 572 471 572 q 276 513 321 572 q 232 354 232 454 q 276 197 232 254 q 394 139 319 139 z "},"÷":{"ha":875,"x_min":111,"x_max":764,"o":"m 438 638 q 366 665 394 638 q 338 733 338 693 q 366 802 338 774 q 438 831 394 831 q 508 802 479 831 q 538 733 538 774 q 508 665 538 693 q 438 638 479 638 m 111 399 l 111 556 l 764 556 l 764 399 l 111 399 m 438 122 q 366 151 394 122 q 338 219 338 179 q 366 288 338 260 q 438 317 394 317 q 508 288 479 317 q 538 219 538 260 q 508 151 538 179 q 438 122 479 122 z "},"ø":{"ha":790,"x_min":69,"x_max":721,"o":"m 721 726 l 644 614 q 721 354 721 514 q 633 82 721 181 q 394 -17 546 -17 q 240 18 306 -17 l 217 -17 l 69 -17 l 146 96 q 69 354 69 194 q 157 627 69 528 q 394 726 244 726 q 550 692 481 726 l 574 726 l 721 726 m 232 354 q 249 247 232 293 l 460 558 q 394 572 432 572 q 276 513 321 572 q 232 354 232 454 m 558 354 q 542 463 558 417 l 331 151 q 394 139 360 139 q 515 196 471 139 q 558 354 558 253 z "},"ù":{"ha":803,"x_min":97,"x_max":699,"o":"m 415 800 l 168 1017 l 379 1017 l 576 800 l 415 800 m 536 0 l 536 68 q 350 -17 469 -17 q 168 53 239 -17 q 97 275 97 124 l 97 710 l 260 710 l 260 304 q 393 139 260 139 q 536 301 536 139 l 536 710 l 699 710 l 699 0 l 536 0 z "},"ú":{"ha":803,"x_min":97,"x_max":699,"o":"m 214 800 l 411 1017 l 622 1017 l 375 800 l 214 800 m 536 0 l 536 68 q 350 -17 469 -17 q 168 53 239 -17 q 97 275 97 124 l 97 710 l 260 710 l 260 304 q 393 139 260 139 q 536 301 536 139 l 536 710 l 699 710 l 699 0 l 536 0 z "},"û":{"ha":803,"x_min":97,"x_max":699,"o":"m 518 800 l 394 903 l 271 800 l 118 800 l 315 1017 l 475 1017 l 671 800 l 518 800 m 536 0 l 536 68 q 350 -17 469 -17 q 168 53 239 -17 q 97 275 97 124 l 97 710 l 260 710 l 260 304 q 393 139 260 139 q 536 301 536 139 l 536 710 l 699 710 l 699 0 l 536 0 z "},"ü":{"ha":803,"x_min":97,"x_max":699,"o":"m 333 842 q 319 828 333 842 q 265 814 306 814 q 198 842 225 814 q 171 908 171 869 q 198 975 171 947 q 265 1003 225 1003 q 333 975 306 1003 q 360 908 360 947 q 333 842 360 869 m 589 842 q 575 828 589 842 q 522 814 561 814 q 456 842 483 814 q 428 908 428 869 q 456 975 428 947 q 522 1003 483 1003 q 589 975 561 1003 q 617 908 617 947 q 589 842 617 869 m 536 0 l 536 68 q 350 -17 469 -17 q 168 53 239 -17 q 97 275 97 124 l 97 710 l 260 710 l 260 304 q 393 139 260 139 q 536 301 536 139 l 536 710 l 699 710 l 699 0 l 536 0 z "},"ý":{"ha":769,"x_min":35,"x_max":735,"o":"m 204 800 l 401 1017 l 613 1017 l 365 800 l 204 800 m 192 -269 l 301 11 l 35 710 l 199 710 l 364 274 q 385 210 376 243 q 404 274 392 240 l 571 710 l 735 710 l 360 -269 l 192 -269 z "},"þ":{"ha":788,"x_min":101,"x_max":718,"o":"m 425 -17 q 264 57 322 -17 l 264 -201 l 101 -276 l 101 913 l 264 989 l 264 656 q 425 726 322 726 q 639 628 560 726 q 718 354 718 531 q 638 83 718 182 q 425 -17 557 -17 m 400 139 q 515 194 475 139 q 556 354 556 250 q 515 513 556 453 q 400 572 474 572 q 264 503 311 572 l 264 208 q 400 139 313 139 z "},"ÿ":{"ha":769,"x_min":35,"x_max":735,"o":"m 322 842 q 308 828 322 842 q 256 814 294 814 q 189 842 217 814 q 161 908 161 869 q 189 975 161 947 q 256 1003 217 1003 q 322 975 294 1003 q 350 908 350 947 q 322 842 350 869 m 580 842 q 566 828 580 842 q 513 814 553 814 q 445 842 472 814 q 418 908 418 869 q 445 975 418 947 q 513 1003 472 1003 q 580 975 553 1003 q 607 908 607 947 q 580 842 607 869 m 192 -269 l 301 11 l 35 710 l 199 710 l 364 274 q 385 210 376 243 q 404 274 392 240 l 571 710 l 735 710 l 360 -269 l 192 -269 z "},"Ā":{"ha":992,"x_min":51,"x_max":940,"o":"m 267 1085 l 267 1218 l 725 1218 l 725 1085 l 267 1085 m 765 0 l 689 213 l 304 213 l 228 0 l 51 0 l 414 972 l 579 972 l 940 0 l 765 0 m 636 363 l 529 654 q 497 753 508 707 q 465 654 486 713 l 357 363 l 636 363 z "},"ā":{"ha":757,"x_min":63,"x_max":667,"o":"m 158 822 l 158 956 l 617 956 l 617 822 l 158 822 m 508 0 l 508 57 q 319 -17 438 -17 q 134 45 206 -17 q 63 219 63 107 q 144 394 63 335 q 340 454 225 454 q 508 417 442 454 l 508 454 q 474 553 508 522 q 369 583 440 583 q 158 517 254 583 l 108 649 q 386 726 224 726 q 484 717 442 726 q 572 682 526 708 q 642 599 617 656 q 667 457 667 542 l 667 0 l 508 0 m 350 126 q 508 194 443 126 l 508 286 q 367 315 447 315 q 261 292 301 315 q 221 219 221 268 q 254 151 221 176 q 350 126 288 126 z "},"Ă":{"ha":992,"x_min":51,"x_max":940,"o":"m 690 1126 q 657 1093 690 1126 q 496 1060 624 1060 q 301 1126 368 1060 q 235 1293 235 1193 l 365 1293 q 399 1215 365 1247 q 496 1183 433 1183 q 592 1215 557 1183 q 626 1293 626 1247 l 757 1293 q 690 1126 757 1193 m 765 0 l 689 213 l 304 213 l 228 0 l 51 0 l 414 972 l 579 972 l 940 0 l 765 0 m 636 363 l 529 654 q 497 753 508 707 q 465 654 486 713 l 357 363 l 636 363 z "},"ă":{"ha":757,"x_min":63,"x_max":667,"o":"m 582 864 q 549 831 582 864 q 388 797 515 797 q 193 864 260 797 q 126 1031 126 931 l 257 1031 q 291 953 257 985 q 388 921 325 921 q 483 953 449 921 q 518 1031 518 985 l 649 1031 q 582 864 649 931 m 508 0 l 508 57 q 319 -17 438 -17 q 134 45 206 -17 q 63 219 63 107 q 144 394 63 335 q 340 454 225 454 q 508 417 442 454 l 508 454 q 474 553 508 522 q 369 583 440 583 q 158 517 254 583 l 108 649 q 386 726 224 726 q 484 717 442 726 q 572 682 526 708 q 642 599 617 656 q 667 457 667 542 l 667 0 l 508 0 m 350 126 q 508 194 443 126 l 508 286 q 367 315 447 315 q 261 292 301 315 q 221 219 221 268 q 254 151 221 176 q 350 126 288 126 z "},"Ą":{"ha":992,"x_min":51,"x_max":940,"o":"m 775 -336 q 652 -296 699 -336 q 606 -189 606 -256 q 765 0 606 -62 l 689 213 l 304 213 l 228 0 l 51 0 l 414 972 l 579 972 l 940 0 q 800 -55 861 0 q 739 -175 739 -110 q 756 -225 739 -208 q 800 -242 774 -242 q 856 -215 836 -242 l 932 -271 q 775 -336 875 -336 m 357 363 l 636 363 l 529 654 q 497 753 506 711 q 465 654 490 724 l 357 363 z "},"ą":{"ha":757,"x_min":63,"x_max":681,"o":"m 524 -336 q 399 -297 446 -336 q 353 -189 353 -257 q 508 1 353 -65 l 508 57 q 319 -17 438 -17 q 134 45 206 -17 q 63 219 63 107 q 144 394 63 335 q 340 454 225 454 q 508 417 442 454 l 508 454 q 474 553 508 522 q 369 583 440 583 q 158 517 254 583 l 108 649 q 386 726 224 726 q 484 717 442 726 q 572 682 526 708 q 642 599 617 656 q 667 457 667 542 l 667 0 q 538 -69 590 -19 q 486 -175 486 -119 q 503 -225 486 -208 q 547 -242 521 -242 q 603 -215 583 -242 l 681 -271 q 524 -336 621 -336 m 350 126 q 508 194 443 126 l 508 286 q 367 315 447 315 q 261 292 301 315 q 221 219 221 268 q 254 151 221 176 q 350 126 288 126 z "},"Ć":{"ha":896,"x_min":83,"x_max":831,"o":"m 336 1063 l 533 1279 l 744 1279 l 497 1063 l 336 1063 m 490 -17 q 332 13 403 -17 q 216 90 261 42 q 140 206 171 139 q 97 342 110 272 q 83 486 83 411 q 106 660 83 575 q 174 820 128 744 q 301 942 219 896 q 490 989 383 989 q 707 928 619 989 q 829 782 794 868 l 679 714 q 598 801 640 774 q 490 829 556 829 q 378 798 426 829 q 305 715 331 767 q 267 605 279 663 q 256 486 256 547 q 316 247 256 350 q 490 144 376 144 q 676 269 601 144 l 831 211 q 490 -17 729 -17 z "},"ć":{"ha":740,"x_min":69,"x_max":671,"o":"m 206 800 l 403 1017 l 614 1017 l 367 800 l 206 800 m 386 -17 q 155 82 240 -17 q 69 354 69 181 q 155 627 69 528 q 386 726 240 726 q 668 531 606 726 l 514 479 q 392 571 479 571 q 276 513 318 571 q 235 354 235 454 q 276 198 235 256 q 386 140 317 140 q 515 243 485 140 l 671 196 q 386 -17 610 -17 z "},"Ĉ":{"ha":896,"x_min":83,"x_max":831,"o":"m 614 1063 l 490 1165 l 367 1063 l 214 1063 l 411 1279 l 571 1279 l 767 1063 l 614 1063 m 490 -17 q 332 13 403 -17 q 216 90 261 42 q 140 206 171 139 q 97 342 110 272 q 83 486 83 411 q 106 660 83 575 q 174 820 128 744 q 301 942 219 896 q 490 989 383 989 q 707 928 619 989 q 829 782 794 868 l 679 714 q 598 801 640 774 q 490 829 556 829 q 378 798 426 829 q 305 715 331 767 q 267 605 279 663 q 256 486 256 547 q 316 247 256 350 q 490 144 376 144 q 676 269 601 144 l 831 211 q 490 -17 729 -17 z "},"ĉ":{"ha":740,"x_min":69,"x_max":671,"o":"m 510 800 l 386 903 l 263 800 l 110 800 l 307 1017 l 467 1017 l 663 800 l 510 800 m 386 -17 q 155 82 240 -17 q 69 354 69 181 q 155 627 69 528 q 386 726 240 726 q 668 531 606 726 l 514 479 q 392 571 479 571 q 276 513 318 571 q 235 354 235 454 q 276 198 235 256 q 386 140 317 140 q 515 243 485 140 l 671 196 q 386 -17 610 -17 z "},"Ċ":{"ha":896,"x_min":83,"x_max":831,"o":"m 558 1103 q 544 1090 558 1103 q 490 1076 531 1076 q 423 1103 450 1076 q 396 1171 396 1131 q 423 1238 396 1211 q 490 1265 450 1265 q 558 1238 531 1265 q 585 1171 585 1211 q 558 1103 585 1131 m 490 -17 q 332 13 403 -17 q 216 90 261 42 q 140 206 171 139 q 97 342 110 272 q 83 486 83 411 q 106 660 83 575 q 174 820 128 744 q 301 942 219 896 q 490 989 383 989 q 707 928 619 989 q 829 782 794 868 l 679 714 q 598 801 640 774 q 490 829 556 829 q 378 798 426 829 q 305 715 331 767 q 267 605 279 663 q 256 486 256 547 q 316 247 256 350 q 490 144 376 144 q 676 269 601 144 l 831 211 q 490 -17 729 -17 z "},"ċ":{"ha":740,"x_min":69,"x_max":671,"o":"m 386 814 q 319 841 346 814 q 292 908 292 868 q 319 976 292 949 q 386 1003 346 1003 q 453 975 425 1003 q 481 908 481 947 q 453 842 481 869 q 386 814 425 814 m 386 -17 q 155 82 240 -17 q 69 354 69 181 q 155 627 69 528 q 386 726 240 726 q 668 531 606 726 l 514 479 q 392 571 479 571 q 276 513 318 571 q 235 354 235 454 q 276 198 235 256 q 386 140 317 140 q 515 243 485 140 l 671 196 q 386 -17 610 -17 z "},"Č":{"ha":896,"x_min":83,"x_max":831,"o":"m 569 1063 l 410 1063 l 214 1279 l 367 1279 l 490 1176 l 614 1279 l 767 1279 l 569 1063 m 490 -17 q 332 13 403 -17 q 216 90 261 42 q 140 206 171 139 q 97 342 110 272 q 83 486 83 411 q 106 660 83 575 q 174 820 128 744 q 301 942 219 896 q 490 989 383 989 q 707 928 619 989 q 829 782 794 868 l 679 714 q 598 801 640 774 q 490 829 556 829 q 378 798 426 829 q 305 715 331 767 q 267 605 279 663 q 256 486 256 547 q 316 247 256 350 q 490 144 376 144 q 676 269 601 144 l 831 211 q 490 -17 729 -17 z "},"č":{"ha":740,"x_min":69,"x_max":671,"o":"m 465 800 l 306 800 l 110 1017 l 263 1017 l 386 914 l 510 1017 l 663 1017 l 465 800 m 386 -17 q 155 82 240 -17 q 69 354 69 181 q 155 627 69 528 q 386 726 240 726 q 668 531 606 726 l 514 479 q 392 571 479 571 q 276 513 318 571 q 235 354 235 454 q 276 198 235 256 q 386 140 317 140 q 515 243 485 140 l 671 196 q 386 -17 610 -17 z "},"Ď":{"ha":969,"x_min":118,"x_max":886,"o":"m 517 1063 l 357 1063 l 161 1279 l 314 1279 l 438 1176 l 561 1279 l 714 1279 l 517 1063 m 118 972 l 418 972 q 597 944 517 972 q 731 871 678 917 q 819 762 783 825 q 870 630 854 699 q 886 486 886 561 q 872 350 886 417 q 822 219 857 283 q 733 106 786 154 q 598 29 681 58 q 413 0 515 0 l 118 0 l 118 972 m 436 157 q 566 186 510 157 q 653 265 622 215 q 699 369 685 314 q 714 486 714 425 q 647 719 714 622 q 451 815 581 815 l 285 815 l 285 157 l 436 157 z "},"ď":{"ha":1025,"x_min":69,"x_max":990,"o":"m 364 -17 q 149 82 228 -17 q 69 356 69 181 q 151 626 69 526 q 364 726 233 726 q 524 660 467 726 l 524 929 l 686 1003 l 686 0 l 524 0 l 524 51 q 364 -17 471 -17 m 990 989 l 990 978 q 846 639 990 779 l 794 678 q 836 989 836 764 l 990 989 m 389 139 q 524 207 479 139 l 524 504 q 389 572 478 572 q 273 516 314 572 q 232 356 232 460 q 274 198 232 257 q 389 139 315 139 z "},"Đ":{"ha":969,"x_min":31,"x_max":886,"o":"m 118 410 l 31 410 l 31 564 l 118 564 l 118 972 l 418 972 q 597 944 517 972 q 731 871 678 917 q 819 762 783 825 q 870 630 854 699 q 886 486 886 561 q 872 350 886 417 q 822 219 857 283 q 733 106 786 154 q 598 29 681 58 q 413 0 515 0 l 118 0 l 118 410 m 436 157 q 566 186 510 157 q 653 265 622 215 q 699 369 685 314 q 714 486 714 425 q 647 719 714 622 q 451 815 581 815 l 285 815 l 285 564 l 489 564 l 489 410 l 285 410 l 285 157 l 436 157 z "},"đ":{"ha":790,"x_min":69,"x_max":774,"o":"m 686 750 l 686 0 l 524 0 l 524 51 q 364 -17 471 -17 q 149 78 229 -17 q 69 335 69 172 q 152 587 69 492 q 364 682 235 682 q 524 615 467 682 l 524 750 l 356 750 l 356 881 l 524 881 l 524 929 l 686 1003 l 686 881 l 774 881 l 774 750 l 686 750 m 389 139 q 524 207 479 139 l 524 460 q 472 508 507 488 q 389 528 436 528 q 274 476 315 528 q 232 335 232 424 q 274 194 232 250 q 389 139 317 139 z "},"Ē":{"ha":851,"x_min":118,"x_max":782,"o":"m 218 1085 l 218 1218 l 676 1218 l 676 1085 l 218 1085 m 118 0 l 118 972 l 751 972 l 751 815 l 285 815 l 285 581 l 572 581 l 572 424 l 285 424 l 285 157 l 782 157 l 782 0 l 118 0 z "},"ē":{"ha":769,"x_min":69,"x_max":707,"o":"m 168 822 l 168 956 l 626 956 l 626 822 l 168 822 m 397 -17 q 158 83 246 -17 q 69 356 69 182 q 158 627 69 528 q 397 726 247 726 q 620 642 533 726 q 707 393 707 557 q 701 293 707 336 l 231 293 q 283 172 235 218 q 397 126 331 126 q 547 200 492 126 l 650 94 q 397 -17 557 -17 m 232 428 l 546 428 q 499 544 540 504 q 397 583 457 583 q 283 545 328 583 q 232 428 238 507 z "},"Ĕ":{"ha":851,"x_min":118,"x_max":782,"o":"m 642 1126 q 608 1093 642 1126 q 447 1060 575 1060 q 253 1126 319 1060 q 186 1293 186 1193 l 317 1293 q 351 1215 317 1247 q 447 1183 385 1183 q 543 1215 508 1183 q 578 1293 578 1247 l 708 1293 q 642 1126 708 1193 m 118 0 l 118 972 l 751 972 l 751 815 l 285 815 l 285 581 l 572 581 l 572 424 l 285 424 l 285 157 l 782 157 l 782 0 l 118 0 z "},"ĕ":{"ha":769,"x_min":69,"x_max":707,"o":"m 592 864 q 558 831 592 864 q 397 797 525 797 q 203 864 269 797 q 136 1031 136 931 l 267 1031 q 301 953 267 985 q 397 921 335 921 q 493 953 458 921 q 528 1031 528 985 l 658 1031 q 592 864 658 931 m 397 -17 q 158 83 246 -17 q 69 356 69 182 q 158 627 69 528 q 397 726 247 726 q 620 642 533 726 q 707 393 707 557 q 701 293 707 336 l 231 293 q 283 172 235 218 q 397 126 331 126 q 547 200 492 126 l 650 94 q 397 -17 557 -17 m 232 428 l 546 428 q 499 544 540 504 q 397 583 457 583 q 283 545 328 583 q 232 428 238 507 z "},"Ė":{"ha":851,"x_min":118,"x_max":782,"o":"m 447 1076 q 380 1103 407 1076 q 353 1171 353 1131 q 380 1238 353 1211 q 447 1265 407 1265 q 514 1238 486 1265 q 542 1171 542 1211 q 514 1103 542 1131 q 447 1076 486 1076 m 118 0 l 118 972 l 751 972 l 751 815 l 285 815 l 285 581 l 572 581 l 572 424 l 285 424 l 285 157 l 782 157 l 782 0 l 118 0 z "},"ė":{"ha":769,"x_min":69,"x_max":707,"o":"m 397 814 q 330 841 357 814 q 303 908 303 868 q 330 976 303 949 q 397 1003 357 1003 q 464 975 436 1003 q 492 908 492 947 q 464 842 492 869 q 397 814 436 814 m 397 -17 q 158 83 246 -17 q 69 356 69 182 q 158 627 69 528 q 397 726 247 726 q 620 642 533 726 q 707 393 707 557 q 701 293 707 336 l 231 293 q 283 172 235 218 q 397 126 331 126 q 547 200 492 126 l 650 94 q 397 -17 557 -17 m 232 428 l 546 428 q 499 544 540 504 q 397 583 457 583 q 283 545 328 583 q 232 428 238 507 z "},"Ę":{"ha":851,"x_min":118,"x_max":782,"o":"m 582 -336 q 458 -297 504 -336 q 411 -189 411 -257 q 451 -78 411 -128 q 564 0 492 -29 l 118 0 l 118 972 l 751 972 l 751 815 l 285 815 l 285 581 l 572 581 l 572 424 l 285 424 l 285 157 l 782 157 l 782 0 l 747 0 q 602 -58 660 0 q 544 -175 544 -115 q 562 -225 544 -208 q 606 -242 579 -242 q 661 -215 642 -242 l 739 -271 q 582 -336 679 -336 z "},"ę":{"ha":769,"x_min":69,"x_max":707,"o":"m 413 -336 q 289 -297 335 -336 q 243 -189 243 -257 q 368 -17 243 -79 q 149 93 228 -6 q 69 356 69 192 q 158 627 69 528 q 397 726 247 726 q 620 642 533 726 q 707 393 707 557 q 701 293 707 336 l 231 293 q 283 172 235 218 q 397 126 331 126 q 547 200 492 126 l 650 94 q 522 -3 614 51 q 449 -49 472 -33 q 401 -100 425 -65 q 376 -175 376 -135 q 393 -225 376 -208 q 438 -242 410 -242 q 493 -215 474 -242 l 569 -271 q 413 -336 513 -336 m 397 583 q 283 545 328 583 q 232 428 238 507 l 546 428 q 499 544 540 504 q 397 583 457 583 z "},"Ě":{"ha":851,"x_min":118,"x_max":782,"o":"m 526 1063 l 367 1063 l 171 1279 l 324 1279 l 447 1176 l 571 1279 l 724 1279 l 526 1063 m 118 0 l 118 972 l 751 972 l 751 815 l 285 815 l 285 581 l 572 581 l 572 424 l 285 424 l 285 157 l 782 157 l 782 0 l 118 0 z "},"ě":{"ha":769,"x_min":69,"x_max":707,"o":"m 476 800 l 317 800 l 121 1017 l 274 1017 l 397 914 l 521 1017 l 674 1017 l 476 800 m 397 -17 q 158 83 246 -17 q 69 356 69 182 q 158 627 69 528 q 397 726 247 726 q 620 642 533 726 q 707 393 707 557 q 701 293 707 336 l 231 293 q 283 172 235 218 q 397 126 331 126 q 547 200 492 126 l 650 94 q 397 -17 557 -17 m 232 428 l 546 428 q 499 544 540 504 q 397 583 457 583 q 283 545 328 583 q 232 428 238 507 z "},"Ĝ":{"ha":947,"x_min":83,"x_max":867,"o":"m 633 1063 l 510 1165 l 386 1063 l 233 1063 l 431 1279 l 590 1279 l 786 1063 l 633 1063 m 510 -17 q 317 26 401 -17 q 183 140 233 68 q 108 300 133 213 q 83 486 83 388 q 99 629 83 558 q 150 765 115 700 q 233 880 185 831 q 353 959 282 929 q 510 989 425 989 q 715 937 638 989 q 850 793 793 885 l 701 708 q 510 828 621 828 q 388 797 440 828 q 308 713 336 765 q 268 604 281 661 q 256 486 256 547 q 319 243 256 342 q 510 144 383 144 q 644 197 590 144 q 697 326 697 250 l 697 342 l 526 342 l 526 499 l 867 499 l 867 364 q 767 84 867 185 q 510 -17 667 -17 z "},"ĝ":{"ha":790,"x_min":69,"x_max":686,"o":"m 532 800 l 408 903 l 285 800 l 132 800 l 329 1017 l 489 1017 l 685 800 l 532 800 m 351 -278 l 265 -147 q 467 -102 411 -137 q 524 7 524 -67 l 524 47 q 363 -17 465 -17 q 151 80 232 -17 q 69 356 69 176 q 151 627 69 528 q 364 726 232 726 q 524 667 464 726 l 524 710 l 686 710 l 686 71 q 610 -185 686 -106 q 351 -278 535 -264 m 390 139 q 524 208 478 139 l 524 503 q 390 572 475 572 q 273 517 314 572 q 232 356 232 461 q 274 197 232 256 q 390 139 315 139 z "},"Ğ":{"ha":947,"x_min":83,"x_max":867,"o":"m 704 1126 q 671 1093 704 1126 q 510 1060 638 1060 q 315 1126 382 1060 q 249 1293 249 1193 l 379 1293 q 413 1215 379 1247 q 510 1183 447 1183 q 606 1215 571 1183 q 640 1293 640 1247 l 771 1293 q 704 1126 771 1193 m 510 -17 q 317 26 401 -17 q 183 140 233 68 q 108 300 133 213 q 83 486 83 388 q 99 629 83 558 q 150 765 115 700 q 233 880 185 831 q 353 959 282 929 q 510 989 425 989 q 715 937 638 989 q 850 793 793 885 l 701 708 q 510 828 621 828 q 388 797 440 828 q 308 713 336 765 q 268 604 281 661 q 256 486 256 547 q 319 243 256 342 q 510 144 383 144 q 644 197 590 144 q 697 326 697 250 l 697 342 l 526 342 l 526 499 l 867 499 l 867 364 q 767 84 867 185 q 510 -17 667 -17 z "},"ğ":{"ha":790,"x_min":69,"x_max":686,"o":"m 603 864 q 569 831 603 864 q 408 797 536 797 q 214 864 281 797 q 147 1031 147 931 l 278 1031 q 312 953 278 985 q 408 921 346 921 q 504 953 469 921 q 539 1031 539 985 l 669 1031 q 603 864 669 931 m 351 -278 l 265 -147 q 467 -102 411 -137 q 524 7 524 -67 l 524 47 q 363 -17 465 -17 q 151 80 232 -17 q 69 356 69 176 q 151 627 69 528 q 364 726 232 726 q 524 667 464 726 l 524 710 l 686 710 l 686 71 q 610 -185 686 -106 q 351 -278 535 -264 m 390 139 q 524 208 478 139 l 524 503 q 390 572 475 572 q 273 517 314 572 q 232 356 232 461 q 274 197 232 256 q 390 139 315 139 z "},"Ġ":{"ha":947,"x_min":83,"x_max":867,"o":"m 511 1076 q 444 1103 471 1076 q 417 1171 417 1131 q 444 1238 417 1211 q 511 1265 471 1265 q 578 1238 550 1265 q 606 1171 606 1211 q 578 1103 606 1131 q 511 1076 550 1076 m 510 -17 q 317 26 401 -17 q 183 140 233 68 q 108 300 133 213 q 83 486 83 388 q 99 629 83 558 q 150 765 115 700 q 233 880 185 831 q 353 959 282 929 q 510 989 425 989 q 715 937 638 989 q 850 793 793 885 l 701 708 q 510 828 621 828 q 388 797 440 828 q 308 713 336 765 q 268 604 281 661 q 256 486 256 547 q 319 243 256 342 q 510 144 383 144 q 644 197 590 144 q 697 326 697 250 l 697 342 l 526 342 l 526 499 l 867 499 l 867 364 q 767 84 867 185 q 510 -17 667 -17 z "},"ġ":{"ha":790,"x_min":69,"x_max":686,"o":"m 408 814 q 341 841 368 814 q 314 908 314 868 q 341 976 314 949 q 408 1003 368 1003 q 475 975 447 1003 q 503 908 503 947 q 475 842 503 869 q 408 814 447 814 m 351 -278 l 265 -147 q 467 -102 411 -137 q 524 7 524 -67 l 524 47 q 363 -17 465 -17 q 151 80 232 -17 q 69 356 69 176 q 151 627 69 528 q 364 726 232 726 q 524 667 464 726 l 524 710 l 686 710 l 686 71 q 610 -185 686 -106 q 351 -278 535 -264 m 390 139 q 524 208 478 139 l 524 503 q 390 572 475 572 q 273 517 314 572 q 232 356 232 461 q 274 197 232 256 q 390 139 315 139 z "},"Ģ":{"ha":947,"x_min":83,"x_max":867,"o":"m 510 -17 q 317 26 401 -17 q 183 140 233 68 q 108 300 133 213 q 83 486 83 388 q 99 629 83 558 q 150 765 115 700 q 233 880 185 831 q 353 959 282 929 q 510 989 425 989 q 715 937 638 989 q 850 793 793 885 l 701 708 q 510 828 621 828 q 388 797 440 828 q 308 713 336 765 q 268 604 281 661 q 256 486 256 547 q 319 243 256 342 q 510 144 383 144 q 644 197 590 144 q 697 326 697 250 l 697 342 l 526 342 l 526 499 l 867 499 l 867 364 q 767 84 867 185 q 510 -17 667 -17 m 433 -343 q 503 -243 485 -297 q 439 -218 465 -243 q 413 -154 413 -193 q 440 -83 413 -111 q 508 -56 468 -56 q 581 -84 553 -56 q 608 -162 608 -112 q 489 -379 608 -282 l 433 -343 z "},"ģ":{"ha":790,"x_min":69,"x_max":686,"o":"m 410 814 q 338 842 365 814 q 310 921 310 871 q 429 1138 310 1040 l 485 1101 q 415 1001 433 1056 q 479 976 453 1001 q 506 913 506 951 q 477 842 506 869 q 410 814 449 814 m 351 -278 l 265 -147 q 467 -102 411 -137 q 524 7 524 -67 l 524 47 q 363 -17 465 -17 q 151 80 232 -17 q 69 356 69 176 q 151 627 69 528 q 364 726 232 726 q 524 667 464 726 l 524 710 l 686 710 l 686 71 q 610 -185 686 -106 q 351 -278 535 -264 m 390 139 q 524 208 478 139 l 524 503 q 390 572 475 572 q 273 517 314 572 q 232 356 232 461 q 274 197 232 256 q 390 139 315 139 z "},"Ĥ":{"ha":993,"x_min":118,"x_max":875,"o":"m 621 1063 l 497 1165 l 374 1063 l 221 1063 l 418 1279 l 578 1279 l 774 1063 l 621 1063 m 710 0 l 710 422 l 285 422 l 285 0 l 118 0 l 118 972 l 285 972 l 285 579 l 710 579 l 710 972 l 875 972 l 875 0 l 710 0 z "},"ĥ":{"ha":803,"x_min":104,"x_max":706,"o":"m 535 1063 l 411 1165 l 288 1063 l 135 1063 l 332 1279 l 492 1279 l 688 1063 l 535 1063 m 104 0 l 104 928 l 267 1003 l 267 643 q 454 726 336 726 q 635 657 565 726 q 706 436 706 588 l 706 0 l 543 0 l 543 410 q 411 572 543 572 q 267 413 267 572 l 267 0 l 104 0 z "},"Ħ":{"ha":993,"x_min":0,"x_max":993,"o":"m 710 0 l 710 422 l 285 422 l 285 0 l 118 0 l 118 703 l 0 703 l 0 860 l 118 860 l 118 972 l 285 972 l 285 860 l 710 860 l 710 972 l 875 972 l 875 860 l 993 860 l 993 703 l 875 703 l 875 0 l 710 0 m 710 579 l 710 703 l 285 703 l 285 579 l 710 579 z "},"ħ":{"ha":803,"x_min":24,"x_max":706,"o":"m 104 0 l 104 750 l 24 750 l 24 881 l 104 881 l 104 928 l 267 1003 l 267 881 l 457 881 l 457 750 l 267 750 l 267 601 q 454 685 336 685 q 635 615 565 685 q 706 394 706 546 l 706 0 l 543 0 l 543 379 q 507 493 543 456 q 411 531 471 531 q 306 495 346 531 q 267 382 267 460 l 267 0 l 104 0 z "},"Ĩ":{"ha":417,"x_min":-54,"x_max":471,"o":"m 318 1075 q 192 1108 265 1075 q 89 1140 119 1140 q 24 1081 25 1140 l -54 1081 q 99 1267 -54 1267 q 224 1234 151 1267 q 328 1201 296 1201 q 393 1261 389 1201 l 471 1261 q 318 1075 471 1075 m 125 0 l 125 972 l 292 972 l 292 0 l 125 0 z "},"ĩ":{"ha":374,"x_min":-75,"x_max":450,"o":"m 297 813 q 172 845 244 813 q 68 878 99 878 q 3 818 4 878 l -75 818 q 78 1004 -75 1004 q 203 972 131 1004 q 307 939 275 939 q 372 999 368 939 l 450 999 q 297 813 450 813 m 106 0 l 106 710 l 268 710 l 268 0 l 106 0 z "},"Ī":{"ha":417,"x_min":-21,"x_max":438,"o":"m -21 1085 l -21 1218 l 438 1218 l 438 1085 l -21 1085 m 125 0 l 125 972 l 292 972 l 292 0 l 125 0 z "},"ī":{"ha":374,"x_min":-42,"x_max":417,"o":"m -42 822 l -42 956 l 417 956 l 417 822 l -42 822 m 106 0 l 106 710 l 268 710 l 268 0 l 106 0 z "},"Ĭ":{"ha":417,"x_min":-53,"x_max":469,"o":"m 403 1126 q 369 1093 403 1126 q 208 1060 336 1060 q 14 1126 81 1060 q -53 1293 -53 1193 l 78 1293 q 112 1215 78 1247 q 208 1183 146 1183 q 304 1215 269 1183 q 339 1293 339 1247 l 469 1293 q 403 1126 469 1193 m 125 0 l 125 972 l 292 972 l 292 0 l 125 0 z "},"ĭ":{"ha":374,"x_min":-74,"x_max":449,"o":"m 382 864 q 349 831 382 864 q 188 797 315 797 q -7 864 60 797 q -74 1031 -74 931 l 57 1031 q 91 953 57 985 q 188 921 125 921 q 283 953 249 921 q 318 1031 318 985 l 449 1031 q 382 864 449 931 m 106 0 l 106 710 l 268 710 l 268 0 l 106 0 z "},"Į":{"ha":417,"x_min":-31,"x_max":297,"o":"m 140 -336 q 16 -297 63 -336 q -31 -189 -31 -257 q 10 -80 -31 -129 q 125 0 51 -31 l 125 972 l 292 972 l 292 0 q 154 -69 204 -21 q 104 -175 104 -117 q 121 -225 104 -208 q 165 -242 138 -242 q 221 -215 201 -242 l 297 -271 q 140 -336 240 -336 z "},"į":{"ha":369,"x_min":-51,"x_max":282,"o":"m 253 835 q 239 821 253 835 q 185 807 225 807 q 117 835 144 807 q 89 904 89 864 q 117 972 89 944 q 185 1000 144 1000 q 253 972 225 1000 q 282 904 282 944 q 253 835 282 864 m 119 -336 q -5 -297 42 -336 q -51 -189 -51 -257 q 104 0 -51 -64 l 104 710 l 267 710 l 267 0 q 128 -74 172 -25 q 83 -175 83 -122 q 100 -225 83 -208 q 144 -242 117 -242 q 200 -215 181 -242 l 276 -271 q 119 -336 219 -336 z "},"İ":{"ha":417,"x_min":114,"x_max":303,"o":"m 208 1076 q 141 1103 168 1076 q 114 1171 114 1131 q 141 1238 114 1211 q 208 1265 168 1265 q 275 1238 247 1265 q 303 1171 303 1211 q 275 1103 303 1131 q 208 1076 247 1076 m 125 0 l 125 972 l 292 972 l 292 0 l 125 0 z "},"ı":{"ha":374,"x_min":106,"x_max":268,"o":"m 106 0 l 106 710 l 268 710 l 268 0 l 106 0 z "},"Ĳ":{"ha":1215,"x_min":125,"x_max":1104,"o":"m 125 0 l 125 972 l 292 972 l 292 0 l 125 0 m 776 -17 q 587 35 671 -17 q 458 182 503 88 l 603 251 q 776 143 657 143 q 939 350 939 143 l 939 972 l 1104 972 l 1104 332 q 1084 190 1104 253 q 1032 90 1064 128 q 956 27 1000 51 q 867 -7 911 3 q 776 -17 824 -17 z "},"ĳ":{"ha":747,"x_min":90,"x_max":657,"o":"m 256 835 q 242 821 256 835 q 188 807 228 807 q 119 835 147 807 q 90 904 90 864 q 119 972 90 944 q 188 1000 147 1000 q 256 972 228 1000 q 283 904 283 944 q 256 835 283 864 m 629 835 q 615 821 629 835 q 561 807 601 807 q 492 835 521 807 q 464 904 464 864 q 492 972 464 944 q 561 1000 521 1000 q 629 972 601 1000 q 657 904 657 944 q 629 835 657 864 m 106 0 l 106 710 l 268 710 l 268 0 l 106 0 m 364 -297 l 283 -172 q 437 -114 394 -149 q 479 -11 479 -79 l 479 710 l 642 710 l 642 36 q 574 -189 642 -118 q 364 -297 499 -268 z "},"Ĵ":{"ha":785,"x_min":28,"x_max":868,"o":"m 715 1063 l 592 1165 l 468 1063 l 315 1063 l 513 1279 l 672 1279 l 868 1063 l 715 1063 m 346 -17 q 156 35 240 -17 q 28 182 72 88 l 172 251 q 346 143 226 143 q 508 350 508 143 l 508 972 l 674 972 l 674 332 q 653 190 674 253 q 601 90 633 128 q 525 27 569 51 q 437 -7 481 3 q 346 -17 393 -17 z "},"ĵ":{"ha":374,"x_min":-90,"x_max":464,"o":"m 311 800 l 188 903 l 64 800 l -89 800 l 108 1017 l 268 1017 l 464 800 l 311 800 m -10 -297 l -90 -172 q 63 -114 21 -149 q 106 -11 106 -79 l 106 710 l 268 710 l 268 36 q 200 -189 268 -118 q -10 -297 125 -268 z "},"Ķ":{"ha":965,"x_min":118,"x_max":917,"o":"m 722 0 l 461 488 l 285 272 l 285 0 l 118 0 l 118 972 l 285 972 l 285 506 l 656 972 l 850 972 l 572 628 l 917 0 l 722 0 m 407 -343 q 476 -243 458 -297 q 413 -218 439 -243 q 386 -154 386 -193 q 414 -83 386 -111 q 482 -56 442 -56 q 554 -84 526 -56 q 582 -162 582 -112 q 463 -379 582 -282 l 407 -343 z "},"ķ":{"ha":775,"x_min":104,"x_max":726,"o":"m 726 0 l 549 0 l 346 392 l 267 314 l 267 0 l 104 0 l 104 926 l 267 1003 l 267 504 l 467 710 l 664 710 l 463 508 l 726 0 m 311 -343 q 381 -243 363 -297 q 317 -218 343 -243 q 290 -154 290 -193 q 318 -83 290 -111 q 386 -56 346 -56 q 458 -84 431 -56 q 486 -162 486 -112 q 367 -379 486 -282 l 311 -343 z "},"ĸ":{"ha":760,"x_min":104,"x_max":711,"o":"m 532 0 l 363 315 l 267 199 l 267 0 l 104 0 l 104 710 l 267 710 l 267 414 l 504 710 l 685 710 l 469 444 l 711 0 l 532 0 z "},"Ĺ":{"ha":785,"x_min":51,"x_max":757,"o":"m 51 1063 l 249 1279 l 460 1279 l 213 1063 l 51 1063 m 118 0 l 118 972 l 285 972 l 285 160 l 757 160 l 757 0 l 118 0 z "},"ĺ":{"ha":385,"x_min":13,"x_max":421,"o":"m 13 1050 l 210 1267 l 421 1267 l 174 1050 l 13 1050 m 111 0 l 111 926 l 274 1003 l 274 0 l 111 0 z "},"Ļ":{"ha":785,"x_min":118,"x_max":757,"o":"m 118 0 l 118 972 l 285 972 l 285 160 l 757 160 l 757 0 l 118 0 m 361 -343 q 431 -243 413 -297 q 367 -218 393 -243 q 340 -154 340 -193 q 368 -83 340 -111 q 436 -56 396 -56 q 508 -84 481 -56 q 536 -162 536 -112 q 417 -379 536 -282 l 361 -343 z "},"ļ":{"ha":385,"x_min":96,"x_max":292,"o":"m 111 0 l 111 926 l 274 1003 l 274 0 l 111 0 m 117 -343 q 186 -243 168 -297 q 122 -218 149 -243 q 96 -154 96 -193 q 124 -83 96 -111 q 192 -56 151 -56 q 264 -84 236 -56 q 292 -162 292 -112 q 172 -379 292 -282 l 117 -343 z "},"Ľ":{"ha":785,"x_min":-75,"x_max":757,"o":"m 281 1063 l 121 1063 l -75 1279 l 78 1279 l 201 1176 l 325 1279 l 478 1279 l 281 1063 m 118 0 l 118 972 l 285 972 l 285 160 l 757 160 l 757 0 l 118 0 z "},"ľ":{"ha":601,"x_min":111,"x_max":567,"o":"m 111 0 l 111 926 l 274 1003 l 274 0 l 111 0 m 567 989 l 567 978 q 422 639 567 779 l 371 678 q 413 989 413 764 l 567 989 z "},"Ŀ":{"ha":785,"x_min":118,"x_max":757,"o":"m 118 0 l 118 972 l 285 972 l 285 160 l 757 160 l 757 0 l 118 0 m 679 409 q 663 393 679 409 q 600 378 647 378 q 521 409 553 378 q 489 485 489 440 q 521 563 489 531 q 600 594 553 594 q 679 563 647 594 q 711 485 711 531 q 679 409 711 440 z "},"ŀ":{"ha":556,"x_min":111,"x_max":576,"o":"m 111 0 l 111 926 l 274 1003 l 274 0 l 111 0 m 544 363 q 528 348 544 363 q 465 332 513 332 q 386 363 418 332 q 354 439 354 394 q 386 517 354 485 q 465 549 418 549 q 544 516 511 549 q 576 439 576 483 q 544 363 576 394 z "},"Ł":{"ha":785,"x_min":24,"x_max":757,"o":"m 118 0 l 118 311 l 24 239 l 24 421 l 118 493 l 118 972 l 285 972 l 285 618 l 476 764 l 476 582 l 285 438 l 285 160 l 757 160 l 757 0 l 118 0 z "},"ł":{"ha":385,"x_min":31,"x_max":354,"o":"m 111 0 l 111 311 l 31 250 l 31 407 l 111 468 l 111 926 l 274 1003 l 274 592 l 354 654 l 354 497 l 274 435 l 274 0 l 111 0 z "},"Ń":{"ha":992,"x_min":118,"x_max":874,"o":"m 369 1064 l 567 1281 l 778 1281 l 531 1064 l 369 1064 m 874 0 l 722 0 l 319 614 q 279 686 300 643 q 283 614 283 653 l 283 0 l 118 0 l 118 972 l 279 972 l 672 368 q 713 294 686 347 q 708 368 708 332 l 708 972 l 874 972 l 874 0 z "},"ń":{"ha":803,"x_min":104,"x_max":706,"o":"m 231 800 l 428 1017 l 639 1017 l 392 800 l 231 800 m 543 0 l 543 407 q 411 572 543 572 q 267 410 267 572 l 267 0 l 104 0 l 104 710 l 267 710 l 267 643 q 454 726 336 726 q 635 657 565 726 q 706 436 706 588 l 706 0 l 543 0 z "},"Ņ":{"ha":992,"x_min":118,"x_max":874,"o":"m 874 0 l 722 0 l 319 614 q 279 686 300 643 q 283 614 283 653 l 283 0 l 118 0 l 118 972 l 279 972 l 672 368 q 713 294 686 347 q 708 368 708 332 l 708 972 l 874 972 l 874 0 m 419 -343 q 489 -243 471 -297 q 425 -218 451 -243 q 399 -154 399 -193 q 426 -83 399 -111 q 494 -56 454 -56 q 567 -84 539 -56 q 594 -162 594 -112 q 475 -379 594 -282 l 419 -343 z "},"ņ":{"ha":803,"x_min":104,"x_max":706,"o":"m 543 0 l 543 407 q 411 572 543 572 q 267 410 267 572 l 267 0 l 104 0 l 104 710 l 267 710 l 267 643 q 454 726 336 726 q 635 657 565 726 q 706 436 706 588 l 706 0 l 543 0 m 326 -343 q 396 -243 378 -297 q 332 -218 358 -243 q 306 -154 306 -193 q 333 -83 306 -111 q 401 -56 361 -56 q 474 -84 446 -56 q 501 -162 501 -112 q 382 -379 501 -282 l 326 -343 z "},"Ň":{"ha":992,"x_min":118,"x_max":874,"o":"m 589 1063 l 429 1063 l 233 1279 l 386 1279 l 510 1176 l 633 1279 l 786 1279 l 589 1063 m 874 0 l 722 0 l 319 614 q 279 686 300 643 q 283 614 283 653 l 283 0 l 118 0 l 118 972 l 279 972 l 672 368 q 713 294 686 347 q 708 368 708 332 l 708 972 l 874 972 l 874 0 z "},"ň":{"ha":803,"x_min":104,"x_max":706,"o":"m 490 800 l 331 800 l 135 1017 l 288 1017 l 411 914 l 535 1017 l 688 1017 l 490 800 m 543 0 l 543 407 q 411 572 543 572 q 267 410 267 572 l 267 0 l 104 0 l 104 710 l 267 710 l 267 643 q 454 726 336 726 q 635 657 565 726 q 706 436 706 588 l 706 0 l 543 0 z "},"ŉ":{"ha":1074,"x_min":53,"x_max":976,"o":"m 53 640 q 106 702 78 663 q 140 776 133 742 q 79 812 104 785 q 54 879 54 839 q 87 958 54 928 q 164 989 119 989 q 245 955 213 989 q 278 860 278 921 q 232 709 278 782 q 118 594 186 636 l 53 640 m 814 0 l 814 407 q 681 572 814 572 q 538 410 538 572 l 538 0 l 375 0 l 375 710 l 538 710 l 538 643 q 724 726 604 726 q 906 658 836 726 q 976 436 976 589 l 976 0 l 814 0 z "},"Ŋ":{"ha":992,"x_min":118,"x_max":874,"o":"m 588 -339 l 506 -212 q 661 -153 618 -189 q 704 -49 704 -118 l 704 28 l 318 615 q 279 686 292 658 q 283 614 283 657 l 283 0 l 118 0 l 118 972 l 279 972 l 672 368 q 713 294 686 347 q 708 368 708 361 l 708 972 l 874 972 l 874 -3 q 803 -231 874 -154 q 588 -339 726 -311 z "},"ŋ":{"ha":803,"x_min":104,"x_max":706,"o":"m 428 -339 l 347 -214 q 501 -156 458 -190 q 543 -53 543 -121 l 543 407 q 411 572 543 572 q 267 410 267 572 l 267 0 l 104 0 l 104 710 l 267 710 l 267 643 q 454 726 336 726 q 635 657 565 726 q 706 436 706 588 l 706 -6 q 638 -231 706 -160 q 428 -339 563 -310 z "},"Ō":{"ha":1019,"x_min":83,"x_max":936,"o":"m 281 1085 l 281 1218 l 739 1218 l 739 1085 l 281 1085 m 510 -17 q 346 13 419 -17 q 224 91 272 42 q 144 206 176 140 q 97 341 111 271 q 83 486 83 411 q 97 631 83 561 q 144 767 111 701 q 224 881 176 832 q 346 960 272 931 q 510 989 419 989 q 708 945 622 989 q 841 827 793 901 q 913 667 889 753 q 936 486 936 581 q 913 306 936 392 q 841 145 889 219 q 708 27 793 71 q 510 -17 622 -17 m 510 143 q 628 175 576 143 q 708 259 679 207 q 750 369 736 311 q 764 486 764 426 q 750 608 764 550 q 708 717 736 665 q 628 799 679 768 q 510 829 578 829 q 361 773 421 829 q 278 643 301 717 q 256 486 256 569 q 269 365 256 424 q 312 256 283 307 q 391 174 340 204 q 510 143 442 143 z "},"ō":{"ha":790,"x_min":69,"x_max":721,"o":"m 167 822 l 167 956 l 625 956 l 625 822 l 167 822 m 394 -17 q 157 82 244 -17 q 69 354 69 181 q 157 627 69 528 q 394 726 244 726 q 633 627 544 726 q 721 354 721 528 q 633 82 721 181 q 394 -17 546 -17 m 394 139 q 515 196 471 139 q 558 354 558 253 q 515 514 558 456 q 394 572 471 572 q 276 513 321 572 q 232 354 232 454 q 276 197 232 254 q 394 139 319 139 z "},"Ŏ":{"ha":1019,"x_min":83,"x_max":936,"o":"m 704 1126 q 671 1093 704 1126 q 510 1060 638 1060 q 315 1126 382 1060 q 249 1293 249 1193 l 379 1293 q 413 1215 379 1247 q 510 1183 447 1183 q 606 1215 571 1183 q 640 1293 640 1247 l 771 1293 q 704 1126 771 1193 m 510 -17 q 346 13 419 -17 q 224 91 272 42 q 144 206 176 140 q 97 341 111 271 q 83 486 83 411 q 97 631 83 561 q 144 767 111 701 q 224 881 176 832 q 346 960 272 931 q 510 989 419 989 q 708 945 622 989 q 841 827 793 901 q 913 667 889 753 q 936 486 936 581 q 913 306 936 392 q 841 145 889 219 q 708 27 793 71 q 510 -17 622 -17 m 510 143 q 628 175 576 143 q 708 259 679 207 q 750 369 736 311 q 764 486 764 426 q 750 608 764 550 q 708 717 736 665 q 628 799 679 768 q 510 829 578 829 q 361 773 421 829 q 278 643 301 717 q 256 486 256 569 q 269 365 256 424 q 312 256 283 307 q 391 174 340 204 q 510 143 442 143 z "},"ŏ":{"ha":790,"x_min":69,"x_max":721,"o":"m 590 864 q 557 831 590 864 q 396 797 524 797 q 201 864 268 797 q 135 1031 135 931 l 265 1031 q 299 953 265 985 q 396 921 333 921 q 492 953 457 921 q 526 1031 526 985 l 657 1031 q 590 864 657 931 m 394 -17 q 157 82 244 -17 q 69 354 69 181 q 157 627 69 528 q 394 726 244 726 q 633 627 544 726 q 721 354 721 528 q 633 82 721 181 q 394 -17 546 -17 m 394 139 q 515 196 471 139 q 558 354 558 253 q 515 514 558 456 q 394 572 471 572 q 276 513 321 572 q 232 354 232 454 q 276 197 232 254 q 394 139 319 139 z "},"Ő":{"ha":1019,"x_min":83,"x_max":976,"o":"m 431 1063 l 269 1063 l 467 1279 l 678 1279 l 431 1063 m 729 1063 l 568 1063 l 765 1279 l 976 1279 l 729 1063 m 510 -17 q 346 13 419 -17 q 224 91 272 42 q 144 206 176 140 q 97 341 111 271 q 83 486 83 411 q 97 631 83 561 q 144 767 111 701 q 224 881 176 832 q 346 960 272 931 q 510 989 419 989 q 708 945 622 989 q 841 827 793 901 q 913 667 889 753 q 936 486 936 581 q 913 306 936 392 q 841 145 889 219 q 708 27 793 71 q 510 -17 622 -17 m 510 143 q 628 175 576 143 q 708 259 679 207 q 750 369 736 311 q 764 486 764 426 q 750 608 764 550 q 708 717 736 665 q 628 799 679 768 q 510 829 578 829 q 361 773 421 829 q 278 643 301 717 q 256 486 256 569 q 269 365 256 424 q 312 256 283 307 q 391 174 340 204 q 510 143 442 143 z "},"ő":{"ha":790,"x_min":69,"x_max":861,"o":"m 315 800 l 154 800 l 351 1017 l 563 1017 l 315 800 m 614 800 l 453 800 l 650 1017 l 861 1017 l 614 800 m 394 -17 q 157 82 244 -17 q 69 354 69 181 q 157 627 69 528 q 394 726 244 726 q 633 627 544 726 q 721 354 721 528 q 633 82 721 181 q 394 -17 546 -17 m 394 139 q 515 196 471 139 q 558 354 558 253 q 515 514 558 456 q 394 572 471 572 q 276 513 321 572 q 232 354 232 454 q 276 197 232 254 q 394 139 319 139 z "},"Œ":{"ha":1300,"x_min":83,"x_max":1260,"o":"m 657 0 l 657 7 q 510 -17 586 -17 q 346 13 419 -17 q 224 91 272 42 q 144 206 176 140 q 97 341 111 271 q 83 486 83 411 q 106 664 83 579 q 176 824 129 749 q 310 944 224 899 q 510 989 396 989 q 657 965 583 989 l 657 972 l 1229 972 l 1229 815 l 822 815 l 822 581 l 1050 581 l 1050 424 l 822 424 l 822 157 l 1260 157 l 1260 0 l 657 0 m 510 143 q 657 197 596 143 l 657 778 q 510 829 599 829 q 390 797 442 829 q 310 713 339 765 q 269 603 282 660 q 256 486 256 546 q 269 364 256 422 q 312 255 283 306 q 391 174 340 204 q 510 143 442 143 z "},"œ":{"ha":1257,"x_min":69,"x_max":1194,"o":"m 394 -17 q 157 82 244 -17 q 69 354 69 181 q 157 627 69 528 q 394 726 244 726 q 638 619 551 726 q 885 726 724 726 q 1108 642 1021 726 q 1194 393 1194 557 q 1188 293 1194 335 l 718 293 q 770 172 722 218 q 885 126 818 126 q 1035 200 979 126 l 1138 94 q 885 -17 1044 -17 q 638 89 722 -17 q 394 -17 549 -17 m 719 428 l 1033 428 q 986 544 1028 504 q 885 583 944 583 q 770 545 815 583 q 719 428 725 507 m 394 139 q 515 196 471 139 q 558 354 558 253 q 515 514 558 456 q 394 572 471 572 q 276 513 321 572 q 232 354 232 454 q 276 197 232 254 q 394 139 319 139 z "},"Ŕ":{"ha":951,"x_min":118,"x_max":868,"o":"m 283 1063 l 481 1279 l 692 1279 l 444 1063 l 283 1063 m 118 0 l 118 972 l 549 972 q 792 889 717 972 q 868 676 868 806 q 817 507 868 586 q 668 399 765 428 l 863 0 l 675 0 l 488 381 l 285 381 l 285 0 l 118 0 m 285 539 l 551 539 q 661 578 626 539 q 696 676 696 617 q 663 774 696 735 q 551 814 629 814 l 285 814 l 285 539 z "},"ŕ":{"ha":567,"x_min":104,"x_max":569,"o":"m 161 800 l 358 1017 l 569 1017 l 322 800 l 161 800 m 104 0 l 104 710 l 267 710 l 267 636 q 413 726 310 726 q 544 678 488 726 l 521 529 q 400 567 468 567 q 306 528 344 567 q 267 397 267 489 l 267 0 l 104 0 z "},"Ŗ":{"ha":951,"x_min":118,"x_max":868,"o":"m 118 0 l 118 972 l 549 972 q 792 889 717 972 q 868 676 868 806 q 817 507 868 586 q 668 399 765 428 l 863 0 l 675 0 l 488 381 l 285 381 l 285 0 l 118 0 m 285 539 l 551 539 q 661 578 626 539 q 696 676 696 617 q 663 774 696 735 q 551 814 629 814 l 285 814 l 285 539 m 400 -343 q 469 -243 451 -297 q 406 -218 432 -243 q 379 -154 379 -193 q 407 -83 379 -111 q 475 -56 435 -56 q 547 -84 519 -56 q 575 -162 575 -112 q 456 -379 575 -282 l 400 -343 z "},"ŗ":{"ha":567,"x_min":88,"x_max":544,"o":"m 104 0 l 104 710 l 267 710 l 267 636 q 413 726 310 726 q 544 678 488 726 l 521 529 q 400 567 468 567 q 306 528 344 567 q 267 397 267 489 l 267 0 l 104 0 m 108 -371 q 178 -271 160 -325 q 114 -246 140 -271 q 88 -182 88 -221 q 115 -111 88 -139 q 183 -83 143 -83 q 256 -112 228 -83 q 283 -190 283 -140 q 164 -407 283 -310 l 108 -371 z "},"Ř":{"ha":951,"x_min":118,"x_max":868,"o":"m 543 1063 l 383 1063 l 188 1279 l 340 1279 l 464 1176 l 588 1279 l 740 1279 l 543 1063 m 118 0 l 118 972 l 549 972 q 792 889 717 972 q 868 676 868 806 q 817 507 868 586 q 668 399 765 428 l 863 0 l 675 0 l 488 381 l 285 381 l 285 0 l 118 0 m 285 539 l 551 539 q 661 578 626 539 q 696 676 696 617 q 663 774 696 735 q 551 814 629 814 l 285 814 l 285 539 z "},"ř":{"ha":567,"x_min":65,"x_max":618,"o":"m 421 800 l 261 800 l 65 1017 l 218 1017 l 342 914 l 465 1017 l 618 1017 l 421 800 m 104 0 l 104 710 l 267 710 l 267 636 q 413 726 310 726 q 544 678 488 726 l 521 529 q 400 567 468 567 q 306 528 344 567 q 267 397 267 489 l 267 0 l 104 0 z "},"Ś":{"ha":847,"x_min":63,"x_max":771,"o":"m 271 1063 l 468 1279 l 679 1279 l 432 1063 l 271 1063 m 429 -17 q 199 51 296 -17 q 63 235 103 118 l 217 292 q 304 183 247 224 q 435 142 361 142 q 556 176 511 142 q 601 276 601 211 q 589 326 601 303 q 560 364 576 349 q 513 394 544 379 q 458 419 481 410 q 393 442 436 428 q 308 472 338 461 q 231 509 278 483 q 160 561 185 535 q 117 631 136 588 q 99 728 99 675 q 185 914 99 839 q 418 989 271 989 q 621 931 540 989 q 729 781 701 874 l 579 731 q 407 831 535 831 q 305 803 342 831 q 268 726 268 776 q 297 667 268 693 q 358 627 325 640 q 454 593 390 614 q 517 570 496 578 q 578 544 539 563 q 639 512 617 526 q 690 472 661 497 q 733 420 718 447 q 760 356 749 393 q 771 276 771 319 q 674 62 771 140 q 429 -17 578 -17 z "},"ś":{"ha":674,"x_min":56,"x_max":604,"o":"m 163 800 l 360 1017 l 571 1017 l 324 800 l 163 800 m 332 -17 q 170 17 246 -17 q 56 106 94 50 l 167 200 q 332 125 242 125 q 447 194 447 125 q 427 238 447 218 q 384 267 407 257 q 310 299 361 278 q 131 391 188 339 q 75 529 75 443 q 147 674 75 622 q 328 726 218 726 q 582 617 489 726 l 469 525 q 328 585 407 585 q 232 526 232 585 q 267 476 232 497 q 371 433 303 456 q 545 342 486 394 q 604 194 604 289 q 531 38 604 93 q 332 -17 457 -17 z "},"Ŝ":{"ha":847,"x_min":63,"x_max":771,"o":"m 543 1063 l 419 1165 l 296 1063 l 143 1063 l 340 1279 l 500 1279 l 696 1063 l 543 1063 m 429 -17 q 199 51 296 -17 q 63 235 103 118 l 217 292 q 304 183 247 224 q 435 142 361 142 q 556 176 511 142 q 601 276 601 211 q 589 326 601 303 q 560 364 576 349 q 513 394 544 379 q 458 419 481 410 q 393 442 436 428 q 308 472 338 461 q 231 509 278 483 q 160 561 185 535 q 117 631 136 588 q 99 728 99 675 q 185 914 99 839 q 418 989 271 989 q 621 931 540 989 q 729 781 701 874 l 579 731 q 407 831 535 831 q 305 803 342 831 q 268 726 268 776 q 297 667 268 693 q 358 627 325 640 q 454 593 390 614 q 517 570 496 578 q 578 544 539 563 q 639 512 617 526 q 690 472 661 497 q 733 420 718 447 q 760 356 749 393 q 771 276 771 319 q 674 62 771 140 q 429 -17 578 -17 z "},"ŝ":{"ha":674,"x_min":51,"x_max":604,"o":"m 451 800 l 328 903 l 204 800 l 51 800 l 249 1017 l 408 1017 l 604 800 l 451 800 m 332 -17 q 170 17 246 -17 q 56 106 94 50 l 167 200 q 332 125 242 125 q 447 194 447 125 q 427 238 447 218 q 384 267 407 257 q 310 299 361 278 q 131 391 188 339 q 75 529 75 443 q 147 674 75 622 q 328 726 218 726 q 582 617 489 726 l 469 525 q 328 585 407 585 q 232 526 232 585 q 267 476 232 497 q 371 433 303 456 q 545 342 486 394 q 604 194 604 289 q 531 38 604 93 q 332 -17 457 -17 z "},"Ş":{"ha":847,"x_min":63,"x_max":771,"o":"m 422 -336 q 276 -276 324 -336 l 350 -222 q 406 -246 369 -246 q 456 -230 438 -246 q 474 -187 474 -214 q 454 -147 474 -162 q 403 -131 435 -131 q 344 -147 369 -131 l 313 -107 l 388 -15 q 185 61 271 -6 q 63 235 99 128 l 217 292 q 304 183 247 224 q 435 142 361 142 q 556 176 511 142 q 601 276 601 211 q 589 326 601 303 q 560 364 576 349 q 513 394 544 379 q 458 419 481 410 q 393 442 436 428 q 308 472 338 461 q 231 509 278 483 q 160 561 185 535 q 117 631 136 588 q 99 728 99 675 q 185 914 99 839 q 418 989 271 989 q 621 931 540 989 q 729 781 701 874 l 579 731 q 407 831 535 831 q 305 803 342 831 q 268 726 268 776 q 297 667 268 693 q 358 627 325 640 q 454 593 390 614 q 517 570 496 578 q 578 544 539 563 q 639 512 617 526 q 690 472 661 497 q 733 420 718 447 q 760 356 749 393 q 771 276 771 319 q 691 76 771 153 q 481 -14 611 0 l 449 -67 q 565 -101 526 -67 q 604 -189 604 -135 q 556 -295 604 -254 q 422 -336 507 -336 z "},"ş":{"ha":674,"x_min":56,"x_max":604,"o":"m 314 -336 q 168 -276 215 -336 l 242 -222 q 297 -246 261 -246 q 347 -230 329 -246 q 365 -187 365 -214 q 346 -147 365 -162 q 294 -131 326 -131 q 236 -147 261 -131 l 204 -107 l 281 -14 q 56 106 122 10 l 167 200 q 332 125 242 125 q 447 194 447 125 q 445 212 447 204 q 437 227 443 219 q 425 240 431 235 q 408 253 419 246 q 390 264 397 260 q 366 275 382 268 q 341 285 350 282 q 313 297 332 289 q 285 308 294 304 q 127 395 179 347 q 75 529 75 443 q 147 674 75 622 q 328 726 218 726 q 582 617 489 726 l 469 525 q 328 585 407 585 q 232 526 232 585 q 243 497 232 510 q 282 469 254 483 q 327 449 310 456 q 389 426 344 442 q 548 339 492 389 q 604 194 604 289 q 542 48 604 101 q 372 -15 481 -6 l 340 -67 q 457 -101 418 -67 q 496 -189 496 -135 q 447 -295 496 -254 q 314 -336 399 -336 z "},"Š":{"ha":847,"x_min":63,"x_max":771,"o":"m 499 1063 l 339 1063 l 143 1279 l 296 1279 l 419 1176 l 543 1279 l 696 1279 l 499 1063 m 429 -17 q 199 51 296 -17 q 63 235 103 118 l 217 292 q 304 183 247 224 q 435 142 361 142 q 556 176 511 142 q 601 276 601 211 q 589 326 601 303 q 560 364 576 349 q 513 394 544 379 q 458 419 481 410 q 393 442 436 428 q 308 472 338 461 q 231 509 278 483 q 160 561 185 535 q 117 631 136 588 q 99 728 99 675 q 185 914 99 839 q 418 989 271 989 q 621 931 540 989 q 729 781 701 874 l 579 731 q 407 831 535 831 q 305 803 342 831 q 268 726 268 776 q 297 667 268 693 q 358 627 325 640 q 454 593 390 614 q 517 570 496 578 q 578 544 539 563 q 639 512 617 526 q 690 472 661 497 q 733 420 718 447 q 760 356 749 393 q 771 276 771 319 q 674 62 771 140 q 429 -17 578 -17 z "},"š":{"ha":674,"x_min":51,"x_max":604,"o":"m 407 800 l 247 800 l 51 1017 l 204 1017 l 328 914 l 451 1017 l 604 1017 l 407 800 m 332 -17 q 170 17 246 -17 q 56 106 94 50 l 167 200 q 332 125 242 125 q 447 194 447 125 q 427 238 447 218 q 384 267 407 257 q 310 299 361 278 q 131 391 188 339 q 75 529 75 443 q 147 674 75 622 q 328 726 218 726 q 582 617 489 726 l 469 525 q 328 585 407 585 q 232 526 232 585 q 267 476 232 497 q 371 433 303 456 q 545 342 486 394 q 604 194 604 289 q 531 38 604 93 q 332 -17 457 -17 z "},"Ţ":{"ha":831,"x_min":56,"x_max":775,"o":"m 394 -336 q 249 -276 296 -336 l 322 -222 q 378 -246 342 -246 q 428 -230 410 -246 q 446 -187 446 -214 q 426 -147 446 -162 q 375 -131 407 -131 q 317 -147 342 -131 l 285 -107 l 371 0 l 332 0 l 332 813 l 56 813 l 56 972 l 775 972 l 775 813 l 499 813 l 499 0 l 463 0 l 421 -67 q 538 -101 499 -67 q 576 -189 576 -135 q 528 -295 576 -254 q 394 -336 479 -336 z "},"ţ":{"ha":536,"x_min":42,"x_max":481,"o":"m 283 -336 q 138 -276 185 -336 l 211 -222 q 267 -246 231 -246 q 317 -230 299 -246 q 335 -187 335 -214 q 315 -147 335 -162 q 264 -131 296 -131 q 206 -147 231 -131 l 174 -107 l 253 -8 q 147 165 147 19 l 147 568 l 42 568 l 42 710 l 147 710 l 147 925 l 310 1003 l 310 710 l 474 710 l 474 568 l 310 568 l 310 197 q 369 129 310 129 q 481 161 424 129 l 461 15 q 361 -14 413 -8 l 342 -17 l 310 -67 q 426 -101 388 -67 q 465 -189 465 -135 q 417 -295 465 -254 q 283 -336 368 -336 z "},"Ť":{"ha":831,"x_min":56,"x_max":775,"o":"m 494 1063 l 335 1063 l 139 1279 l 292 1279 l 415 1176 l 539 1279 l 692 1279 l 494 1063 m 499 813 l 499 0 l 332 0 l 332 813 l 56 813 l 56 972 l 775 972 l 775 813 l 499 813 z "},"ť":{"ha":639,"x_min":42,"x_max":604,"o":"m 604 1167 l 604 1156 q 460 817 604 957 l 408 856 q 450 1167 450 942 l 604 1167 m 313 -17 q 147 165 147 -17 l 147 568 l 42 568 l 42 710 l 147 710 l 147 925 l 310 1003 l 310 710 l 474 710 l 474 568 l 310 568 l 310 197 q 369 129 310 129 q 481 161 424 129 l 461 15 q 313 -17 400 -17 z "},"Ŧ":{"ha":824,"x_min":56,"x_max":768,"o":"m 768 813 l 494 813 l 494 521 l 657 521 l 657 365 l 494 365 l 494 0 l 329 0 l 329 365 l 165 365 l 165 521 l 329 521 l 329 813 l 56 813 l 56 972 l 768 972 l 768 813 z "},"ŧ":{"ha":550,"x_min":49,"x_max":488,"o":"m 319 -17 q 154 165 154 -17 l 154 285 l 49 285 l 49 426 l 154 426 l 154 568 l 49 568 l 49 710 l 154 710 l 154 925 l 317 1003 l 317 710 l 481 710 l 481 568 l 317 568 l 317 426 l 481 426 l 481 285 l 317 285 l 317 197 q 376 129 317 129 q 488 161 428 129 l 468 15 q 319 -17 407 -17 z "},"Ũ":{"ha":981,"x_min":111,"x_max":869,"o":"m 600 1075 q 474 1108 547 1075 q 371 1140 401 1140 q 306 1081 307 1140 l 228 1081 q 381 1267 228 1267 q 506 1234 433 1267 q 610 1201 578 1201 q 675 1261 671 1201 l 753 1261 q 600 1075 753 1075 m 490 -17 q 346 3 411 -17 q 226 67 281 24 q 142 188 172 111 q 111 371 111 265 l 111 972 l 278 972 l 278 371 q 333 194 278 244 q 490 143 388 143 q 648 194 593 143 q 703 371 703 246 l 703 972 l 869 972 l 869 371 q 840 190 869 267 q 756 69 810 113 q 637 4 703 25 q 490 -17 571 -17 z "},"ũ":{"ha":803,"x_min":97,"x_max":699,"o":"m 504 813 q 378 845 451 813 q 275 878 306 878 q 210 818 211 878 l 132 818 q 285 1004 132 1004 q 410 972 338 1004 q 514 939 482 939 q 579 999 575 939 l 657 999 q 504 813 657 813 m 536 0 l 536 68 q 350 -17 469 -17 q 168 53 239 -17 q 97 275 97 124 l 97 710 l 260 710 l 260 304 q 393 139 260 139 q 536 301 536 139 l 536 710 l 699 710 l 699 0 l 536 0 z "},"Ū":{"ha":981,"x_min":111,"x_max":869,"o":"m 261 1085 l 261 1218 l 719 1218 l 719 1085 l 261 1085 m 490 -17 q 346 3 411 -17 q 226 67 281 24 q 142 188 172 111 q 111 371 111 265 l 111 972 l 278 972 l 278 371 q 333 194 278 244 q 490 143 388 143 q 648 194 593 143 q 703 371 703 246 l 703 972 l 869 972 l 869 371 q 840 190 869 267 q 756 69 810 113 q 637 4 703 25 q 490 -17 571 -17 z "},"ū":{"ha":803,"x_min":97,"x_max":699,"o":"m 165 822 l 165 956 l 624 956 l 624 822 l 165 822 m 536 0 l 536 68 q 350 -17 469 -17 q 168 53 239 -17 q 97 275 97 124 l 97 710 l 260 710 l 260 304 q 393 139 260 139 q 536 301 536 139 l 536 710 l 699 710 l 699 0 l 536 0 z "},"Ŭ":{"ha":981,"x_min":111,"x_max":869,"o":"m 685 1126 q 651 1093 685 1126 q 490 1060 618 1060 q 296 1126 363 1060 q 229 1293 229 1193 l 360 1293 q 394 1215 360 1247 q 490 1183 428 1183 q 586 1215 551 1183 q 621 1293 621 1247 l 751 1293 q 685 1126 751 1193 m 490 -17 q 346 3 411 -17 q 226 67 281 24 q 142 188 172 111 q 111 371 111 265 l 111 972 l 278 972 l 278 371 q 333 194 278 244 q 490 143 388 143 q 648 194 593 143 q 703 371 703 246 l 703 972 l 869 972 l 869 371 q 840 190 869 267 q 756 69 810 113 q 637 4 703 25 q 490 -17 571 -17 z "},"ŭ":{"ha":803,"x_min":97,"x_max":699,"o":"m 589 864 q 556 831 589 864 q 394 797 522 797 q 200 864 267 797 q 133 1031 133 931 l 264 1031 q 298 953 264 985 q 394 921 332 921 q 490 953 456 921 q 525 1031 525 985 l 656 1031 q 589 864 656 931 m 536 0 l 536 68 q 350 -17 469 -17 q 168 53 239 -17 q 97 275 97 124 l 97 710 l 260 710 l 260 304 q 393 139 260 139 q 536 301 536 139 l 536 710 l 699 710 l 699 0 l 536 0 z "},"Ů":{"ha":981,"x_min":111,"x_max":869,"o":"m 490 997 q 365 1048 417 997 q 314 1171 314 1099 q 365 1294 314 1243 q 490 1344 417 1344 q 614 1294 563 1344 q 665 1171 665 1243 q 614 1048 665 1099 q 490 997 563 997 m 490 1111 q 531 1128 514 1111 q 549 1171 549 1146 q 531 1214 549 1196 q 490 1232 514 1232 q 449 1215 465 1232 q 432 1171 432 1197 q 449 1128 432 1144 q 490 1111 465 1111 m 490 -17 q 346 3 411 -17 q 226 67 281 24 q 142 188 172 111 q 111 371 111 265 l 111 972 l 278 972 l 278 371 q 333 194 278 244 q 490 143 388 143 q 648 194 593 143 q 703 371 703 246 l 703 972 l 869 972 l 869 371 q 840 190 869 267 q 756 69 810 113 q 637 4 703 25 q 490 -17 571 -17 z "},"ů":{"ha":803,"x_min":97,"x_max":699,"o":"m 394 735 q 269 785 321 735 q 218 908 218 836 q 269 1031 218 981 q 394 1082 321 1082 q 518 1031 467 1082 q 569 908 569 981 q 518 785 569 836 q 394 735 467 735 m 394 849 q 435 866 418 849 q 453 908 453 883 q 435 951 453 933 q 394 969 418 969 q 353 952 369 969 q 336 908 336 935 q 353 865 336 882 q 394 849 369 849 m 536 0 l 536 68 q 350 -17 469 -17 q 168 53 239 -17 q 97 275 97 124 l 97 710 l 260 710 l 260 304 q 393 139 260 139 q 536 301 536 139 l 536 710 l 699 710 l 699 0 l 536 0 z "},"Ű":{"ha":981,"x_min":111,"x_max":919,"o":"m 374 1063 l 213 1063 l 410 1279 l 621 1279 l 374 1063 m 672 1063 l 511 1063 l 708 1279 l 919 1279 l 672 1063 m 490 -17 q 346 3 411 -17 q 226 67 281 24 q 142 188 172 111 q 111 371 111 265 l 111 972 l 278 972 l 278 371 q 333 194 278 244 q 490 143 388 143 q 648 194 593 143 q 703 371 703 246 l 703 972 l 869 972 l 869 371 q 840 190 869 267 q 756 69 810 113 q 637 4 703 25 q 490 -17 571 -17 z "},"ű":{"ha":803,"x_min":97,"x_max":824,"o":"m 278 800 l 117 800 l 314 1017 l 525 1017 l 278 800 m 576 800 l 415 800 l 613 1017 l 824 1017 l 576 800 m 536 0 l 536 68 q 350 -17 469 -17 q 168 53 239 -17 q 97 275 97 124 l 97 710 l 260 710 l 260 304 q 393 139 260 139 q 536 301 536 139 l 536 710 l 699 710 l 699 0 l 536 0 z "},"Ų":{"ha":981,"x_min":111,"x_max":869,"o":"m 522 -336 q 399 -296 446 -336 q 353 -189 353 -256 q 472 -17 353 -82 l 463 -17 q 209 83 307 -10 q 111 371 111 176 l 111 972 l 278 972 l 278 371 q 333 194 278 244 q 490 143 388 143 q 648 194 593 143 q 703 371 703 246 l 703 972 l 869 972 l 869 371 q 810 131 869 217 q 644 4 751 46 q 526 -76 565 -28 q 486 -175 486 -125 q 503 -225 486 -208 q 547 -242 521 -242 q 603 -215 583 -242 l 679 -271 q 522 -336 622 -336 z "},"ų":{"ha":803,"x_min":97,"x_max":711,"o":"m 554 -336 q 431 -297 476 -336 q 385 -189 385 -257 q 536 0 385 -65 l 536 68 q 350 -17 469 -17 q 168 53 239 -17 q 97 275 97 124 l 97 710 l 260 710 l 260 304 q 393 139 260 139 q 536 301 536 139 l 536 710 l 699 710 l 699 0 q 563 -75 607 -26 q 518 -175 518 -124 q 535 -225 518 -208 q 579 -242 551 -242 q 635 -215 615 -242 l 711 -271 q 554 -336 654 -336 z "},"Ŵ":{"ha":1183,"x_min":56,"x_max":1128,"o":"m 715 1063 l 592 1165 l 468 1063 l 315 1063 l 513 1279 l 672 1279 l 868 1063 l 715 1063 m 264 0 l 56 972 l 226 972 l 342 400 q 358 307 357 319 q 378 400 363 338 l 521 972 l 663 972 l 808 401 q 828 308 822 351 q 844 400 833 349 l 960 972 l 1128 972 l 918 0 l 765 0 l 608 601 q 589 692 593 656 q 571 603 585 658 l 417 0 l 264 0 z "},"ŵ":{"ha":1026,"x_min":49,"x_max":978,"o":"m 638 800 l 514 903 l 390 800 l 238 800 l 435 1017 l 594 1017 l 790 800 l 638 800 m 243 0 l 49 710 l 208 710 l 300 317 q 317 233 307 285 q 335 317 324 271 l 439 710 l 588 710 l 690 317 q 708 233 701 271 q 725 317 718 285 l 818 710 l 978 710 l 783 0 l 639 0 l 535 383 q 513 481 514 465 q 490 383 507 453 l 386 0 l 243 0 z "},"Ŷ":{"ha":943,"x_min":39,"x_max":906,"o":"m 596 1063 l 472 1165 l 349 1063 l 196 1063 l 393 1279 l 553 1279 l 749 1063 l 596 1063 m 389 0 l 389 381 l 39 972 l 228 972 l 472 551 l 717 972 l 906 972 l 554 381 l 554 0 l 389 0 z "},"ŷ":{"ha":769,"x_min":35,"x_max":735,"o":"m 508 800 l 385 903 l 261 800 l 108 800 l 306 1017 l 465 1017 l 661 800 l 508 800 m 192 -269 l 301 11 l 35 710 l 199 710 l 364 274 q 385 210 376 243 q 404 274 392 240 l 571 710 l 735 710 l 360 -269 l 192 -269 z "},"Ÿ":{"ha":943,"x_min":39,"x_max":906,"o":"m 410 1103 q 397 1090 410 1103 q 343 1076 383 1076 q 276 1103 303 1076 q 249 1171 249 1131 q 276 1238 249 1211 q 343 1265 303 1265 q 410 1238 383 1265 q 438 1171 438 1211 q 410 1103 438 1131 m 667 1103 q 653 1090 667 1103 q 600 1076 639 1076 q 533 1103 561 1076 q 506 1171 506 1131 q 533 1238 506 1211 q 600 1265 561 1265 q 667 1238 639 1265 q 694 1171 694 1211 q 667 1103 694 1131 m 389 0 l 389 381 l 39 972 l 228 972 l 472 551 l 717 972 l 906 972 l 554 381 l 554 0 l 389 0 z "},"Ź":{"ha":908,"x_min":69,"x_max":825,"o":"m 303 1063 l 500 1279 l 711 1279 l 464 1063 l 303 1063 m 69 0 l 69 131 l 604 814 l 101 814 l 101 972 l 825 972 l 825 843 l 288 158 l 825 158 l 825 0 l 69 0 z "},"ź":{"ha":733,"x_min":76,"x_max":650,"o":"m 192 800 l 389 1017 l 600 1017 l 353 800 l 192 800 m 76 0 l 76 131 l 449 565 l 104 565 l 104 710 l 650 710 l 650 585 l 279 144 l 649 144 l 649 0 l 76 0 z "},"Ż":{"ha":908,"x_min":69,"x_max":825,"o":"m 530 1103 q 516 1090 530 1103 q 463 1076 503 1076 q 395 1103 422 1076 q 368 1171 368 1131 q 395 1238 368 1211 q 463 1265 422 1265 q 530 1238 503 1265 q 557 1171 557 1211 q 530 1103 557 1131 m 69 0 l 69 131 l 604 814 l 101 814 l 101 972 l 825 972 l 825 843 l 288 158 l 825 158 l 825 0 l 69 0 z "},"ż":{"ha":733,"x_min":76,"x_max":650,"o":"m 372 814 q 305 841 332 814 q 278 908 278 868 q 305 976 278 949 q 372 1003 332 1003 q 439 975 411 1003 q 467 908 467 947 q 439 842 467 869 q 372 814 411 814 m 76 0 l 76 131 l 449 565 l 104 565 l 104 710 l 650 710 l 650 585 l 279 144 l 649 144 l 649 0 l 76 0 z "},"Ž":{"ha":908,"x_min":69,"x_max":825,"o":"m 563 1063 l 403 1063 l 207 1279 l 360 1279 l 483 1176 l 607 1279 l 760 1279 l 563 1063 m 69 0 l 69 131 l 604 814 l 101 814 l 101 972 l 825 972 l 825 843 l 288 158 l 825 158 l 825 0 l 69 0 z "},"ž":{"ha":733,"x_min":76,"x_max":650,"o":"m 451 800 l 292 800 l 96 1017 l 249 1017 l 372 914 l 496 1017 l 649 1017 l 451 800 m 76 0 l 76 131 l 449 565 l 104 565 l 104 710 l 650 710 l 650 585 l 279 144 l 649 144 l 649 0 l 76 0 z "},"ſ":{"ha":438,"x_min":111,"x_max":431,"o":"m 111 0 l 111 821 q 281 989 111 989 q 431 956 364 989 l 431 822 q 329 846 372 846 q 274 790 274 846 l 274 0 l 111 0 z "},"ƒ":{"ha":522,"x_min":-24,"x_max":494,"o":"m 60 -339 l -24 -210 q 131 -149 86 -186 q 175 -42 175 -111 l 175 567 l 74 567 l 74 710 l 175 710 l 175 821 q 344 989 175 989 q 494 956 428 989 l 494 824 q 393 846 435 846 q 338 790 338 846 l 338 710 l 494 710 l 494 567 l 338 567 l 338 -18 q 269 -231 338 -154 q 60 -339 201 -307 z "},"Ǎ":{"ha":992,"x_min":51,"x_max":940,"o":"m 575 1063 l 415 1063 l 219 1279 l 372 1279 l 496 1176 l 619 1279 l 772 1279 l 575 1063 m 765 0 l 689 213 l 304 213 l 228 0 l 51 0 l 414 972 l 579 972 l 940 0 l 765 0 m 636 363 l 529 654 q 497 753 508 707 q 465 654 486 713 l 357 363 l 636 363 z "},"ǎ":{"ha":757,"x_min":63,"x_max":667,"o":"m 467 800 l 307 800 l 111 1017 l 264 1017 l 388 914 l 511 1017 l 664 1017 l 467 800 m 508 0 l 508 57 q 319 -17 438 -17 q 134 45 206 -17 q 63 219 63 107 q 144 394 63 335 q 340 454 225 454 q 508 417 442 454 l 508 454 q 474 553 508 522 q 369 583 440 583 q 158 517 254 583 l 108 649 q 386 726 224 726 q 484 717 442 726 q 572 682 526 708 q 642 599 617 656 q 667 457 667 542 l 667 0 l 508 0 m 350 126 q 508 194 443 126 l 508 286 q 367 315 447 315 q 261 292 301 315 q 221 219 221 268 q 254 151 221 176 q 350 126 288 126 z "},"Ǐ":{"ha":417,"x_min":-68,"x_max":485,"o":"m 288 1063 l 128 1063 l -68 1279 l 85 1279 l 208 1176 l 332 1279 l 485 1279 l 288 1063 m 125 0 l 125 972 l 292 972 l 292 0 l 125 0 z "},"ǐ":{"ha":374,"x_min":-89,"x_max":464,"o":"m 267 800 l 107 800 l -89 1017 l 64 1017 l 188 914 l 311 1017 l 464 1017 l 267 800 m 106 0 l 106 710 l 268 710 l 268 0 l 106 0 z "},"Ǒ":{"ha":1019,"x_min":83,"x_max":936,"o":"m 589 1063 l 429 1063 l 233 1279 l 386 1279 l 510 1176 l 633 1279 l 786 1279 l 589 1063 m 510 -17 q 346 13 419 -17 q 224 91 272 42 q 144 206 176 140 q 97 341 111 271 q 83 486 83 411 q 97 631 83 561 q 144 767 111 701 q 224 881 176 832 q 346 960 272 931 q 510 989 419 989 q 708 945 622 989 q 841 827 793 901 q 913 667 889 753 q 936 486 936 581 q 913 306 936 392 q 841 145 889 219 q 708 27 793 71 q 510 -17 622 -17 m 510 143 q 628 175 576 143 q 708 259 679 207 q 750 369 736 311 q 764 486 764 426 q 750 608 764 550 q 708 717 736 665 q 628 799 679 768 q 510 829 578 829 q 361 773 421 829 q 278 643 301 717 q 256 486 256 569 q 269 365 256 424 q 312 256 283 307 q 391 174 340 204 q 510 143 442 143 z "},"ǒ":{"ha":790,"x_min":69,"x_max":721,"o":"m 475 800 l 315 800 l 119 1017 l 272 1017 l 396 914 l 519 1017 l 672 1017 l 475 800 m 394 -17 q 157 82 244 -17 q 69 354 69 181 q 157 627 69 528 q 394 726 244 726 q 633 627 544 726 q 721 354 721 528 q 633 82 721 181 q 394 -17 546 -17 m 394 139 q 515 196 471 139 q 558 354 558 253 q 515 514 558 456 q 394 572 471 572 q 276 513 321 572 q 232 354 232 454 q 276 197 232 254 q 394 139 319 139 z "},"Ǔ":{"ha":981,"x_min":111,"x_max":869,"o":"m 569 1063 l 410 1063 l 214 1279 l 367 1279 l 490 1176 l 614 1279 l 767 1279 l 569 1063 m 490 -17 q 346 3 411 -17 q 226 67 281 24 q 142 188 172 111 q 111 371 111 265 l 111 972 l 278 972 l 278 371 q 333 194 278 244 q 490 143 388 143 q 648 194 593 143 q 703 371 703 246 l 703 972 l 869 972 l 869 371 q 840 190 869 267 q 756 69 810 113 q 637 4 703 25 q 490 -17 571 -17 z "},"ǔ":{"ha":803,"x_min":97,"x_max":699,"o":"m 474 800 l 314 800 l 118 1017 l 271 1017 l 394 914 l 518 1017 l 671 1017 l 474 800 m 536 0 l 536 68 q 350 -17 469 -17 q 168 53 239 -17 q 97 275 97 124 l 97 710 l 260 710 l 260 304 q 393 139 260 139 q 536 301 536 139 l 536 710 l 699 710 l 699 0 l 536 0 z "},"Ǽ":{"ha":1203,"x_min":-26,"x_max":1143,"o":"m 528 1063 l 725 1279 l 936 1279 l 689 1063 l 528 1063 m -26 0 l 539 972 l 1114 972 l 1114 815 l 715 815 l 715 581 l 935 581 l 935 424 l 715 424 l 715 157 l 1143 157 l 1143 0 l 549 0 l 549 213 l 274 213 l 153 0 l -26 0 m 361 363 l 549 363 l 549 704 q 504 615 536 675 l 361 363 z "},"ǽ":{"ha":1190,"x_min":63,"x_max":1128,"o":"m 450 800 l 647 1017 l 858 1017 l 611 800 l 450 800 m 311 -17 q 132 45 201 -17 q 63 219 63 107 q 141 396 63 336 q 331 456 219 456 q 494 418 431 456 l 494 454 q 462 553 494 522 q 360 583 429 583 q 158 517 250 583 l 108 649 q 379 726 225 726 q 594 642 533 726 q 818 726 676 726 q 1041 642 954 726 q 1128 393 1128 557 q 1121 293 1128 335 l 653 293 q 703 172 656 218 q 818 126 751 126 q 968 200 913 126 l 1071 94 q 818 -17 978 -17 q 568 97 654 -17 q 311 -17 460 -17 m 653 431 l 967 431 q 919 544 961 506 q 818 583 878 583 q 704 546 749 583 q 653 431 660 508 m 344 126 q 494 194 433 126 l 494 286 q 360 315 439 315 q 260 292 299 315 q 221 219 221 268 q 253 151 221 176 q 344 126 285 126 z "},"Ǿ":{"ha":1013,"x_min":81,"x_max":932,"o":"m 325 1063 l 522 1279 l 733 1279 l 486 1063 l 325 1063 m 83 -17 l 185 132 q 81 486 81 271 q 104 667 81 581 q 176 827 128 753 q 309 945 224 901 q 507 989 394 989 q 728 932 633 989 l 767 989 l 929 989 l 828 840 q 932 486 932 701 q 908 306 932 392 q 837 145 885 219 q 704 27 789 71 q 507 -17 619 -17 q 285 42 379 -17 l 246 -17 l 83 -17 m 292 289 l 633 793 q 507 829 579 829 q 388 797 439 829 q 308 713 336 765 q 266 603 279 661 q 253 486 253 546 q 292 289 253 375 m 507 143 q 625 175 574 143 q 704 259 676 207 q 746 369 732 311 q 760 486 760 426 q 721 683 760 600 l 379 181 q 507 143 432 143 z "},"ǿ":{"ha":790,"x_min":69,"x_max":721,"o":"m 622 1017 l 375 800 l 214 800 l 411 1017 l 622 1017 m 721 726 l 644 614 q 721 354 721 514 q 633 82 721 181 q 394 -17 546 -17 q 240 18 306 -17 l 217 -17 l 69 -17 l 146 96 q 69 354 69 194 q 157 627 69 528 q 394 726 244 726 q 550 692 481 726 l 574 726 l 721 726 m 232 354 q 249 247 232 293 l 460 558 q 394 572 432 572 q 276 513 321 572 q 232 354 232 454 m 558 354 q 542 463 558 417 l 331 151 q 394 139 360 139 q 515 196 471 139 q 558 354 558 253 z "},"Ș":{"ha":847,"x_min":63,"x_max":771,"o":"m 429 -17 q 199 51 296 -17 q 63 235 103 118 l 217 292 q 304 183 247 224 q 435 142 361 142 q 556 176 511 142 q 601 276 601 211 q 589 326 601 303 q 560 364 576 349 q 513 394 544 379 q 458 419 481 410 q 393 442 436 428 q 308 472 338 461 q 231 509 278 483 q 160 561 185 535 q 117 631 136 588 q 99 728 99 675 q 185 914 99 839 q 418 989 271 989 q 621 931 540 989 q 729 781 701 874 l 579 731 q 407 831 535 831 q 305 803 342 831 q 268 726 268 776 q 297 667 268 693 q 358 627 325 640 q 454 593 390 614 q 517 570 496 578 q 578 544 539 563 q 639 512 617 526 q 690 472 661 497 q 733 420 718 447 q 760 356 749 393 q 771 276 771 319 q 674 62 771 140 q 429 -17 578 -17 m 347 -343 q 417 -243 399 -297 q 353 -218 379 -243 q 326 -154 326 -193 q 354 -83 326 -111 q 422 -56 382 -56 q 494 -84 467 -56 q 522 -162 522 -112 q 403 -379 522 -282 l 347 -343 z "},"ș":{"ha":674,"x_min":56,"x_max":604,"o":"m 332 -17 q 170 17 246 -17 q 56 106 94 50 l 167 200 q 332 125 242 125 q 447 194 447 125 q 427 238 447 218 q 384 267 407 257 q 310 299 361 278 q 131 391 188 339 q 75 529 75 443 q 147 674 75 622 q 328 726 218 726 q 582 617 489 726 l 469 525 q 328 585 407 585 q 232 526 232 585 q 267 476 232 497 q 371 433 303 456 q 545 342 486 394 q 604 194 604 289 q 531 38 604 93 q 332 -17 457 -17 m 258 -343 q 328 -243 310 -297 q 264 -218 290 -243 q 238 -154 238 -193 q 265 -83 238 -111 q 333 -56 293 -56 q 406 -84 378 -56 q 433 -162 433 -112 q 314 -379 433 -282 l 258 -343 z "},"Ț":{"ha":831,"x_min":56,"x_max":775,"o":"m 499 813 l 499 0 l 332 0 l 332 813 l 56 813 l 56 972 l 775 972 l 775 813 l 499 813 m 339 -343 q 408 -243 390 -297 q 344 -218 371 -243 q 318 -154 318 -193 q 346 -83 318 -111 q 414 -56 374 -56 q 486 -84 458 -56 q 514 -162 514 -112 q 394 -379 514 -282 l 339 -343 z "},"ț":{"ha":536,"x_min":42,"x_max":481,"o":"m 313 -17 q 147 165 147 -17 l 147 568 l 42 568 l 42 710 l 147 710 l 147 925 l 310 1003 l 310 710 l 474 710 l 474 568 l 310 568 l 310 197 q 369 129 310 129 q 481 161 424 129 l 461 15 q 313 -17 400 -17 m 228 -343 q 297 -243 279 -297 q 233 -218 260 -243 q 207 -154 207 -193 q 235 -83 207 -111 q 303 -56 263 -56 q 375 -84 347 -56 q 403 -162 403 -112 q 283 -379 403 -282 l 228 -343 z "},"ȷ":{"ha":374,"x_min":-90,"x_max":268,"o":"m -10 -297 l -90 -172 q 63 -114 21 -149 q 106 -11 106 -79 l 106 710 l 268 710 l 268 36 q 200 -189 268 -118 q -10 -297 125 -268 z "},"ˆ":{"ha":608,"x_min":28,"x_max":581,"o":"m 428 800 l 304 903 l 181 800 l 28 800 l 225 1017 l 385 1017 l 581 800 l 428 800 z "},"ˇ":{"ha":608,"x_min":28,"x_max":581,"o":"m 383 800 l 224 800 l 28 1017 l 181 1017 l 304 914 l 428 1017 l 581 1017 l 383 800 z "},"ˉ":{"ha":608,"x_min":75,"x_max":533,"o":"m 75 822 l 75 956 l 533 956 l 533 822 l 75 822 z "},"˘":{"ha":608,"x_min":43,"x_max":565,"o":"m 499 864 q 465 831 499 864 q 304 797 432 797 q 110 864 176 797 q 43 1031 43 931 l 174 1031 q 208 953 174 985 q 304 921 242 921 q 400 953 365 921 q 435 1031 435 985 l 565 1031 q 499 864 565 931 z "},"˙":{"ha":608,"x_min":210,"x_max":399,"o":"m 372 842 q 358 828 372 842 q 304 814 344 814 q 237 841 264 814 q 210 908 210 868 q 237 976 210 949 q 304 1003 264 1003 q 372 975 344 1003 q 399 908 399 947 q 372 842 399 869 z "},"˚":{"ha":608,"x_min":128,"x_max":479,"o":"m 304 735 q 179 785 231 735 q 128 908 128 836 q 179 1031 128 981 q 304 1082 231 1082 q 428 1031 376 1082 q 479 908 479 981 q 428 785 479 836 q 304 735 376 735 m 304 849 q 345 866 328 849 q 363 908 363 883 q 345 951 363 933 q 304 969 328 969 q 263 952 279 969 q 246 908 246 935 q 263 865 246 882 q 304 849 279 849 z "},"˛":{"ha":608,"x_min":140,"x_max":468,"o":"m 311 -336 q 187 -297 233 -336 q 140 -189 140 -257 q 190 -68 140 -121 q 331 14 240 -15 l 446 14 q 315 -73 357 -22 q 274 -175 274 -124 q 291 -225 274 -208 q 335 -242 308 -242 q 390 -215 371 -242 l 468 -271 q 311 -336 408 -336 z "},"˜":{"ha":608,"x_min":42,"x_max":567,"o":"m 414 813 q 288 845 361 813 q 185 878 215 878 q 119 818 121 878 l 42 818 q 194 1004 42 1004 q 319 972 247 1004 q 424 939 392 939 q 489 999 485 939 l 567 999 q 414 813 567 813 z "},"˝":{"ha":608,"x_min":26,"x_max":733,"o":"m 188 800 l 26 800 l 224 1017 l 435 1017 l 188 800 m 486 800 l 325 800 l 522 1017 l 733 1017 l 486 800 z "},"̒":{"ha":0,"x_min":-404,"x_max":-208,"o":"m -304 814 q -376 842 -349 814 q -404 921 -404 871 q -285 1138 -404 1040 l -229 1101 q -299 1001 -281 1056 q -235 976 -261 1001 q -208 913 -208 951 q -237 842 -208 869 q -304 814 -265 814 z "},"̦":{"ha":0,"x_min":-401,"x_max":-206,"o":"m -381 -343 q -311 -243 -329 -297 q -375 -218 -349 -243 q -401 -154 -401 -193 q -374 -83 -401 -111 q -306 -56 -346 -56 q -233 -84 -261 -56 q -206 -162 -206 -112 q -325 -379 -206 -282 l -381 -343 z "},"Ω":{"ha":1040,"x_min":104,"x_max":936,"o":"m 583 0 l 583 138 q 718 327 676 238 q 760 540 760 417 q 702 745 760 661 q 521 829 644 829 q 408 804 456 829 q 333 737 360 779 q 294 645 307 694 q 282 539 282 596 q 324 327 282 417 q 458 138 365 238 l 458 0 l 104 0 l 104 160 l 282 160 q 110 542 110 303 q 123 668 110 607 q 167 789 136 729 q 244 892 197 849 q 361 963 290 936 q 521 989 432 989 q 680 963 608 989 q 797 892 751 936 q 874 789 843 847 q 919 669 906 731 q 932 542 932 607 q 758 160 932 306 l 936 160 l 936 0 l 583 0 z "},"μ":{"ha":807,"x_min":101,"x_max":703,"o":"m 540 0 l 540 67 q 381 -17 483 -17 q 264 29 306 -17 l 264 -201 l 101 -278 l 101 710 l 264 710 l 264 304 q 297 177 264 215 q 396 139 329 139 q 540 301 540 139 l 540 710 l 703 710 l 703 0 l 540 0 z "},"π":{"ha":921,"x_min":35,"x_max":879,"o":"m 711 -17 q 546 165 546 -17 l 546 542 l 368 542 l 368 503 q 329 163 368 292 q 172 -32 290 33 l 35 76 q 101 124 75 100 q 156 189 128 147 q 199 296 185 231 q 213 449 213 361 l 213 542 l 88 542 l 88 710 l 868 710 l 868 542 l 708 542 l 708 196 q 768 128 708 128 q 879 160 818 128 l 858 15 q 711 -17 797 -17 z "},"Ẁ":{"ha":1183,"x_min":56,"x_max":1128,"o":"m 613 1063 l 365 1279 l 576 1279 l 774 1063 l 613 1063 m 264 0 l 56 972 l 226 972 l 342 400 q 358 307 357 319 q 378 400 363 338 l 521 972 l 663 972 l 808 401 q 828 308 822 351 q 844 400 833 349 l 960 972 l 1128 972 l 918 0 l 765 0 l 608 601 q 589 692 593 656 q 571 603 585 658 l 417 0 l 264 0 z "},"ẁ":{"ha":1026,"x_min":49,"x_max":978,"o":"m 535 800 l 288 1017 l 499 1017 l 696 800 l 535 800 m 243 0 l 49 710 l 208 710 l 300 317 q 317 233 307 285 q 335 317 324 271 l 439 710 l 588 710 l 690 317 q 708 233 701 271 q 725 317 718 285 l 818 710 l 978 710 l 783 0 l 639 0 l 535 383 q 513 481 514 465 q 490 383 507 453 l 386 0 l 243 0 z "},"Ẃ":{"ha":1183,"x_min":56,"x_max":1128,"o":"m 411 1063 l 608 1279 l 819 1279 l 572 1063 l 411 1063 m 264 0 l 56 972 l 226 972 l 342 400 q 358 307 357 319 q 378 400 363 338 l 521 972 l 663 972 l 808 401 q 828 308 822 351 q 844 400 833 349 l 960 972 l 1128 972 l 918 0 l 765 0 l 608 601 q 589 692 593 656 q 571 603 585 658 l 417 0 l 264 0 z "},"ẃ":{"ha":1026,"x_min":49,"x_max":978,"o":"m 333 800 l 531 1017 l 742 1017 l 494 800 l 333 800 m 243 0 l 49 710 l 208 710 l 300 317 q 317 233 307 285 q 335 317 324 271 l 439 710 l 588 710 l 690 317 q 708 233 701 271 q 725 317 718 285 l 818 710 l 978 710 l 783 0 l 639 0 l 535 383 q 513 481 514 465 q 490 383 507 453 l 386 0 l 243 0 z "},"Ẅ":{"ha":1183,"x_min":56,"x_max":1128,"o":"m 530 1103 q 516 1090 530 1103 q 463 1076 503 1076 q 395 1103 422 1076 q 368 1171 368 1131 q 395 1238 368 1211 q 463 1265 422 1265 q 530 1238 503 1265 q 557 1171 557 1211 q 530 1103 557 1131 m 786 1103 q 772 1090 786 1103 q 719 1076 758 1076 q 653 1103 681 1076 q 625 1171 625 1131 q 653 1238 625 1211 q 719 1265 681 1265 q 786 1238 758 1265 q 814 1171 814 1211 q 786 1103 814 1131 m 264 0 l 56 972 l 226 972 l 342 400 q 358 307 357 319 q 378 400 363 338 l 521 972 l 663 972 l 808 401 q 828 308 822 351 q 844 400 833 349 l 960 972 l 1128 972 l 918 0 l 765 0 l 608 601 q 589 692 593 656 q 571 603 585 658 l 417 0 l 264 0 z "},"ẅ":{"ha":1026,"x_min":49,"x_max":978,"o":"m 452 842 q 439 828 452 842 q 385 814 425 814 q 317 842 344 814 q 290 908 290 869 q 317 975 290 947 q 385 1003 344 1003 q 452 975 425 1003 q 479 908 479 947 q 452 842 479 869 m 708 842 q 694 828 708 842 q 642 814 681 814 q 575 842 603 814 q 547 908 547 869 q 575 975 547 947 q 642 1003 603 1003 q 708 975 681 1003 q 736 908 736 947 q 708 842 736 869 m 243 0 l 49 710 l 208 710 l 300 317 q 317 233 307 285 q 335 317 324 271 l 439 710 l 588 710 l 690 317 q 708 233 701 271 q 725 317 718 285 l 818 710 l 978 710 l 783 0 l 639 0 l 535 383 q 513 481 514 465 q 490 383 507 453 l 386 0 l 243 0 z "},"Ỳ":{"ha":943,"x_min":39,"x_max":906,"o":"m 457 1063 l 210 1279 l 421 1279 l 618 1063 l 457 1063 m 389 0 l 389 381 l 39 972 l 228 972 l 472 551 l 717 972 l 906 972 l 554 381 l 554 0 l 389 0 z "},"ỳ":{"ha":769,"x_min":35,"x_max":735,"o":"m 406 800 l 158 1017 l 369 1017 l 567 800 l 406 800 m 192 -269 l 301 11 l 35 710 l 199 710 l 364 274 q 385 210 376 243 q 404 274 392 240 l 571 710 l 735 710 l 360 -269 l 192 -269 z "},"–":{"ha":688,"x_min":69,"x_max":618,"o":"m 69 328 l 69 469 l 618 469 l 618 328 l 69 328 z "},"—":{"ha":799,"x_min":-7,"x_max":806,"o":"m -7 328 l -7 469 l 806 469 l 806 328 l -7 328 z "},"―":{"ha":799,"x_min":-7,"x_max":806,"o":"m -7 328 l -7 469 l 806 469 l 806 328 l -7 328 z "},"‘":{"ha":326,"x_min":49,"x_max":274,"o":"m 163 594 q 81 628 114 594 q 49 724 49 663 q 94 874 49 803 q 208 989 140 944 l 274 943 q 222 882 250 922 q 186 807 193 842 q 248 772 224 799 q 272 704 272 744 q 240 625 272 656 q 163 594 208 594 z "},"’":{"ha":326,"x_min":53,"x_max":278,"o":"m 53 640 q 106 702 78 663 q 140 776 133 742 q 79 812 104 785 q 54 879 54 839 q 87 958 54 928 q 164 989 119 989 q 245 955 213 989 q 278 860 278 921 q 232 709 278 782 q 118 594 186 636 l 53 640 z "},"‚":{"ha":326,"x_min":53,"x_max":278,"o":"m 53 -150 q 106 -88 78 -128 q 140 -14 133 -49 q 79 22 104 -6 q 54 89 54 49 q 87 169 54 138 q 164 200 119 200 q 245 166 213 200 q 278 69 278 132 q 232 -81 278 -8 q 118 -196 186 -154 l 53 -150 z "},"‛":{"ha":326,"x_min":49,"x_max":274,"o":"m 208 594 q 94 710 140 638 q 49 860 49 782 q 81 955 49 921 q 163 989 114 989 q 240 958 208 989 q 272 879 272 928 q 248 812 272 839 q 186 776 224 785 q 222 701 193 742 q 274 640 250 661 l 208 594 z "},"“":{"ha":647,"x_min":49,"x_max":594,"o":"m 163 594 q 81 628 114 594 q 49 724 49 663 q 94 874 49 803 q 208 989 140 944 l 274 943 q 222 882 250 922 q 186 807 193 842 q 248 772 224 799 q 272 704 272 744 q 240 625 272 656 q 163 594 208 594 m 483 594 q 402 628 435 594 q 369 724 369 663 q 415 874 369 801 q 529 989 461 946 l 594 943 q 543 883 571 922 q 507 807 515 843 q 569 772 544 799 q 593 704 593 744 q 561 625 593 656 q 483 594 529 594 z "},"”":{"ha":647,"x_min":53,"x_max":599,"o":"m 53 640 q 106 702 78 663 q 140 776 133 742 q 79 812 104 785 q 54 879 54 839 q 87 958 54 928 q 164 989 119 989 q 245 955 213 989 q 278 860 278 921 q 232 709 278 782 q 118 594 186 636 l 53 640 m 374 640 q 426 702 399 663 q 461 776 454 742 q 400 812 425 785 q 375 879 375 839 q 408 958 375 928 q 485 989 440 989 q 566 955 533 989 q 599 860 599 921 q 553 709 599 782 q 439 594 507 636 l 374 640 z "},"„":{"ha":647,"x_min":53,"x_max":599,"o":"m 53 -150 q 106 -88 78 -128 q 140 -14 133 -49 q 79 22 104 -6 q 54 89 54 49 q 87 169 54 138 q 164 200 119 200 q 245 166 213 200 q 278 69 278 132 q 232 -81 278 -8 q 118 -196 186 -154 l 53 -150 m 374 -150 q 426 -88 399 -128 q 461 -14 454 -49 q 400 22 425 -6 q 375 89 375 49 q 408 169 375 138 q 485 200 440 200 q 566 166 533 200 q 599 69 599 132 q 553 -81 599 -8 q 439 -196 507 -154 l 374 -150 z "},"†":{"ha":794,"x_min":90,"x_max":704,"o":"m 467 600 l 479 465 l 436 -196 l 361 -196 l 317 465 l 328 600 l 178 579 l 90 579 l 90 736 l 178 736 l 328 714 l 317 815 l 317 989 l 479 989 l 479 815 l 467 714 l 618 736 l 704 736 l 704 579 l 618 579 l 467 600 z "},"‡":{"ha":794,"x_min":90,"x_max":704,"o":"m 704 58 l 618 58 l 467 79 l 479 -22 l 479 -196 l 317 -196 l 317 -22 l 328 79 l 178 58 l 90 58 l 90 214 l 178 214 l 328 194 l 317 328 l 317 465 l 328 600 l 178 579 l 90 579 l 90 736 l 178 736 l 328 714 l 317 815 l 317 989 l 479 989 l 479 815 l 467 714 l 618 736 l 704 736 l 704 579 l 618 579 l 467 600 l 479 465 l 479 328 l 467 194 l 618 214 l 704 214 l 704 58 z "},"•":{"ha":575,"x_min":83,"x_max":492,"o":"m 286 290 q 142 347 200 290 q 83 486 83 404 q 142 626 83 568 q 286 685 200 685 q 431 626 371 685 q 492 486 492 568 q 431 347 492 404 q 286 290 371 290 z "},"…":{"ha":1375,"x_min":125,"x_max":1250,"o":"m 303 13 q 289 -2 303 13 q 229 -17 274 -17 q 155 13 185 -17 q 125 85 125 42 q 155 156 125 126 q 229 186 185 186 q 303 156 272 186 q 333 85 333 126 q 303 13 333 42 m 762 13 q 747 -2 762 13 q 688 -17 732 -17 q 613 13 643 -17 q 583 85 583 42 q 613 156 583 126 q 688 186 643 186 q 761 156 731 186 q 792 85 792 126 q 762 13 792 42 m 1220 13 q 1205 -2 1220 13 q 1146 -17 1190 -17 q 1072 13 1101 -17 q 1042 85 1042 42 q 1072 156 1042 126 q 1146 186 1101 186 q 1219 156 1189 186 q 1250 85 1250 126 q 1220 13 1250 42 z "},"‰":{"ha":1724,"x_min":63,"x_max":1661,"o":"m 294 488 q 120 563 178 488 q 63 739 63 638 q 120 912 63 835 q 294 989 178 989 q 469 914 411 989 q 526 739 526 839 q 469 565 526 642 q 294 488 413 488 m 335 -17 l 179 -17 l 843 989 l 999 989 l 335 -17 m 223 651 q 235 634 223 651 q 294 618 247 618 q 366 652 342 618 q 390 739 390 686 q 366 826 390 793 q 294 858 342 858 q 223 824 247 858 q 199 739 199 790 q 223 651 199 683 m 1058 60 q 1030 22 1058 60 q 883 -17 1001 -17 q 708 58 765 -17 q 651 235 651 133 q 709 408 651 331 q 883 485 767 485 q 1058 410 1000 485 q 1115 235 1115 336 q 1058 60 1115 136 m 1604 60 q 1576 22 1604 60 q 1429 -17 1547 -17 q 1254 58 1311 -17 q 1197 235 1197 133 q 1255 408 1197 331 q 1429 485 1313 485 q 1603 410 1546 485 q 1661 235 1661 336 q 1604 60 1661 136 m 812 147 q 824 130 812 147 q 883 114 836 114 q 955 148 931 114 q 979 235 979 182 q 954 322 979 289 q 883 354 929 354 q 812 321 836 354 q 788 235 788 288 q 812 147 788 179 m 1358 147 q 1370 130 1358 147 q 1429 114 1382 114 q 1501 148 1476 114 q 1525 235 1525 182 q 1500 322 1525 289 q 1429 354 1475 354 q 1358 321 1382 354 q 1333 235 1333 288 q 1358 147 1333 179 z "},"′":{"ha":325,"x_min":49,"x_max":276,"o":"m 49 561 l 76 1014 l 276 1014 l 189 561 l 49 561 z "},"″":{"ha":603,"x_min":49,"x_max":554,"o":"m 49 561 l 76 1014 l 276 1014 l 189 561 l 49 561 m 326 561 l 354 1014 l 554 1014 l 467 561 l 326 561 z "},"‹":{"ha":450,"x_min":42,"x_max":429,"o":"m 253 0 l 42 356 l 253 710 l 429 710 l 218 356 l 429 0 l 253 0 z "},"›":{"ha":450,"x_min":21,"x_max":408,"o":"m 21 0 l 232 356 l 21 710 l 197 710 l 408 356 l 197 0 l 21 0 z "},"⁄":{"ha":483,"x_min":-167,"x_max":650,"o":"m -167 -17 l 497 989 l 650 989 l -14 -17 l -167 -17 z "},"ⁿ":{"ha":654,"x_min":83,"x_max":578,"o":"m 440 393 l 440 736 q 412 829 440 799 q 336 860 383 860 q 222 738 222 860 l 222 393 l 83 393 l 83 975 l 222 975 l 222 918 q 378 989 275 989 q 522 932 465 989 q 578 750 578 875 l 578 393 l 440 393 z "},"₤":{"ha":835,"x_min":104,"x_max":793,"o":"m 115 0 l 115 146 q 215 281 196 186 l 104 281 l 104 411 l 226 411 q 201 503 222 456 l 104 503 l 104 633 l 154 633 q 146 713 146 664 q 231 907 146 825 q 476 989 317 989 q 640 965 571 989 q 781 889 708 940 l 717 735 q 658 780 681 764 q 585 814 636 796 q 476 832 533 832 q 354 795 394 832 q 314 706 314 758 q 329 633 314 671 l 603 633 l 603 503 l 379 503 q 396 411 394 461 l 603 411 l 603 281 l 383 281 q 306 158 364 208 l 793 158 l 793 0 l 115 0 z "},"€":{"ha":882,"x_min":54,"x_max":826,"o":"m 529 -17 q 183 301 246 -17 l 54 301 l 110 429 l 167 429 q 165 483 165 449 q 167 524 165 507 l 56 524 l 110 653 l 183 653 q 302 895 214 801 q 543 989 390 989 q 803 901 682 989 l 742 750 q 543 833 644 833 q 354 653 401 833 l 701 653 l 649 524 l 336 524 q 335 486 335 507 q 336 429 335 447 l 613 429 l 558 300 l 357 300 q 529 140 396 140 q 693 239 626 140 l 826 157 q 529 -17 722 -17 z "},"℅":{"ha":1467,"x_min":69,"x_max":1397,"o":"m 332 378 q 140 459 210 378 q 69 683 69 540 q 140 908 69 826 q 331 989 211 989 q 565 826 513 989 l 433 783 q 335 860 408 860 q 241 812 275 860 q 207 683 207 764 q 240 556 207 603 q 329 508 274 508 q 436 594 410 508 l 565 554 q 332 378 515 378 m 313 -17 l 976 989 l 1122 989 l 458 -17 l 313 -17 m 1325 65 q 1289 24 1325 65 q 1129 -17 1253 -17 q 934 65 1006 -17 q 863 288 863 146 q 934 511 863 429 q 1129 593 1006 593 q 1325 511 1253 593 q 1397 288 1397 429 q 1325 65 1397 146 m 1033 160 q 1051 137 1033 160 q 1129 114 1068 114 q 1225 160 1190 114 q 1260 288 1260 206 q 1225 417 1260 369 q 1129 464 1190 464 q 1033 417 1068 464 q 999 288 999 369 q 1033 160 999 206 z "},"ℓ":{"ha":669,"x_min":76,"x_max":607,"o":"m 351 -17 q 229 26 275 -17 q 183 158 183 68 l 183 293 q 128 267 149 274 l 76 396 q 183 451 131 419 l 183 699 q 238 923 183 857 q 394 989 292 989 q 548 934 489 989 q 607 778 607 879 q 583 643 607 706 q 515 531 560 581 q 435 450 471 481 q 346 383 399 419 l 346 207 q 360 145 346 161 q 406 129 375 129 q 508 189 458 129 l 556 76 q 351 -17 476 -17 m 396 861 q 357 831 368 861 q 346 707 346 800 l 346 550 q 444 758 444 638 q 396 861 444 861 z "},"№":{"ha":1642,"x_min":118,"x_max":1538,"o":"m 1465 460 q 1428 420 1465 460 q 1269 379 1392 379 q 1075 460 1147 379 q 1003 683 1003 542 q 1075 908 1003 826 q 1269 989 1147 989 q 1465 908 1392 989 q 1538 683 1538 826 q 1465 460 1538 542 m 874 0 l 722 0 l 319 614 q 279 686 300 643 q 283 614 283 653 l 283 0 l 118 0 l 118 972 l 279 972 l 672 368 q 713 294 686 347 q 708 368 708 332 l 708 972 l 874 972 l 874 0 m 1174 556 q 1191 533 1174 556 q 1269 510 1208 510 q 1365 556 1331 510 q 1400 683 1400 601 q 1365 813 1400 765 q 1269 860 1331 860 q 1174 813 1208 860 q 1140 683 1140 767 q 1174 556 1140 601 m 1003 154 l 1003 282 l 1538 282 l 1538 154 l 1003 154 z "},"™":{"ha":1143,"x_min":28,"x_max":1046,"o":"m 179 386 l 179 861 l 28 861 l 28 972 l 449 972 l 449 861 l 299 861 l 299 386 l 179 386 m 1046 386 l 926 386 l 926 708 l 914 678 l 769 379 l 625 678 l 611 710 l 611 386 l 492 386 l 492 972 l 607 972 l 756 665 l 769 633 l 782 665 l 931 972 l 1046 972 l 1046 386 z "},"Ω":{"ha":1040,"x_min":104,"x_max":936,"o":"m 583 0 l 583 138 q 718 327 676 238 q 760 540 760 417 q 702 745 760 661 q 521 829 644 829 q 408 804 456 829 q 333 737 360 779 q 294 645 307 694 q 282 539 282 596 q 324 327 282 417 q 458 138 365 238 l 458 0 l 104 0 l 104 160 l 282 160 q 110 542 110 303 q 123 668 110 607 q 167 789 136 729 q 244 892 197 849 q 361 963 290 936 q 521 989 432 989 q 680 963 608 989 q 797 892 751 936 q 874 789 843 847 q 919 669 906 731 q 932 542 932 607 q 758 160 932 306 l 936 160 l 936 0 l 583 0 z "},"℮":{"ha":1125,"x_min":90,"x_max":1035,"o":"m 569 -17 q 229 122 368 -17 q 90 486 90 261 q 131 708 90 610 q 239 868 171 807 q 393 961 307 929 q 574 993 479 993 q 893 860 761 993 q 1035 481 1025 726 l 328 481 l 328 189 q 425 115 361 144 q 572 86 489 86 q 893 269 774 86 l 976 217 q 806 42 901 101 q 569 -17 710 -17 m 328 582 l 806 583 l 806 796 q 706 865 769 838 q 571 892 643 892 q 328 804 422 892 l 328 582 z "},"⅓":{"ha":1028,"x_min":17,"x_max":982,"o":"m 17 -17 l 681 989 l 833 989 l 169 -17 l 17 -17 m 92 393 l 92 840 l 18 840 l 18 940 q 118 979 96 940 l 225 979 l 225 393 l 92 393 m 772 -11 q 637 34 692 -11 q 557 161 582 79 l 683 194 q 775 113 703 113 q 827 130 807 113 q 847 178 847 147 q 765 243 847 243 l 717 243 l 717 361 l 764 361 q 826 417 826 361 q 812 458 826 442 q 769 474 797 474 q 696 415 718 474 l 576 458 q 655 559 603 522 q 776 596 707 596 q 911 547 861 596 q 961 428 961 499 q 941 357 961 390 q 890 306 921 324 q 982 171 982 268 q 925 39 982 89 q 772 -11 868 -11 z "},"⅔":{"ha":1251,"x_min":35,"x_max":1206,"o":"m 35 393 q 239 729 35 625 q 276 751 263 742 q 301 775 290 760 q 313 808 313 790 q 295 849 313 832 q 247 865 278 865 q 160 786 178 865 l 35 817 q 111 941 53 893 q 250 989 169 989 q 397 939 342 989 q 453 810 453 889 q 442 742 453 771 q 406 691 432 714 q 360 655 381 668 q 297 619 339 642 q 192 518 219 579 l 451 518 l 451 393 l 35 393 m 240 -17 l 904 989 l 1057 989 l 393 -17 l 240 -17 m 996 -11 q 860 34 915 -11 q 781 161 806 79 l 907 194 q 999 113 926 113 q 1051 130 1031 113 q 1071 178 1071 147 q 989 243 1071 243 l 940 243 l 940 361 l 988 361 q 1050 417 1050 361 q 1035 458 1050 442 q 993 474 1021 474 q 919 415 942 474 l 800 458 q 878 559 826 522 q 1000 596 931 596 q 1135 547 1085 596 q 1185 428 1185 499 q 1165 357 1185 390 q 1114 306 1144 324 q 1206 171 1206 268 q 1149 39 1206 89 q 996 -11 1092 -11 z "},"⅛":{"ha":1032,"x_min":17,"x_max":986,"o":"m 17 -17 l 681 989 l 833 989 l 169 -17 l 17 -17 m 92 393 l 92 840 l 18 840 l 18 940 q 118 979 96 940 l 225 979 l 225 393 l 92 393 m 772 -11 q 619 41 678 -11 q 560 176 560 93 q 585 260 560 222 q 650 319 610 299 q 583 436 583 361 q 635 551 583 507 q 772 596 686 596 q 910 552 858 596 q 961 436 961 508 q 896 319 961 361 q 961 260 936 299 q 986 176 986 222 q 927 40 986 92 q 772 -11 868 -11 m 772 374 q 820 390 803 374 q 838 431 838 406 q 820 472 838 456 q 772 489 803 489 q 727 472 746 489 q 708 431 708 454 q 727 390 708 407 q 772 374 746 374 m 772 99 q 838 121 813 99 q 863 179 863 143 q 838 240 863 215 q 772 264 813 264 q 708 240 733 264 q 683 179 683 215 q 708 121 683 143 q 772 99 733 99 z "},"⅜":{"ha":1196,"x_min":17,"x_max":1150,"o":"m 233 383 q 97 428 153 383 q 17 554 40 474 l 144 588 q 236 506 164 506 q 288 523 268 506 q 307 571 307 540 q 225 636 307 636 l 178 636 l 178 754 l 224 754 q 288 810 288 754 q 272 851 288 835 q 229 867 257 867 q 157 808 178 867 l 38 851 q 115 952 63 915 q 238 989 168 989 q 372 940 321 989 q 422 821 422 892 q 351 699 422 742 q 442 564 442 660 q 385 433 442 482 q 233 383 329 383 m 182 -17 l 846 989 l 999 989 l 335 -17 l 182 -17 m 1092 40 q 1063 15 1092 40 q 938 -11 1033 -11 q 783 40 842 -11 q 724 176 724 92 q 749 260 724 222 q 814 319 775 299 q 749 436 749 361 q 800 552 749 508 q 938 596 851 596 q 1075 552 1024 596 q 1126 436 1126 508 q 1061 319 1126 361 q 1125 260 1100 299 q 1150 176 1150 222 q 1092 40 1150 92 m 938 374 q 984 390 967 374 q 1001 431 1001 406 q 984 472 1001 456 q 938 489 967 489 q 891 472 910 489 q 872 431 872 454 q 891 390 872 407 q 938 374 910 374 m 938 99 q 1001 121 976 99 q 1026 179 1026 143 q 1001 240 1026 215 q 938 264 976 264 q 873 240 899 264 q 847 179 847 215 q 872 122 847 144 q 938 99 897 99 z "},"⅝":{"ha":1194,"x_min":29,"x_max":1149,"o":"m 179 -17 l 843 989 l 996 989 l 332 -17 l 179 -17 m 226 383 q 29 446 113 383 l 101 549 q 222 504 165 504 q 294 527 267 504 q 321 589 321 550 q 301 645 321 625 q 246 665 281 665 q 163 607 193 665 l 47 667 l 64 985 l 419 985 l 419 864 l 181 864 l 174 764 q 260 786 211 786 q 403 728 353 786 q 454 592 454 671 q 391 440 454 496 q 226 383 328 383 m 935 -11 q 781 41 840 -11 q 722 176 722 93 q 747 260 722 222 q 813 319 772 299 q 746 436 746 361 q 797 551 746 507 q 935 596 849 596 q 1072 552 1021 596 q 1124 436 1124 508 q 1058 319 1124 361 q 1124 260 1099 299 q 1149 176 1149 222 q 1090 40 1149 92 q 935 -11 1031 -11 m 935 374 q 983 390 965 374 q 1000 431 1000 406 q 983 472 1000 456 q 935 489 965 489 q 890 472 908 489 q 871 431 871 454 q 890 390 871 407 q 935 374 908 374 m 935 99 q 1000 121 975 99 q 1025 179 1025 143 q 1000 240 1025 215 q 935 264 975 264 q 871 240 896 264 q 846 179 846 215 q 871 121 846 143 q 935 99 896 99 z "},"⅞":{"ha":1069,"x_min":7,"x_max":1024,"o":"m 56 -17 l 719 989 l 872 989 l 208 -17 l 56 -17 m 125 393 q 265 860 126 646 l 7 860 l 7 985 l 417 985 l 417 875 q 298 646 335 781 q 260 393 261 511 l 125 393 m 811 -11 q 657 40 717 -11 q 597 176 597 92 q 623 260 597 222 q 688 319 649 299 q 622 436 622 361 q 674 552 622 508 q 811 596 725 596 q 949 552 897 596 q 1000 436 1000 508 q 935 319 1000 361 q 999 260 974 299 q 1024 176 1024 222 q 965 40 1024 92 q 811 -11 907 -11 m 811 374 q 858 390 840 374 q 875 431 875 406 q 858 472 875 456 q 811 489 840 489 q 765 472 783 489 q 746 431 746 454 q 765 390 746 407 q 811 374 783 374 m 811 99 q 875 121 850 99 q 900 179 900 143 q 875 240 900 215 q 811 264 850 264 q 747 240 772 264 q 721 179 721 215 q 746 122 721 144 q 811 99 771 99 z "},"←":{"ha":1069,"x_min":42,"x_max":1014,"o":"m 456 210 q 432 221 450 210 l 57 476 q 42 500 42 486 q 57 524 42 514 l 432 781 q 456 792 450 792 q 472 776 472 792 q 464 747 472 769 l 403 569 l 1014 585 l 1014 417 l 403 432 l 464 254 q 472 225 472 232 q 456 210 472 210 z "},"↑":{"ha":667,"x_min":42,"x_max":625,"o":"m 249 0 l 265 613 l 86 550 q 57 542 64 542 q 42 558 42 542 q 53 582 42 564 l 310 957 q 333 972 321 972 q 357 957 347 972 l 614 582 q 625 558 625 564 q 610 542 625 542 q 581 550 603 542 l 401 613 l 418 0 l 249 0 z "},"→":{"ha":1069,"x_min":56,"x_max":1028,"o":"m 614 210 q 597 225 597 210 q 606 254 597 232 l 668 432 l 56 417 l 56 585 l 668 569 l 606 747 q 597 776 597 769 q 614 792 597 792 q 638 781 619 792 l 1013 524 q 1028 500 1028 514 q 1013 476 1028 486 l 638 221 q 614 210 619 210 z "},"↓":{"ha":686,"x_min":46,"x_max":640,"o":"m 367 15 q 343 0 357 0 q 319 15 329 0 l 57 399 q 46 422 46 417 q 61 439 46 439 q 90 431 68 439 l 275 367 l 258 972 l 428 972 l 411 367 l 596 431 q 625 439 618 439 q 640 422 640 439 q 629 399 640 417 l 367 15 z "},"↔":{"ha":1368,"x_min":42,"x_max":1326,"o":"m 913 210 q 896 225 896 210 q 904 254 896 232 l 965 429 l 404 429 l 464 254 q 472 225 472 232 q 456 210 472 210 q 432 221 450 210 l 57 476 q 42 500 42 486 q 57 524 42 514 l 432 781 q 456 792 450 792 q 472 776 472 792 q 464 747 472 769 l 404 572 l 965 572 l 904 747 q 896 776 896 769 q 913 792 896 792 q 936 781 918 792 l 1311 524 q 1326 500 1326 514 q 1311 476 1326 486 l 936 221 q 913 210 918 210 z "},"↕":{"ha":686,"x_min":51,"x_max":635,"o":"m 365 -221 q 342 -236 356 -236 q 318 -221 328 -236 l 63 154 q 51 178 51 172 q 67 194 51 194 q 96 186 74 194 l 271 126 l 271 703 l 96 642 q 67 633 74 633 q 51 650 51 633 q 63 674 51 656 l 318 1049 q 342 1064 328 1064 q 365 1049 356 1064 l 624 674 q 635 650 635 656 q 619 633 635 633 q 590 642 613 633 l 414 703 l 414 126 l 590 186 q 619 194 613 194 q 635 178 635 194 q 624 154 635 172 l 365 -221 z "},"↖":{"ha":849,"x_min":63,"x_max":818,"o":"m 699 82 l 278 526 l 196 357 q 169 326 181 326 q 149 360 153 326 l 68 779 q 63 814 63 810 q 69 830 63 824 q 86 836 76 836 q 113 832 96 836 l 544 751 q 575 732 575 746 q 544 706 575 719 l 374 624 l 818 203 l 699 82 z "},"↗":{"ha":849,"x_min":32,"x_max":786,"o":"m 150 82 l 32 203 l 475 624 l 304 706 q 274 732 274 721 q 304 751 274 744 l 736 832 q 764 836 753 836 q 786 814 786 836 q 781 779 786 810 l 701 360 q 679 326 694 326 q 672 328 675 326 q 667 333 669 329 q 663 338 664 336 q 659 347 663 340 q 654 357 656 354 l 572 526 l 150 82 z "},"↘":{"ha":849,"x_min":32,"x_max":786,"o":"m 764 82 q 751 84 761 82 q 736 86 740 86 l 304 167 q 274 188 274 174 q 304 213 274 197 l 475 296 l 32 717 l 150 836 l 572 392 l 654 563 q 658 569 656 565 q 660 576 660 574 q 663 581 661 578 q 667 586 665 585 q 670 589 668 588 q 674 591 672 590 q 679 592 676 592 q 701 560 694 592 l 781 139 q 786 104 786 108 q 764 82 786 82 z "},"↙":{"ha":849,"x_min":63,"x_max":818,"o":"m 86 82 q 69 88 76 82 q 63 104 63 94 q 68 139 63 108 l 149 560 q 169 592 153 592 q 196 563 181 592 l 278 392 l 699 836 l 818 717 l 374 296 l 544 213 q 575 188 575 197 q 544 167 575 172 l 113 86 q 98 84 107 86 q 86 82 89 82 z "},"↳":{"ha":1056,"x_min":106,"x_max":1007,"o":"m 992 321 q 1007 297 1007 311 q 992 274 1007 283 l 617 18 q 593 7 599 7 q 576 22 576 7 q 585 51 576 29 l 644 226 l 106 226 l 106 972 l 253 972 l 253 369 l 644 369 l 585 544 q 576 574 576 567 q 593 589 576 589 q 617 578 599 589 l 992 321 z "},"↴":{"ha":1056,"x_min":106,"x_max":1007,"o":"m 992 447 q 1007 431 1007 447 q 996 407 1007 425 l 740 32 q 717 17 731 17 q 693 32 703 17 l 436 407 q 425 431 425 425 q 440 447 425 447 q 469 439 447 447 l 642 381 l 642 832 l 106 832 l 106 972 l 790 972 l 790 381 l 963 439 q 992 447 985 447 z "},"↵":{"ha":1056,"x_min":49,"x_max":950,"o":"m 803 972 l 950 972 l 950 226 l 411 226 l 471 51 q 479 22 479 29 q 463 7 479 7 q 439 18 457 7 l 64 274 q 49 297 49 283 q 64 321 49 311 l 439 578 q 463 589 457 589 q 479 574 479 589 q 471 544 479 567 l 411 369 l 803 369 l 803 972 z "},"↶":{"ha":1138,"x_min":49,"x_max":1026,"o":"m 646 989 q 918 883 810 989 q 1026 590 1026 776 l 1026 0 l 878 0 l 878 590 q 814 779 878 711 q 646 847 750 847 q 478 780 542 847 q 415 590 415 713 l 415 549 l 586 607 q 615 615 608 615 q 631 599 631 615 q 619 575 631 593 l 364 200 q 340 185 354 185 q 317 200 328 185 l 60 575 q 49 599 49 593 q 64 615 49 615 q 93 607 71 615 l 265 549 l 265 590 q 374 883 265 776 q 646 989 483 989 z "},"↷":{"ha":1138,"x_min":111,"x_max":1089,"o":"m 1074 615 q 1089 599 1089 615 q 1078 575 1089 593 l 821 200 q 797 185 811 185 q 774 200 783 185 l 518 575 q 507 599 507 593 q 522 615 507 615 q 551 607 529 615 l 724 549 l 724 590 q 660 780 724 713 q 492 847 597 847 q 324 779 388 847 q 261 590 261 711 l 261 0 l 111 0 l 111 590 q 219 883 111 776 q 492 989 328 989 q 763 883 654 989 q 872 590 872 776 l 872 549 l 1044 607 q 1074 615 1067 615 z "},"↸":{"ha":849,"x_min":63,"x_max":818,"o":"m 63 832 l 63 972 l 818 972 l 818 832 l 63 832 m 699 -44 l 278 400 l 196 231 q 169 200 181 200 q 149 233 153 200 l 68 653 q 63 688 63 683 q 69 703 63 697 q 86 710 76 710 q 113 706 96 710 l 544 625 q 575 606 575 619 q 544 579 575 593 l 374 497 l 818 76 l 699 -44 z "},"↹":{"ha":1354,"x_min":106,"x_max":1249,"o":"m 761 453 q 738 464 756 453 l 363 719 q 347 743 347 729 q 363 767 347 757 l 738 1024 q 761 1035 756 1035 q 778 1019 778 1035 q 769 990 778 1013 l 708 813 l 1249 828 l 1249 660 l 708 675 l 769 497 q 778 468 778 475 q 761 453 778 453 m 106 465 l 106 1021 l 268 1021 l 268 465 l 106 465 m 593 -340 q 576 -325 576 -340 q 585 -296 576 -318 l 646 -118 l 106 -135 l 106 35 l 646 19 l 585 197 q 576 226 576 219 q 593 242 576 242 q 617 231 599 242 l 992 -26 q 1007 -50 1007 -37 q 992 -74 1007 -64 l 617 -329 q 593 -340 599 -340 m 1086 -326 l 1086 228 l 1249 228 l 1249 -326 l 1086 -326 z "},"↺":{"ha":1175,"x_min":139,"x_max":1121,"o":"m 1090 914 q 1121 893 1121 908 q 1090 868 1121 882 l 921 786 q 1036 486 1036 657 q 904 169 1036 300 q 588 38 772 38 q 271 169 403 38 q 139 486 139 300 q 271 803 139 674 l 371 703 q 281 486 281 613 q 371 269 281 360 q 588 179 461 179 q 804 269 714 179 q 894 486 894 360 q 821 685 894 597 l 742 518 q 715 489 728 489 q 694 521 699 489 l 614 942 q 608 976 608 972 q 615 992 608 986 q 632 999 622 999 q 644 997 635 999 q 658 994 653 994 l 1090 914 z "},"⇚":{"ha":1069,"x_min":42,"x_max":1014,"o":"m 1014 592 l 410 592 l 392 539 l 1014 539 l 1014 463 l 393 463 l 410 411 l 1014 411 l 1014 335 l 436 335 l 464 254 q 472 225 472 232 q 456 210 472 210 q 432 221 450 210 l 57 476 q 42 500 42 486 q 57 524 42 514 l 432 781 q 456 792 450 792 q 472 776 472 792 q 464 747 472 769 l 436 668 l 1014 668 l 1014 592 z "},"⇛":{"ha":1069,"x_min":56,"x_max":1028,"o":"m 1013 524 q 1028 500 1028 514 q 1013 476 1028 486 l 638 221 q 614 210 619 210 q 597 225 597 210 q 606 254 597 232 l 633 335 l 56 335 l 56 411 l 660 411 l 678 463 l 56 463 l 56 539 l 679 539 l 660 592 l 56 592 l 56 668 l 633 668 l 606 747 q 597 776 597 769 q 614 792 597 792 q 638 781 619 792 l 1013 524 z "},"⇜":{"ha":1069,"x_min":42,"x_max":1014,"o":"m 919 575 l 1014 575 l 1014 428 l 878 428 l 850 515 l 796 349 l 707 349 l 653 517 l 599 349 l 510 349 l 483 428 l 390 428 l 450 254 q 458 225 458 232 q 443 210 458 210 q 419 221 438 210 l 57 478 q 42 501 42 488 q 57 524 42 513 l 419 781 q 443 792 435 792 q 458 776 458 792 q 450 747 458 769 l 390 575 l 525 575 l 554 486 l 608 654 l 697 654 l 751 486 l 806 654 l 894 654 l 919 575 z "},"⇝":{"ha":1069,"x_min":56,"x_max":1028,"o":"m 1013 524 q 1028 501 1028 513 q 1013 478 1028 488 l 651 221 q 628 210 633 210 q 611 225 611 210 q 619 254 611 232 l 681 428 l 586 428 l 561 349 l 472 349 l 418 517 l 364 349 l 275 349 l 221 515 l 193 428 l 56 428 l 56 575 l 150 575 l 176 654 l 265 654 l 319 486 l 374 654 l 463 654 l 517 486 l 544 575 l 681 575 l 619 747 q 611 776 611 769 q 628 792 611 792 q 651 781 636 792 l 1013 524 z "},"⇞":{"ha":667,"x_min":42,"x_max":625,"o":"m 614 582 q 625 558 625 564 q 610 542 625 542 q 581 550 603 542 l 406 611 l 406 468 l 608 468 l 608 353 l 406 353 l 406 256 l 608 256 l 608 140 l 406 140 l 406 0 l 261 0 l 261 140 l 57 140 l 57 256 l 261 256 l 261 353 l 57 353 l 57 468 l 261 468 l 261 611 l 86 550 q 57 542 64 542 q 42 558 42 542 q 53 582 42 564 l 310 957 q 333 972 321 972 q 357 957 347 972 l 614 582 z "},"⇟":{"ha":667,"x_min":42,"x_max":625,"o":"m 610 431 q 625 414 625 431 q 614 390 625 408 l 357 15 q 333 0 347 0 q 310 15 321 0 l 53 390 q 42 414 42 408 q 57 431 42 431 q 86 422 64 431 l 261 363 l 261 504 l 57 504 l 57 619 l 261 619 l 261 717 l 57 717 l 57 832 l 261 832 l 261 972 l 406 972 l 406 832 l 608 832 l 608 717 l 406 717 l 406 619 l 608 619 l 608 504 l 406 504 l 406 363 l 581 422 q 610 431 603 431 z "},"⇠":{"ha":1069,"x_min":42,"x_max":1014,"o":"m 464 747 l 404 572 l 510 572 l 510 429 l 404 429 l 464 254 q 472 225 472 232 q 456 210 472 210 q 432 221 450 210 l 57 476 q 42 500 42 486 q 57 524 42 514 l 432 781 q 456 792 450 792 q 472 776 472 792 q 464 747 472 769 m 617 429 l 617 572 l 763 572 l 763 429 l 617 429 m 869 572 l 1014 572 l 1014 429 l 869 429 l 869 572 z "},"⇡":{"ha":667,"x_min":42,"x_max":625,"o":"m 614 582 q 625 558 625 564 q 610 542 625 542 q 581 550 603 542 l 407 610 l 407 500 l 260 500 l 260 610 l 86 550 q 57 542 64 542 q 42 558 42 542 q 53 582 42 564 l 310 957 q 333 972 321 972 q 357 957 347 972 l 614 582 m 260 250 l 260 393 l 407 393 l 407 250 l 260 250 m 260 0 l 260 143 l 407 143 l 407 0 l 260 0 z "},"⇢":{"ha":1069,"x_min":56,"x_max":1028,"o":"m 1013 524 q 1028 500 1028 514 q 1013 476 1028 486 l 638 221 q 614 210 619 210 q 597 225 597 210 q 606 254 597 232 l 667 429 l 560 429 l 560 572 l 667 572 l 606 747 q 597 776 597 769 q 614 792 597 792 q 638 781 619 792 l 1013 524 m 56 429 l 56 572 l 201 572 l 201 429 l 56 429 m 308 429 l 308 572 l 453 572 l 453 429 l 308 429 z "},"⇣":{"ha":667,"x_min":42,"x_max":625,"o":"m 407 972 l 407 826 l 260 826 l 260 972 l 407 972 m 407 719 l 407 574 l 260 574 l 260 719 l 407 719 m 610 431 q 625 414 625 431 q 614 390 625 408 l 357 15 q 333 0 347 0 q 310 15 321 0 l 53 390 q 42 414 42 408 q 57 431 42 431 q 86 422 64 431 l 260 363 l 260 467 l 407 467 l 407 363 l 581 422 q 610 431 603 431 z "},"⇤":{"ha":1254,"x_min":106,"x_max":1199,"o":"m 106 144 l 106 854 l 268 854 l 268 144 l 106 144 m 761 210 q 738 221 756 210 l 363 476 q 347 500 347 486 q 363 524 347 514 l 738 781 q 761 792 756 792 q 778 776 778 792 q 769 747 778 769 l 708 569 l 1199 585 l 1199 417 l 708 432 l 769 254 q 778 225 778 232 q 761 210 778 210 z "},"⇥":{"ha":1254,"x_min":56,"x_max":1149,"o":"m 986 144 l 986 854 l 1149 854 l 1149 144 l 986 144 m 493 210 q 476 225 476 210 q 485 254 476 232 l 546 432 l 56 417 l 56 585 l 546 569 l 485 747 q 476 776 476 769 q 493 792 476 792 q 517 781 499 792 l 892 524 q 907 500 907 514 q 892 476 907 486 l 517 221 q 493 210 499 210 z "},"∂":{"ha":819,"x_min":42,"x_max":743,"o":"m 351 -17 q 126 63 210 -17 q 42 283 42 143 q 142 522 42 429 q 379 614 242 614 q 578 532 507 614 q 572 588 575 571 q 464 769 549 710 q 261 835 379 829 l 301 989 q 638 835 533 965 q 743 463 743 704 q 722 283 743 365 q 655 131 700 200 q 532 23 610 63 q 351 -17 454 -17 m 361 140 q 499 189 446 140 q 551 314 551 238 q 510 421 551 383 q 393 458 468 458 q 260 410 311 458 q 208 286 208 361 q 249 179 208 218 q 361 140 290 140 z "},"∆":{"ha":929,"x_min":36,"x_max":893,"o":"m 36 0 l 385 972 l 546 972 l 893 0 l 36 0 m 263 158 l 668 158 l 497 654 q 467 753 472 725 q 436 654 460 725 l 263 158 z "},"∏":{"ha":1010,"x_min":125,"x_max":885,"o":"m 722 -194 l 722 817 l 288 817 l 288 -194 l 125 -194 l 125 972 l 885 972 l 885 -194 l 722 -194 z "},"∑":{"ha":857,"x_min":63,"x_max":808,"o":"m 63 -194 l 63 -44 l 390 404 l 82 824 l 82 974 l 782 974 l 782 817 l 289 817 l 594 403 l 272 -37 l 808 -37 l 808 -194 l 63 -194 z "},"−":{"ha":875,"x_min":111,"x_max":764,"o":"m 111 399 l 111 556 l 764 556 l 764 399 l 111 399 z "},"∕":{"ha":483,"x_min":-167,"x_max":650,"o":"m -167 -17 l 497 989 l 650 989 l -14 -17 l -167 -17 z "},"∙":{"ha":322,"x_min":50,"x_max":272,"o":"m 240 409 q 224 393 240 409 q 161 378 208 378 q 82 409 114 378 q 50 485 50 440 q 82 563 50 531 q 161 594 114 594 q 240 563 208 594 q 272 485 272 531 q 240 409 272 440 z "},"√":{"ha":788,"x_min":63,"x_max":746,"o":"m 746 972 l 450 0 l 318 0 l 63 483 l 238 483 l 365 233 l 579 972 l 746 972 z "},"∞":{"ha":1397,"x_min":49,"x_max":1349,"o":"m 1011 158 q 699 340 815 158 q 386 158 581 158 q 144 245 240 158 q 49 482 49 332 q 144 719 49 632 q 386 807 240 807 q 699 625 581 807 q 1008 807 817 807 q 1253 720 1157 807 q 1349 482 1349 633 q 1253 245 1349 332 q 1011 158 1157 158 m 392 314 q 626 482 525 314 q 392 651 526 651 q 262 606 313 651 q 211 482 211 561 q 262 359 211 404 q 392 314 313 314 m 1006 314 q 1135 359 1085 314 q 1186 482 1186 404 q 1135 606 1186 561 q 1006 651 1085 651 q 772 482 869 651 q 1006 314 874 314 z "},"∫":{"ha":590,"x_min":56,"x_max":535,"o":"m 208 -194 q 56 -161 126 -194 l 56 -31 q 157 -53 117 -53 q 214 4 214 -53 l 214 821 q 383 989 214 989 q 535 956 469 989 l 535 825 q 433 847 476 847 q 376 792 376 847 l 376 -26 q 208 -194 376 -194 z "},"≈":{"ha":875,"x_min":110,"x_max":765,"o":"m 574 510 q 424 549 510 510 q 307 588 339 588 q 233 510 243 588 l 110 510 q 157 678 110 611 q 301 746 204 746 q 451 707 367 746 q 568 668 535 668 q 642 746 635 668 l 765 746 q 718 577 765 644 q 574 510 671 510 m 574 210 q 424 249 510 210 q 307 288 339 288 q 233 210 243 288 l 110 210 q 157 378 110 311 q 301 444 204 444 q 451 406 367 444 q 568 367 535 367 q 642 444 635 367 l 765 444 q 718 276 765 343 q 574 210 671 210 z "},"≠":{"ha":875,"x_min":103,"x_max":758,"o":"m 417 253 l 367 142 l 193 142 l 243 253 l 103 253 l 103 411 l 314 411 l 372 542 l 103 542 l 103 700 l 443 700 l 497 821 l 672 821 l 618 700 l 758 700 l 758 542 l 547 542 l 489 411 l 758 411 l 758 253 l 417 253 z "},"≤":{"ha":875,"x_min":111,"x_max":765,"o":"m 765 228 l 111 467 l 111 599 l 765 836 l 765 676 l 338 532 l 765 389 l 765 228 m 111 0 l 111 157 l 764 157 l 764 0 l 111 0 z "},"≥":{"ha":875,"x_min":111,"x_max":765,"o":"m 111 228 l 111 389 l 539 532 l 111 676 l 111 836 l 765 599 l 765 467 l 111 228 m 111 0 l 111 157 l 764 157 l 764 0 l 111 0 z "},"◊":{"ha":839,"x_min":76,"x_max":763,"o":"m 357 -17 l 76 486 l 357 989 l 483 989 l 763 486 l 483 -17 l 357 -17 m 419 778 l 249 486 l 419 194 l 592 486 l 419 778 z "},"◌":{"ha":894,"x_min":76,"x_max":818,"o":"m 406 825 q 417 857 406 844 q 447 869 429 869 q 477 857 465 869 q 489 825 489 844 q 477 795 489 807 q 447 783 465 783 q 417 795 429 783 q 406 825 406 807 m 279 800 q 291 832 279 819 q 322 844 303 844 q 352 832 340 844 q 364 800 364 819 q 352 770 364 782 q 322 758 340 758 q 292 770 304 758 q 279 800 279 782 m 529 800 q 542 831 529 819 q 571 843 554 843 q 603 831 590 843 q 615 800 615 819 q 603 770 615 782 q 571 758 590 758 q 541 770 553 758 q 529 800 529 782 m 186 699 q 180 705 186 699 q 174 731 174 711 q 186 761 174 750 q 217 772 199 772 q 258 731 258 772 q 247 699 258 711 q 217 688 236 688 q 186 699 199 688 m 648 699 q 642 705 648 699 q 636 731 636 711 q 648 761 636 750 q 678 772 660 772 q 709 761 697 772 q 721 731 721 750 q 709 699 721 711 q 678 688 697 688 q 648 699 660 688 m 707 624 q 719 655 707 642 q 749 668 731 668 q 780 655 768 668 q 792 624 792 642 q 780 594 792 607 q 749 582 768 582 q 719 594 731 582 q 707 624 707 607 m 103 624 q 115 654 103 642 q 146 667 128 667 q 177 655 165 667 q 189 624 189 643 q 176 594 189 607 q 146 581 163 581 q 115 594 128 581 q 103 624 103 607 m 76 499 q 89 530 76 518 q 121 542 101 542 q 163 499 163 542 q 121 457 163 457 q 89 469 101 457 q 76 499 76 481 m 732 499 q 743 530 732 518 q 774 542 754 542 q 805 530 792 542 q 818 499 818 518 q 805 469 818 481 q 774 457 792 457 q 744 469 756 457 q 732 499 732 481 m 103 374 q 115 405 103 393 q 146 417 126 417 q 176 405 164 417 q 188 374 188 393 q 176 343 188 356 q 146 331 164 331 q 115 343 128 331 q 103 374 103 356 m 706 375 q 718 405 706 393 q 749 417 731 417 q 780 405 768 417 q 792 375 792 393 q 780 344 792 356 q 749 332 768 332 q 718 344 731 332 q 706 375 706 356 m 174 268 q 186 299 174 288 q 217 311 199 311 q 247 299 236 311 q 258 268 258 288 q 247 238 258 250 q 217 226 236 226 q 186 238 199 226 q 174 268 174 250 m 636 268 q 648 299 636 288 q 678 311 660 311 q 709 299 697 311 q 721 268 721 288 q 709 238 721 250 q 678 226 697 226 q 648 238 660 226 q 636 268 636 250 m 279 199 q 292 228 279 217 q 324 240 304 240 q 353 228 342 240 q 365 199 365 217 q 353 167 365 181 q 324 154 340 154 q 292 167 304 154 q 279 199 279 179 m 531 197 q 542 228 531 217 q 572 240 554 240 q 615 197 615 240 q 603 166 615 178 q 572 154 592 154 q 542 167 554 154 q 531 197 531 179 m 406 172 q 417 203 406 192 q 447 215 429 215 q 478 203 467 215 q 489 172 489 192 q 477 141 489 153 q 447 129 465 129 q 417 142 429 129 q 406 172 406 154 z "},"":{"ha":0,"x_min":-403,"x_max":-207,"o":"m -207 1014 l -207 1003 q -351 664 -207 804 l -403 703 q -361 1014 -361 789 l -207 1014 z "},"ﬁ":{"ha":857,"x_min":49,"x_max":767,"o":"m 739 835 q 725 821 739 835 q 671 807 711 807 q 602 835 631 807 q 574 904 574 864 q 602 972 574 944 q 671 1000 631 1000 q 739 972 711 1000 q 767 904 767 944 q 739 835 767 864 m 314 568 l 314 0 l 151 0 l 151 568 l 49 568 l 49 710 l 151 710 l 151 821 q 319 989 151 989 q 469 956 404 989 l 469 822 q 368 846 413 846 q 314 790 314 846 l 314 710 l 469 710 l 469 568 l 314 568 m 589 0 l 589 710 l 751 710 l 751 0 l 589 0 z "},"ﬂ":{"ha":868,"x_min":49,"x_max":757,"o":"m 594 0 l 594 926 l 757 1003 l 757 0 l 594 0 m 314 568 l 314 0 l 151 0 l 151 568 l 49 568 l 49 710 l 151 710 l 151 821 q 319 989 151 989 q 469 956 404 989 l 469 822 q 368 846 413 846 q 314 790 314 846 l 314 710 l 469 710 l 469 568 l 314 568 z "}}}
